M48
INCH,TZ
T1C0.020
T2C0.126
%
G90
G05
T1
X2065Y-14580
X2160Y-11760
X2340Y-10970
X2455Y-8620
X2495Y-14350
X2850Y-12850
X4705Y-17220
X4880Y-9670
X5275Y-17170
X7150Y-17900
X7200Y-21500
X7250Y-30850
X8210Y-31835
X8363Y-6596
X9283Y-13581
X9385Y-32655
X10100Y-15200
X10150Y-12900
X10200Y-21750
X10200Y-23500
X10200Y-31150
X10350Y-33600
X10580Y-26365
X11040Y-11860
X11100Y-27700
X11375Y-6810
X12420Y-7800
X16550Y-13200
X16710Y-36920
X17500Y-31725
X17600Y-33850
X17850Y-21250
X18582Y-6296
X18635Y-32465
X18780Y-11585
X19105Y-12955
X19450Y-15700
X19450Y-33850
X19500Y-25150
X20800Y-25730
X20985Y-7405
X21880Y-26610
X22325Y-8180
X26585Y-36280
X27250Y-15450
X27400Y-33650
X27530Y-35315
X27600Y-21850
X28240Y-18420
X28350Y-3350
X28380Y-16910
X29285Y-7430
X29595Y-26410
X29960Y-8715
X29990Y-27760
T2
X2756Y-2756
X2756Y-36614
X36614Y-2756
X36614Y-36614
T0
M30
