G04 (created by PCBNEW-RS274X (2012-apr-16-27)-stable) date Mon 25 Nov 2013 08:11:39 PM CET*
G01*
G70*
G90*
%MOIN*%
G04 Gerber Fmt 3.4, Leading zero omitted, Abs format*
%FSLAX34Y34*%
G04 APERTURE LIST*
%ADD10C,0.006000*%
%ADD11C,0.000100*%
%ADD12C,0.028000*%
%ADD13C,0.157800*%
G04 APERTURE END LIST*
G54D10*
G54D11*
G36*
X31693Y-29922D02*
X31693Y-30120D01*
X26575Y-30120D01*
X26514Y-30121D01*
X26454Y-30126D01*
X26395Y-30133D01*
X26336Y-30144D01*
X26279Y-30157D01*
X26223Y-30173D01*
X26168Y-30191D01*
X26114Y-30212D01*
X26062Y-30236D01*
X26011Y-30262D01*
X25962Y-30290D01*
X25914Y-30321D01*
X25868Y-30354D01*
X25823Y-30389D01*
X25780Y-30426D01*
X25739Y-30465D01*
X25700Y-30506D01*
X25663Y-30548D01*
X25628Y-30593D01*
X25595Y-30639D01*
X25565Y-30687D01*
X25536Y-30737D01*
X25510Y-30787D01*
X25487Y-30840D01*
X25466Y-30893D01*
X25447Y-30948D01*
X25431Y-31005D01*
X25418Y-31062D01*
X25408Y-31120D01*
X25400Y-31179D01*
X25396Y-31239D01*
X25394Y-31300D01*
X25394Y-36418D01*
X25396Y-36479D01*
X25400Y-36539D01*
X25408Y-36599D01*
X25418Y-36657D01*
X25431Y-36714D01*
X25447Y-36770D01*
X25466Y-36825D01*
X25487Y-36879D01*
X25510Y-36931D01*
X25536Y-36982D01*
X25565Y-37032D01*
X25595Y-37079D01*
X25628Y-37126D01*
X25663Y-37170D01*
X25700Y-37213D01*
X25739Y-37254D01*
X25780Y-37293D01*
X25823Y-37330D01*
X25868Y-37365D01*
X25914Y-37398D01*
X25962Y-37429D01*
X26011Y-37457D01*
X26062Y-37483D01*
X26114Y-37506D01*
X26168Y-37528D01*
X26223Y-37546D01*
X26279Y-37562D01*
X26336Y-37575D01*
X26395Y-37585D01*
X26454Y-37593D01*
X26514Y-37597D01*
X26575Y-37599D01*
X31693Y-37599D01*
X31754Y-37597D01*
X31814Y-37593D01*
X31873Y-37585D01*
X31932Y-37575D01*
X31989Y-37562D01*
X32045Y-37546D01*
X32100Y-37528D01*
X32153Y-37506D01*
X32206Y-37483D01*
X32257Y-37457D01*
X32306Y-37429D01*
X32354Y-37398D01*
X32400Y-37365D01*
X32445Y-37330D01*
X32488Y-37293D01*
X32529Y-37254D01*
X32568Y-37213D01*
X32605Y-37170D01*
X32640Y-37126D01*
X32673Y-37079D01*
X32703Y-37032D01*
X32732Y-36982D01*
X32758Y-36931D01*
X32781Y-36879D01*
X32802Y-36825D01*
X32821Y-36770D01*
X32837Y-36714D01*
X32850Y-36657D01*
X32860Y-36599D01*
X32867Y-36539D01*
X32872Y-36479D01*
X32874Y-36418D01*
X32874Y-31300D01*
X32872Y-31239D01*
X32867Y-31179D01*
X32860Y-31120D01*
X32850Y-31062D01*
X32837Y-31005D01*
X32821Y-30948D01*
X32802Y-30893D01*
X32781Y-30840D01*
X32758Y-30787D01*
X32732Y-30737D01*
X32703Y-30687D01*
X32673Y-30639D01*
X32640Y-30593D01*
X32605Y-30548D01*
X32568Y-30506D01*
X32529Y-30465D01*
X32488Y-30426D01*
X32445Y-30389D01*
X32400Y-30354D01*
X32354Y-30321D01*
X32306Y-30290D01*
X32257Y-30262D01*
X32206Y-30236D01*
X32153Y-30212D01*
X32100Y-30191D01*
X32045Y-30173D01*
X31989Y-30157D01*
X31932Y-30144D01*
X31873Y-30133D01*
X31814Y-30126D01*
X31754Y-30121D01*
X31693Y-30120D01*
X31693Y-30120D01*
X31693Y-29922D01*
X31764Y-29924D01*
X31834Y-29929D01*
X31903Y-29938D01*
X31971Y-29950D01*
X32038Y-29965D01*
X32104Y-29984D01*
X32168Y-30005D01*
X32230Y-30030D01*
X32292Y-30057D01*
X32351Y-30088D01*
X32409Y-30121D01*
X32465Y-30157D01*
X32519Y-30195D01*
X32571Y-30236D01*
X32621Y-30279D01*
X32668Y-30325D01*
X32714Y-30373D01*
X32757Y-30423D01*
X32798Y-30475D01*
X32837Y-30529D01*
X32872Y-30585D01*
X32906Y-30642D01*
X32936Y-30702D01*
X32963Y-30763D01*
X32988Y-30826D01*
X33010Y-30890D01*
X33028Y-30955D01*
X33044Y-31022D01*
X33056Y-31090D01*
X33064Y-31159D01*
X33070Y-31229D01*
X33071Y-31300D01*
X33071Y-36418D01*
X33070Y-36489D01*
X33064Y-36560D01*
X33056Y-36629D01*
X33044Y-36697D01*
X33028Y-36764D01*
X33010Y-36829D01*
X32988Y-36893D01*
X32963Y-36956D01*
X32936Y-37017D01*
X32906Y-37076D01*
X32872Y-37134D01*
X32837Y-37190D01*
X32798Y-37244D01*
X32757Y-37296D01*
X32714Y-37346D01*
X32668Y-37394D01*
X32621Y-37439D01*
X32571Y-37483D01*
X32519Y-37524D01*
X32465Y-37562D01*
X32409Y-37598D01*
X32351Y-37631D01*
X32292Y-37661D01*
X32230Y-37689D01*
X32168Y-37713D01*
X32104Y-37735D01*
X32038Y-37754D01*
X31971Y-37769D01*
X31903Y-37781D01*
X31834Y-37790D01*
X31764Y-37795D01*
X31693Y-37797D01*
X26575Y-37797D01*
X26504Y-37795D01*
X26434Y-37790D01*
X26365Y-37781D01*
X26297Y-37769D01*
X26230Y-37754D01*
X26164Y-37735D01*
X26100Y-37713D01*
X26037Y-37689D01*
X25976Y-37661D01*
X25917Y-37631D01*
X25859Y-37598D01*
X25803Y-37562D01*
X25749Y-37524D01*
X25697Y-37483D01*
X25647Y-37439D01*
X25599Y-37394D01*
X25554Y-37346D01*
X25511Y-37296D01*
X25470Y-37244D01*
X25431Y-37190D01*
X25396Y-37134D01*
X25362Y-37076D01*
X25332Y-37017D01*
X25304Y-36956D01*
X25280Y-36893D01*
X25258Y-36829D01*
X25240Y-36764D01*
X25224Y-36697D01*
X25212Y-36629D01*
X25204Y-36560D01*
X25198Y-36489D01*
X25196Y-36418D01*
X25196Y-31300D01*
X25198Y-31229D01*
X25204Y-31159D01*
X25212Y-31090D01*
X25224Y-31022D01*
X25240Y-30955D01*
X25258Y-30890D01*
X25280Y-30826D01*
X25304Y-30763D01*
X25332Y-30702D01*
X25362Y-30642D01*
X25396Y-30585D01*
X25431Y-30529D01*
X25470Y-30475D01*
X25511Y-30423D01*
X25554Y-30373D01*
X25599Y-30325D01*
X25647Y-30279D01*
X25697Y-30236D01*
X25749Y-30195D01*
X25803Y-30157D01*
X25859Y-30121D01*
X25917Y-30088D01*
X25976Y-30057D01*
X26037Y-30030D01*
X26100Y-30005D01*
X26164Y-29984D01*
X26230Y-29965D01*
X26297Y-29950D01*
X26365Y-29938D01*
X26434Y-29929D01*
X26504Y-29924D01*
X26575Y-29922D01*
X31693Y-29922D01*
X31693Y-29922D01*
G37*
G36*
X22246Y-29922D02*
X22246Y-30120D01*
X17128Y-30120D01*
X17067Y-30121D01*
X17007Y-30126D01*
X16948Y-30133D01*
X16889Y-30144D01*
X16832Y-30157D01*
X16776Y-30173D01*
X16721Y-30191D01*
X16667Y-30212D01*
X16615Y-30236D01*
X16564Y-30262D01*
X16515Y-30290D01*
X16467Y-30321D01*
X16421Y-30354D01*
X16376Y-30389D01*
X16333Y-30426D01*
X16292Y-30465D01*
X16253Y-30506D01*
X16216Y-30548D01*
X16181Y-30593D01*
X16148Y-30639D01*
X16118Y-30687D01*
X16089Y-30737D01*
X16063Y-30787D01*
X16040Y-30840D01*
X16019Y-30893D01*
X16000Y-30948D01*
X15984Y-31005D01*
X15971Y-31062D01*
X15961Y-31120D01*
X15953Y-31179D01*
X15949Y-31239D01*
X15947Y-31300D01*
X15947Y-36418D01*
X15949Y-36479D01*
X15953Y-36539D01*
X15961Y-36599D01*
X15971Y-36657D01*
X15984Y-36714D01*
X16000Y-36770D01*
X16019Y-36825D01*
X16040Y-36879D01*
X16063Y-36931D01*
X16089Y-36982D01*
X16118Y-37032D01*
X16148Y-37079D01*
X16181Y-37126D01*
X16216Y-37170D01*
X16253Y-37213D01*
X16292Y-37254D01*
X16333Y-37293D01*
X16376Y-37330D01*
X16421Y-37365D01*
X16467Y-37398D01*
X16515Y-37429D01*
X16564Y-37457D01*
X16615Y-37483D01*
X16667Y-37506D01*
X16721Y-37528D01*
X16776Y-37546D01*
X16832Y-37562D01*
X16889Y-37575D01*
X16948Y-37585D01*
X17007Y-37593D01*
X17067Y-37597D01*
X17128Y-37599D01*
X22246Y-37599D01*
X22307Y-37597D01*
X22367Y-37593D01*
X22426Y-37585D01*
X22485Y-37575D01*
X22542Y-37562D01*
X22598Y-37546D01*
X22653Y-37528D01*
X22707Y-37506D01*
X22759Y-37483D01*
X22810Y-37457D01*
X22859Y-37429D01*
X22907Y-37398D01*
X22953Y-37365D01*
X22998Y-37330D01*
X23041Y-37293D01*
X23082Y-37254D01*
X23121Y-37213D01*
X23158Y-37170D01*
X23193Y-37126D01*
X23226Y-37079D01*
X23256Y-37032D01*
X23285Y-36982D01*
X23311Y-36931D01*
X23334Y-36879D01*
X23355Y-36825D01*
X23374Y-36770D01*
X23390Y-36714D01*
X23403Y-36657D01*
X23413Y-36599D01*
X23420Y-36539D01*
X23425Y-36479D01*
X23427Y-36418D01*
X23427Y-31300D01*
X23425Y-31239D01*
X23420Y-31179D01*
X23413Y-31120D01*
X23403Y-31062D01*
X23390Y-31005D01*
X23374Y-30948D01*
X23355Y-30893D01*
X23334Y-30840D01*
X23311Y-30787D01*
X23285Y-30737D01*
X23256Y-30687D01*
X23226Y-30639D01*
X23193Y-30593D01*
X23158Y-30548D01*
X23121Y-30506D01*
X23082Y-30465D01*
X23041Y-30426D01*
X22998Y-30389D01*
X22953Y-30354D01*
X22907Y-30321D01*
X22859Y-30290D01*
X22810Y-30262D01*
X22759Y-30236D01*
X22707Y-30212D01*
X22653Y-30191D01*
X22598Y-30173D01*
X22542Y-30157D01*
X22485Y-30144D01*
X22426Y-30133D01*
X22367Y-30126D01*
X22307Y-30121D01*
X22246Y-30120D01*
X22246Y-30120D01*
X22246Y-29922D01*
X22317Y-29924D01*
X22387Y-29929D01*
X22456Y-29938D01*
X22524Y-29950D01*
X22591Y-29965D01*
X22657Y-29984D01*
X22721Y-30005D01*
X22783Y-30030D01*
X22845Y-30057D01*
X22904Y-30088D01*
X22962Y-30121D01*
X23018Y-30157D01*
X23072Y-30195D01*
X23124Y-30236D01*
X23174Y-30279D01*
X23222Y-30325D01*
X23267Y-30373D01*
X23310Y-30423D01*
X23351Y-30475D01*
X23390Y-30529D01*
X23425Y-30585D01*
X23459Y-30642D01*
X23489Y-30702D01*
X23516Y-30763D01*
X23541Y-30826D01*
X23563Y-30890D01*
X23581Y-30955D01*
X23597Y-31022D01*
X23609Y-31090D01*
X23617Y-31159D01*
X23623Y-31229D01*
X23624Y-31300D01*
X23624Y-36418D01*
X23623Y-36489D01*
X23617Y-36560D01*
X23609Y-36629D01*
X23597Y-36697D01*
X23581Y-36764D01*
X23563Y-36829D01*
X23541Y-36893D01*
X23516Y-36956D01*
X23489Y-37017D01*
X23459Y-37076D01*
X23425Y-37134D01*
X23390Y-37190D01*
X23351Y-37244D01*
X23310Y-37296D01*
X23267Y-37346D01*
X23222Y-37394D01*
X23174Y-37439D01*
X23124Y-37483D01*
X23072Y-37524D01*
X23018Y-37562D01*
X22962Y-37598D01*
X22904Y-37631D01*
X22845Y-37661D01*
X22783Y-37689D01*
X22721Y-37713D01*
X22657Y-37735D01*
X22591Y-37754D01*
X22524Y-37769D01*
X22456Y-37781D01*
X22387Y-37790D01*
X22317Y-37795D01*
X22246Y-37797D01*
X17128Y-37797D01*
X17057Y-37795D01*
X16987Y-37790D01*
X16918Y-37781D01*
X16850Y-37769D01*
X16783Y-37754D01*
X16717Y-37735D01*
X16653Y-37713D01*
X16591Y-37689D01*
X16529Y-37661D01*
X16470Y-37631D01*
X16412Y-37598D01*
X16356Y-37562D01*
X16302Y-37524D01*
X16250Y-37483D01*
X16200Y-37439D01*
X16152Y-37394D01*
X16107Y-37346D01*
X16064Y-37296D01*
X16023Y-37244D01*
X15984Y-37190D01*
X15949Y-37134D01*
X15915Y-37076D01*
X15885Y-37017D01*
X15858Y-36956D01*
X15833Y-36893D01*
X15811Y-36829D01*
X15793Y-36764D01*
X15777Y-36697D01*
X15765Y-36629D01*
X15757Y-36560D01*
X15751Y-36489D01*
X15749Y-36418D01*
X15749Y-31300D01*
X15751Y-31229D01*
X15757Y-31159D01*
X15765Y-31090D01*
X15777Y-31022D01*
X15793Y-30955D01*
X15811Y-30890D01*
X15833Y-30826D01*
X15858Y-30763D01*
X15885Y-30702D01*
X15915Y-30642D01*
X15949Y-30585D01*
X15984Y-30529D01*
X16023Y-30475D01*
X16064Y-30423D01*
X16107Y-30373D01*
X16152Y-30325D01*
X16200Y-30279D01*
X16250Y-30236D01*
X16302Y-30195D01*
X16356Y-30157D01*
X16412Y-30121D01*
X16470Y-30088D01*
X16529Y-30057D01*
X16591Y-30030D01*
X16653Y-30005D01*
X16717Y-29984D01*
X16783Y-29965D01*
X16850Y-29950D01*
X16918Y-29938D01*
X16987Y-29929D01*
X17057Y-29924D01*
X17128Y-29922D01*
X22246Y-29922D01*
X22246Y-29922D01*
G37*
G36*
X12795Y-20471D02*
X12795Y-20669D01*
X07677Y-20669D01*
X07616Y-20671D01*
X07556Y-20675D01*
X07497Y-20683D01*
X07439Y-20693D01*
X07381Y-20706D01*
X07325Y-20722D01*
X07270Y-20741D01*
X07217Y-20762D01*
X07164Y-20785D01*
X07114Y-20811D01*
X07064Y-20840D01*
X07016Y-20870D01*
X06970Y-20903D01*
X06925Y-20938D01*
X06883Y-20975D01*
X06842Y-21014D01*
X06803Y-21055D01*
X06766Y-21098D01*
X06731Y-21142D01*
X06698Y-21189D01*
X06667Y-21237D01*
X06639Y-21286D01*
X06613Y-21337D01*
X06589Y-21389D01*
X06568Y-21443D01*
X06550Y-21498D01*
X06534Y-21554D01*
X06521Y-21611D01*
X06510Y-21669D01*
X06503Y-21729D01*
X06498Y-21789D01*
X06497Y-21850D01*
X06497Y-26968D01*
X06498Y-27029D01*
X06503Y-27089D01*
X06510Y-27148D01*
X06521Y-27206D01*
X06534Y-27264D01*
X06550Y-27320D01*
X06568Y-27375D01*
X06589Y-27428D01*
X06613Y-27481D01*
X06639Y-27532D01*
X06667Y-27581D01*
X06698Y-27629D01*
X06731Y-27675D01*
X06766Y-27720D01*
X06803Y-27762D01*
X06842Y-27803D01*
X06883Y-27842D01*
X06925Y-27879D01*
X06970Y-27914D01*
X07016Y-27947D01*
X07064Y-27978D01*
X07114Y-28006D01*
X07164Y-28032D01*
X07217Y-28056D01*
X07270Y-28077D01*
X07325Y-28095D01*
X07381Y-28111D01*
X07439Y-28124D01*
X07497Y-28135D01*
X07556Y-28142D01*
X07616Y-28147D01*
X07677Y-28148D01*
X12795Y-28148D01*
X12856Y-28147D01*
X12916Y-28142D01*
X12976Y-28135D01*
X13034Y-28124D01*
X13091Y-28111D01*
X13147Y-28095D01*
X13202Y-28077D01*
X13256Y-28056D01*
X13308Y-28032D01*
X13359Y-28006D01*
X13409Y-27978D01*
X13456Y-27947D01*
X13503Y-27914D01*
X13547Y-27879D01*
X13590Y-27842D01*
X13631Y-27803D01*
X13670Y-27762D01*
X13707Y-27720D01*
X13742Y-27675D01*
X13775Y-27629D01*
X13806Y-27581D01*
X13834Y-27532D01*
X13860Y-27481D01*
X13883Y-27428D01*
X13905Y-27375D01*
X13923Y-27320D01*
X13939Y-27264D01*
X13952Y-27206D01*
X13962Y-27148D01*
X13970Y-27089D01*
X13974Y-27029D01*
X13976Y-26968D01*
X13976Y-21850D01*
X13974Y-21789D01*
X13970Y-21729D01*
X13962Y-21669D01*
X13952Y-21611D01*
X13939Y-21554D01*
X13923Y-21498D01*
X13905Y-21443D01*
X13883Y-21389D01*
X13860Y-21337D01*
X13834Y-21286D01*
X13806Y-21237D01*
X13775Y-21189D01*
X13742Y-21142D01*
X13707Y-21098D01*
X13670Y-21055D01*
X13631Y-21014D01*
X13590Y-20975D01*
X13547Y-20938D01*
X13503Y-20903D01*
X13456Y-20870D01*
X13409Y-20840D01*
X13359Y-20811D01*
X13308Y-20785D01*
X13256Y-20762D01*
X13202Y-20741D01*
X13147Y-20722D01*
X13091Y-20706D01*
X13034Y-20693D01*
X12976Y-20683D01*
X12916Y-20675D01*
X12856Y-20671D01*
X12795Y-20669D01*
X12795Y-20669D01*
X12795Y-20471D01*
X12866Y-20473D01*
X12937Y-20478D01*
X13006Y-20487D01*
X13074Y-20499D01*
X13141Y-20515D01*
X13206Y-20533D01*
X13270Y-20555D01*
X13333Y-20579D01*
X13394Y-20607D01*
X13453Y-20637D01*
X13511Y-20670D01*
X13567Y-20706D01*
X13621Y-20744D01*
X13673Y-20785D01*
X13723Y-20829D01*
X13771Y-20874D01*
X13816Y-20922D01*
X13860Y-20972D01*
X13901Y-21024D01*
X13939Y-21078D01*
X13975Y-21134D01*
X14008Y-21192D01*
X14038Y-21251D01*
X14066Y-21312D01*
X14090Y-21375D01*
X14112Y-21439D01*
X14131Y-21505D01*
X14146Y-21571D01*
X14158Y-21639D01*
X14167Y-21708D01*
X14172Y-21779D01*
X14174Y-21850D01*
X14174Y-26968D01*
X14172Y-27039D01*
X14167Y-27109D01*
X14158Y-27178D01*
X14146Y-27246D01*
X14131Y-27313D01*
X14112Y-27378D01*
X14090Y-27443D01*
X14066Y-27505D01*
X14038Y-27566D01*
X14008Y-27626D01*
X13975Y-27683D01*
X13939Y-27739D01*
X13901Y-27793D01*
X13860Y-27845D01*
X13816Y-27895D01*
X13771Y-27943D01*
X13723Y-27989D01*
X13673Y-28032D01*
X13621Y-28073D01*
X13567Y-28111D01*
X13511Y-28147D01*
X13453Y-28180D01*
X13394Y-28211D01*
X13333Y-28238D01*
X13270Y-28263D01*
X13206Y-28284D01*
X13141Y-28303D01*
X13074Y-28318D01*
X13006Y-28330D01*
X12937Y-28339D01*
X12866Y-28344D01*
X12795Y-28346D01*
X07677Y-28346D01*
X07606Y-28344D01*
X07536Y-28339D01*
X07467Y-28330D01*
X07399Y-28318D01*
X07332Y-28303D01*
X07267Y-28284D01*
X07202Y-28263D01*
X07140Y-28238D01*
X07079Y-28211D01*
X07019Y-28180D01*
X06962Y-28147D01*
X06906Y-28111D01*
X06852Y-28073D01*
X06800Y-28032D01*
X06750Y-27989D01*
X06702Y-27943D01*
X06656Y-27895D01*
X06613Y-27845D01*
X06572Y-27793D01*
X06534Y-27739D01*
X06498Y-27683D01*
X06465Y-27626D01*
X06434Y-27566D01*
X06407Y-27505D01*
X06382Y-27443D01*
X06361Y-27378D01*
X06342Y-27313D01*
X06327Y-27246D01*
X06315Y-27178D01*
X06306Y-27109D01*
X06301Y-27039D01*
X06299Y-26968D01*
X06299Y-21850D01*
X06301Y-21779D01*
X06306Y-21708D01*
X06315Y-21639D01*
X06327Y-21571D01*
X06342Y-21505D01*
X06361Y-21439D01*
X06382Y-21375D01*
X06407Y-21312D01*
X06434Y-21251D01*
X06465Y-21192D01*
X06498Y-21134D01*
X06534Y-21078D01*
X06572Y-21024D01*
X06613Y-20972D01*
X06656Y-20922D01*
X06702Y-20874D01*
X06750Y-20829D01*
X06800Y-20785D01*
X06852Y-20744D01*
X06906Y-20706D01*
X06962Y-20670D01*
X07019Y-20637D01*
X07079Y-20607D01*
X07140Y-20579D01*
X07202Y-20555D01*
X07267Y-20533D01*
X07332Y-20515D01*
X07399Y-20499D01*
X07467Y-20487D01*
X07536Y-20478D01*
X07606Y-20473D01*
X07677Y-20471D01*
X12795Y-20471D01*
X12795Y-20471D01*
G37*
G36*
X22246Y-11024D02*
X22246Y-11222D01*
X17128Y-11222D01*
X17067Y-11223D01*
X17007Y-11228D01*
X16948Y-11235D01*
X16889Y-11246D01*
X16832Y-11259D01*
X16776Y-11275D01*
X16721Y-11293D01*
X16667Y-11314D01*
X16615Y-11338D01*
X16564Y-11364D01*
X16515Y-11392D01*
X16467Y-11423D01*
X16421Y-11456D01*
X16376Y-11491D01*
X16333Y-11528D01*
X16292Y-11567D01*
X16253Y-11608D01*
X16216Y-11650D01*
X16181Y-11695D01*
X16148Y-11741D01*
X16118Y-11789D01*
X16089Y-11839D01*
X16063Y-11889D01*
X16040Y-11942D01*
X16019Y-11995D01*
X16000Y-12050D01*
X15984Y-12106D01*
X15971Y-12164D01*
X15961Y-12222D01*
X15953Y-12281D01*
X15949Y-12341D01*
X15947Y-12402D01*
X15947Y-17520D01*
X15949Y-17581D01*
X15953Y-17641D01*
X15961Y-17701D01*
X15971Y-17759D01*
X15984Y-17816D01*
X16000Y-17872D01*
X16019Y-17927D01*
X16040Y-17981D01*
X16063Y-18033D01*
X16089Y-18084D01*
X16118Y-18134D01*
X16148Y-18181D01*
X16181Y-18228D01*
X16216Y-18272D01*
X16253Y-18315D01*
X16292Y-18356D01*
X16333Y-18395D01*
X16376Y-18432D01*
X16421Y-18467D01*
X16467Y-18500D01*
X16515Y-18531D01*
X16564Y-18559D01*
X16615Y-18585D01*
X16667Y-18608D01*
X16721Y-18630D01*
X16776Y-18648D01*
X16832Y-18664D01*
X16889Y-18677D01*
X16948Y-18687D01*
X17007Y-18695D01*
X17067Y-18699D01*
X17128Y-18701D01*
X22246Y-18701D01*
X22307Y-18699D01*
X22367Y-18695D01*
X22426Y-18687D01*
X22485Y-18677D01*
X22542Y-18664D01*
X22598Y-18648D01*
X22653Y-18630D01*
X22707Y-18608D01*
X22759Y-18585D01*
X22810Y-18559D01*
X22859Y-18531D01*
X22907Y-18500D01*
X22953Y-18467D01*
X22998Y-18432D01*
X23041Y-18395D01*
X23082Y-18356D01*
X23121Y-18315D01*
X23158Y-18272D01*
X23193Y-18228D01*
X23226Y-18181D01*
X23256Y-18134D01*
X23285Y-18084D01*
X23311Y-18033D01*
X23334Y-17981D01*
X23355Y-17927D01*
X23374Y-17872D01*
X23390Y-17816D01*
X23403Y-17759D01*
X23413Y-17701D01*
X23420Y-17641D01*
X23425Y-17581D01*
X23427Y-17520D01*
X23427Y-12402D01*
X23425Y-12341D01*
X23420Y-12281D01*
X23413Y-12222D01*
X23403Y-12164D01*
X23390Y-12106D01*
X23374Y-12050D01*
X23355Y-11995D01*
X23334Y-11942D01*
X23311Y-11889D01*
X23285Y-11839D01*
X23256Y-11789D01*
X23226Y-11741D01*
X23193Y-11695D01*
X23158Y-11650D01*
X23121Y-11608D01*
X23082Y-11567D01*
X23041Y-11528D01*
X22998Y-11491D01*
X22953Y-11456D01*
X22907Y-11423D01*
X22859Y-11392D01*
X22810Y-11364D01*
X22759Y-11338D01*
X22707Y-11314D01*
X22653Y-11293D01*
X22598Y-11275D01*
X22542Y-11259D01*
X22485Y-11246D01*
X22426Y-11235D01*
X22367Y-11228D01*
X22307Y-11223D01*
X22246Y-11222D01*
X22246Y-11222D01*
X22246Y-11024D01*
X22317Y-11026D01*
X22387Y-11031D01*
X22456Y-11040D01*
X22524Y-11052D01*
X22591Y-11067D01*
X22657Y-11086D01*
X22721Y-11107D01*
X22783Y-11132D01*
X22845Y-11159D01*
X22904Y-11190D01*
X22962Y-11223D01*
X23018Y-11259D01*
X23072Y-11297D01*
X23124Y-11338D01*
X23174Y-11381D01*
X23222Y-11427D01*
X23267Y-11475D01*
X23310Y-11525D01*
X23351Y-11577D01*
X23390Y-11631D01*
X23425Y-11687D01*
X23459Y-11744D01*
X23489Y-11804D01*
X23516Y-11865D01*
X23541Y-11927D01*
X23563Y-11992D01*
X23581Y-12057D01*
X23597Y-12124D01*
X23609Y-12192D01*
X23617Y-12261D01*
X23623Y-12331D01*
X23624Y-12402D01*
X23624Y-17520D01*
X23623Y-17591D01*
X23617Y-17662D01*
X23609Y-17731D01*
X23597Y-17799D01*
X23581Y-17866D01*
X23563Y-17931D01*
X23541Y-17995D01*
X23516Y-18058D01*
X23489Y-18119D01*
X23459Y-18178D01*
X23425Y-18236D01*
X23390Y-18292D01*
X23351Y-18346D01*
X23310Y-18398D01*
X23267Y-18448D01*
X23222Y-18496D01*
X23174Y-18541D01*
X23124Y-18585D01*
X23072Y-18626D01*
X23018Y-18664D01*
X22962Y-18700D01*
X22904Y-18733D01*
X22845Y-18763D01*
X22783Y-18791D01*
X22721Y-18815D01*
X22657Y-18837D01*
X22591Y-18856D01*
X22524Y-18871D01*
X22456Y-18883D01*
X22387Y-18892D01*
X22317Y-18897D01*
X22246Y-18899D01*
X17128Y-18899D01*
X17057Y-18897D01*
X16987Y-18892D01*
X16918Y-18883D01*
X16850Y-18871D01*
X16783Y-18856D01*
X16717Y-18837D01*
X16653Y-18815D01*
X16591Y-18791D01*
X16529Y-18763D01*
X16470Y-18733D01*
X16412Y-18700D01*
X16356Y-18664D01*
X16302Y-18626D01*
X16250Y-18585D01*
X16200Y-18541D01*
X16152Y-18496D01*
X16107Y-18448D01*
X16064Y-18398D01*
X16023Y-18346D01*
X15984Y-18292D01*
X15949Y-18236D01*
X15915Y-18178D01*
X15885Y-18119D01*
X15858Y-18058D01*
X15833Y-17995D01*
X15811Y-17931D01*
X15793Y-17866D01*
X15777Y-17799D01*
X15765Y-17731D01*
X15757Y-17662D01*
X15751Y-17591D01*
X15749Y-17520D01*
X15749Y-12402D01*
X15751Y-12331D01*
X15757Y-12261D01*
X15765Y-12192D01*
X15777Y-12124D01*
X15793Y-12057D01*
X15811Y-11992D01*
X15833Y-11927D01*
X15858Y-11865D01*
X15885Y-11804D01*
X15915Y-11744D01*
X15949Y-11687D01*
X15984Y-11631D01*
X16023Y-11577D01*
X16064Y-11525D01*
X16107Y-11475D01*
X16152Y-11427D01*
X16200Y-11381D01*
X16250Y-11338D01*
X16302Y-11297D01*
X16356Y-11259D01*
X16412Y-11223D01*
X16470Y-11190D01*
X16529Y-11159D01*
X16591Y-11132D01*
X16653Y-11107D01*
X16717Y-11086D01*
X16783Y-11067D01*
X16850Y-11052D01*
X16918Y-11040D01*
X16987Y-11031D01*
X17057Y-11026D01*
X17128Y-11024D01*
X22246Y-11024D01*
X22246Y-11024D01*
G37*
G36*
X10236Y-31960D02*
X10281Y-31963D01*
X10324Y-31970D01*
X10366Y-31983D01*
X10405Y-31999D01*
X10442Y-32020D01*
X10477Y-32045D01*
X10508Y-32074D01*
X10537Y-32105D01*
X10561Y-32140D01*
X10582Y-32177D01*
X10599Y-32216D01*
X10611Y-32258D01*
X10619Y-32301D01*
X10622Y-32345D01*
X10619Y-32381D01*
X10613Y-32416D01*
X10603Y-32449D01*
X10590Y-32481D01*
X10629Y-32497D01*
X10666Y-32514D01*
X10703Y-32532D01*
X10738Y-32552D01*
X10772Y-32574D01*
X10806Y-32596D01*
X10838Y-32620D01*
X10869Y-32644D01*
X10900Y-32670D01*
X10929Y-32697D01*
X10957Y-32725D01*
X10984Y-32754D01*
X11010Y-32784D01*
X11035Y-32814D01*
X11059Y-32845D01*
X11082Y-32877D01*
X11104Y-32910D01*
X11125Y-32944D01*
X11145Y-32978D01*
X11163Y-33012D01*
X11182Y-33050D01*
X11201Y-33088D01*
X11218Y-33126D01*
X11234Y-33165D01*
X11249Y-33204D01*
X11263Y-33243D01*
X11276Y-33283D01*
X11288Y-33322D01*
X11300Y-33362D01*
X11310Y-33401D01*
X11320Y-33441D01*
X11328Y-33480D01*
X11336Y-33520D01*
X11343Y-33559D01*
X11349Y-33598D01*
X11354Y-33636D01*
X11359Y-33675D01*
X11362Y-33713D01*
X11365Y-33750D01*
X11367Y-33787D01*
X11368Y-33823D01*
X11368Y-33859D01*
X11371Y-33917D01*
X11377Y-33973D01*
X11388Y-34028D01*
X11403Y-34082D01*
X11420Y-34134D01*
X11441Y-34185D01*
X11464Y-34234D01*
X11489Y-34281D01*
X11515Y-34327D01*
X11543Y-34370D01*
X11572Y-34412D01*
X11601Y-34451D01*
X11630Y-34487D01*
X11659Y-34522D01*
X11686Y-34553D01*
X11713Y-34582D01*
X11738Y-34608D01*
X11761Y-34630D01*
X11781Y-34650D01*
X11799Y-34666D01*
X11814Y-34679D01*
X11824Y-34689D01*
X11831Y-34694D01*
X11834Y-34696D01*
X11857Y-34720D01*
X11873Y-34750D01*
X11879Y-34783D01*
X11879Y-35207D01*
X11870Y-35249D01*
X11846Y-35286D01*
X11810Y-35311D01*
X11768Y-35321D01*
X10601Y-35321D01*
X10392Y-35341D01*
X10396Y-35377D01*
X10390Y-35419D01*
X10375Y-35457D01*
X10350Y-35488D01*
X10318Y-35512D01*
X10279Y-35528D01*
X10236Y-35533D01*
X10193Y-35528D01*
X10155Y-35512D01*
X10123Y-35488D01*
X10098Y-35457D01*
X10082Y-35419D01*
X10077Y-35377D01*
X10081Y-35341D01*
X10093Y-35307D01*
X10111Y-35276D01*
X10128Y-35240D01*
X10129Y-35200D01*
X10118Y-35162D01*
X10095Y-35128D01*
X10063Y-35105D01*
X10025Y-35095D01*
X08820Y-35095D01*
X08820Y-34828D01*
X08829Y-34821D01*
X08841Y-34811D01*
X08855Y-34799D01*
X08872Y-34785D01*
X08890Y-34769D01*
X08910Y-34750D01*
X08931Y-34730D01*
X08954Y-34707D01*
X08978Y-34683D01*
X09002Y-34656D01*
X09027Y-34628D01*
X09052Y-34597D01*
X09078Y-34565D01*
X09103Y-34530D01*
X09128Y-34494D01*
X09153Y-34455D01*
X09177Y-34415D01*
X09200Y-34373D01*
X09222Y-34330D01*
X09242Y-34284D01*
X09261Y-34237D01*
X09278Y-34188D01*
X09293Y-34137D01*
X09306Y-34085D01*
X09316Y-34031D01*
X09324Y-33975D01*
X09328Y-33918D01*
X09330Y-33859D01*
X09331Y-33825D01*
X09332Y-33790D01*
X09334Y-33754D01*
X09337Y-33718D01*
X09341Y-33681D01*
X09346Y-33644D01*
X09352Y-33606D01*
X09358Y-33568D01*
X09366Y-33530D01*
X09374Y-33491D01*
X09384Y-33453D01*
X09394Y-33414D01*
X09405Y-33376D01*
X09418Y-33337D01*
X09431Y-33299D01*
X09445Y-33262D01*
X09460Y-33225D01*
X09476Y-33188D01*
X09493Y-33152D01*
X09511Y-33116D01*
X09530Y-33080D01*
X09551Y-33044D01*
X09573Y-33010D01*
X09596Y-32976D01*
X09619Y-32944D01*
X09644Y-32913D01*
X09670Y-32883D01*
X09697Y-32854D01*
X09725Y-32827D01*
X09755Y-32802D01*
X09785Y-32778D01*
X09817Y-32755D01*
X09850Y-32734D01*
X09884Y-32715D01*
X09919Y-32698D01*
X09956Y-32682D01*
X09993Y-32669D01*
X10033Y-32657D01*
X10073Y-32648D01*
X10115Y-32627D01*
X10144Y-32590D01*
X10158Y-32544D01*
X10153Y-32497D01*
X10129Y-32457D01*
X10107Y-32432D01*
X10090Y-32406D01*
X10080Y-32377D01*
X10077Y-32345D01*
X10082Y-32302D01*
X10098Y-32264D01*
X10123Y-32230D01*
X10156Y-32205D01*
X10194Y-32188D01*
X10236Y-32182D01*
X10236Y-32182D01*
X10279Y-32188D01*
X10317Y-32205D01*
X10349Y-32230D01*
X10374Y-32264D01*
X10390Y-32302D01*
X10396Y-32345D01*
X10393Y-32377D01*
X10384Y-32406D01*
X10369Y-32432D01*
X10347Y-32457D01*
X10323Y-32496D01*
X10318Y-32543D01*
X10330Y-32589D01*
X10358Y-32626D01*
X10400Y-32648D01*
X10440Y-32657D01*
X10479Y-32669D01*
X10517Y-32682D01*
X10554Y-32698D01*
X10590Y-32715D01*
X10624Y-32734D01*
X10657Y-32755D01*
X10689Y-32778D01*
X10720Y-32802D01*
X10749Y-32827D01*
X10778Y-32854D01*
X10805Y-32883D01*
X10831Y-32913D01*
X10856Y-32944D01*
X10880Y-32976D01*
X10903Y-33010D01*
X10925Y-33044D01*
X10946Y-33080D01*
X10965Y-33116D01*
X10983Y-33152D01*
X11000Y-33188D01*
X11016Y-33225D01*
X11031Y-33262D01*
X11045Y-33299D01*
X11058Y-33337D01*
X11070Y-33376D01*
X11081Y-33414D01*
X11091Y-33453D01*
X11100Y-33491D01*
X11108Y-33530D01*
X11115Y-33568D01*
X11122Y-33606D01*
X11127Y-33644D01*
X11132Y-33681D01*
X11136Y-33718D01*
X11139Y-33754D01*
X11141Y-33790D01*
X11142Y-33825D01*
X11143Y-33859D01*
X11144Y-33918D01*
X11149Y-33975D01*
X11157Y-34031D01*
X11167Y-34085D01*
X11180Y-34137D01*
X11195Y-34188D01*
X11212Y-34237D01*
X11230Y-34284D01*
X11251Y-34330D01*
X11273Y-34373D01*
X11296Y-34415D01*
X11320Y-34455D01*
X11344Y-34494D01*
X11369Y-34530D01*
X11395Y-34565D01*
X11420Y-34597D01*
X11446Y-34628D01*
X11471Y-34656D01*
X11495Y-34683D01*
X11519Y-34707D01*
X11541Y-34730D01*
X11563Y-34750D01*
X11583Y-34769D01*
X11601Y-34785D01*
X11617Y-34799D01*
X11632Y-34811D01*
X11644Y-34821D01*
X11653Y-34828D01*
X11653Y-35095D01*
X10452Y-35095D01*
X10412Y-35104D01*
X10380Y-35127D01*
X10356Y-35160D01*
X10343Y-35199D01*
X10344Y-35240D01*
X10361Y-35276D01*
X10380Y-35307D01*
X10392Y-35341D01*
X10601Y-35321D01*
X10613Y-35349D01*
X10622Y-35377D01*
X10619Y-35421D01*
X10611Y-35464D01*
X10599Y-35506D01*
X10582Y-35545D01*
X10561Y-35582D01*
X10536Y-35616D01*
X10508Y-35647D01*
X10476Y-35675D01*
X10442Y-35699D01*
X10404Y-35720D01*
X10365Y-35736D01*
X10324Y-35749D01*
X10281Y-35756D01*
X10236Y-35759D01*
X10192Y-35756D01*
X10149Y-35749D01*
X10108Y-35736D01*
X10068Y-35720D01*
X10031Y-35699D01*
X09997Y-35675D01*
X09965Y-35647D01*
X09937Y-35616D01*
X09912Y-35582D01*
X09891Y-35545D01*
X09874Y-35506D01*
X09861Y-35464D01*
X09854Y-35421D01*
X09851Y-35377D01*
X09860Y-35349D01*
X09872Y-35321D01*
X08709Y-35321D01*
X08673Y-35316D01*
X08642Y-35299D01*
X08616Y-35273D01*
X08600Y-35242D01*
X08594Y-35207D01*
X08594Y-34783D01*
X08600Y-34750D01*
X08616Y-34720D01*
X08639Y-34696D01*
X08641Y-34694D01*
X08648Y-34689D01*
X08659Y-34679D01*
X08674Y-34666D01*
X08692Y-34650D01*
X08712Y-34630D01*
X08735Y-34608D01*
X08761Y-34582D01*
X08787Y-34553D01*
X08815Y-34522D01*
X08844Y-34488D01*
X08873Y-34451D01*
X08903Y-34412D01*
X08932Y-34370D01*
X08960Y-34327D01*
X08986Y-34281D01*
X09011Y-34234D01*
X09035Y-34185D01*
X09055Y-34134D01*
X09073Y-34082D01*
X09088Y-34028D01*
X09099Y-33973D01*
X09105Y-33917D01*
X09108Y-33859D01*
X09108Y-33823D01*
X09109Y-33787D01*
X09111Y-33750D01*
X09114Y-33713D01*
X09117Y-33675D01*
X09121Y-33636D01*
X09126Y-33598D01*
X09132Y-33559D01*
X09139Y-33520D01*
X09146Y-33480D01*
X09155Y-33441D01*
X09164Y-33401D01*
X09174Y-33362D01*
X09185Y-33322D01*
X09197Y-33283D01*
X09210Y-33243D01*
X09224Y-33204D01*
X09239Y-33165D01*
X09255Y-33126D01*
X09272Y-33088D01*
X09290Y-33050D01*
X09309Y-33012D01*
X09328Y-32978D01*
X09348Y-32944D01*
X09369Y-32910D01*
X09390Y-32877D01*
X09413Y-32845D01*
X09437Y-32814D01*
X09462Y-32784D01*
X09489Y-32754D01*
X09516Y-32725D01*
X09544Y-32697D01*
X09573Y-32670D01*
X09603Y-32644D01*
X09635Y-32620D01*
X09667Y-32596D01*
X09700Y-32574D01*
X09735Y-32552D01*
X09770Y-32532D01*
X09806Y-32514D01*
X09844Y-32497D01*
X09882Y-32481D01*
X09870Y-32449D01*
X09860Y-32416D01*
X09853Y-32381D01*
X09851Y-32345D01*
X09854Y-32301D01*
X09861Y-32258D01*
X09874Y-32216D01*
X09890Y-32177D01*
X09911Y-32140D01*
X09936Y-32105D01*
X09964Y-32074D01*
X09996Y-32045D01*
X10030Y-32020D01*
X10068Y-31999D01*
X10107Y-31983D01*
X10148Y-31970D01*
X10192Y-31963D01*
X10236Y-31960D01*
X10236Y-31960D01*
X10236Y-31960D01*
G37*
G36*
X19684Y-31960D02*
X19684Y-32182D01*
X19684Y-32182D01*
X19722Y-32184D01*
X19760Y-32187D01*
X19798Y-32194D01*
X19835Y-32203D01*
X19873Y-32215D01*
X19910Y-32229D01*
X19947Y-32246D01*
X19985Y-32265D01*
X20022Y-32287D01*
X20059Y-32311D01*
X20089Y-32332D01*
X20119Y-32355D01*
X20148Y-32379D01*
X20177Y-32404D01*
X20205Y-32430D01*
X20232Y-32458D01*
X20259Y-32487D01*
X20285Y-32517D01*
X20311Y-32548D01*
X20336Y-32581D01*
X20361Y-32616D01*
X20385Y-32651D01*
X20404Y-32680D01*
X20422Y-32711D01*
X20440Y-32742D01*
X20457Y-32774D01*
X20474Y-32807D01*
X20490Y-32841D01*
X20506Y-32876D01*
X20521Y-32911D01*
X20536Y-32948D01*
X20550Y-32985D01*
X20564Y-33024D01*
X20577Y-33063D01*
X20590Y-33103D01*
X20602Y-33144D01*
X20614Y-33186D01*
X20624Y-33223D01*
X20633Y-33261D01*
X20642Y-33299D01*
X20650Y-33337D01*
X20657Y-33376D01*
X20664Y-33414D01*
X20670Y-33453D01*
X20676Y-33493D01*
X20681Y-33532D01*
X20686Y-33572D01*
X20690Y-33612D01*
X20693Y-33653D01*
X20696Y-33694D01*
X20698Y-33735D01*
X20700Y-33776D01*
X20701Y-33818D01*
X20701Y-33859D01*
X20701Y-33901D01*
X20700Y-33942D01*
X20698Y-33983D01*
X20696Y-34024D01*
X20693Y-34064D01*
X20690Y-34104D01*
X20686Y-34144D01*
X20681Y-34184D01*
X20676Y-34223D01*
X20670Y-34263D01*
X20664Y-34301D01*
X20657Y-34340D01*
X20650Y-34378D01*
X20642Y-34417D01*
X20633Y-34454D01*
X20624Y-34492D01*
X20614Y-34529D01*
X20602Y-34571D01*
X20590Y-34612D01*
X20577Y-34651D01*
X20564Y-34690D01*
X20550Y-34728D01*
X20536Y-34765D01*
X20521Y-34802D01*
X20506Y-34837D01*
X20490Y-34872D01*
X20474Y-34905D01*
X20457Y-34938D01*
X20440Y-34970D01*
X20422Y-35001D01*
X20404Y-35031D01*
X20385Y-35061D01*
X20361Y-35096D01*
X20336Y-35131D01*
X20311Y-35164D01*
X20285Y-35196D01*
X20259Y-35227D01*
X20232Y-35257D01*
X20205Y-35285D01*
X20177Y-35312D01*
X20148Y-35338D01*
X20119Y-35363D01*
X20089Y-35386D01*
X20059Y-35408D01*
X20022Y-35432D01*
X19985Y-35454D01*
X19947Y-35472D01*
X19910Y-35489D01*
X19873Y-35502D01*
X19835Y-35513D01*
X19798Y-35522D01*
X19760Y-35528D01*
X19722Y-35532D01*
X19684Y-35533D01*
X19645Y-35532D01*
X19607Y-35528D01*
X19569Y-35522D01*
X19531Y-35513D01*
X19493Y-35502D01*
X19456Y-35488D01*
X19418Y-35472D01*
X19381Y-35453D01*
X19349Y-35435D01*
X19316Y-35414D01*
X19285Y-35392D01*
X19254Y-35368D01*
X19224Y-35343D01*
X19194Y-35316D01*
X19164Y-35287D01*
X19136Y-35256D01*
X19107Y-35224D01*
X19084Y-35196D01*
X19062Y-35167D01*
X19040Y-35137D01*
X19018Y-35107D01*
X18997Y-35075D01*
X18977Y-35043D01*
X18956Y-35010D01*
X18937Y-34976D01*
X18918Y-34942D01*
X18899Y-34906D01*
X18881Y-34870D01*
X18867Y-34838D01*
X18852Y-34806D01*
X18839Y-34773D01*
X18825Y-34739D01*
X18813Y-34705D01*
X18800Y-34670D01*
X18789Y-34634D01*
X18777Y-34598D01*
X18767Y-34560D01*
X18756Y-34522D01*
X18747Y-34484D01*
X18737Y-34444D01*
X18729Y-34404D01*
X18721Y-34367D01*
X18713Y-34329D01*
X18706Y-34291D01*
X18700Y-34253D01*
X18694Y-34215D01*
X18689Y-34176D01*
X18685Y-34138D01*
X18681Y-34099D01*
X18677Y-34059D01*
X18675Y-34020D01*
X18672Y-33980D01*
X18671Y-33940D01*
X18670Y-33900D01*
X18670Y-33859D01*
X18670Y-33818D01*
X18671Y-33776D01*
X18673Y-33735D01*
X18675Y-33694D01*
X18678Y-33653D01*
X18681Y-33612D01*
X18686Y-33572D01*
X18690Y-33532D01*
X18696Y-33493D01*
X18702Y-33453D01*
X18708Y-33414D01*
X18715Y-33376D01*
X18723Y-33337D01*
X18732Y-33299D01*
X18740Y-33261D01*
X18750Y-33223D01*
X18760Y-33186D01*
X18771Y-33144D01*
X18783Y-33103D01*
X18796Y-33063D01*
X18809Y-33024D01*
X18822Y-32985D01*
X18836Y-32948D01*
X18851Y-32911D01*
X18866Y-32876D01*
X18881Y-32841D01*
X18897Y-32807D01*
X18914Y-32774D01*
X18931Y-32742D01*
X18949Y-32711D01*
X18967Y-32680D01*
X18986Y-32651D01*
X19009Y-32616D01*
X19033Y-32581D01*
X19058Y-32548D01*
X19083Y-32517D01*
X19109Y-32487D01*
X19136Y-32458D01*
X19163Y-32430D01*
X19191Y-32404D01*
X19219Y-32379D01*
X19248Y-32355D01*
X19278Y-32332D01*
X19309Y-32311D01*
X19345Y-32287D01*
X19382Y-32265D01*
X19419Y-32246D01*
X19457Y-32229D01*
X19494Y-32215D01*
X19532Y-32203D01*
X19570Y-32194D01*
X19608Y-32187D01*
X19646Y-32184D01*
X19684Y-32182D01*
X19684Y-31960D01*
X19721Y-31961D01*
X19759Y-31963D01*
X19796Y-31967D01*
X19833Y-31973D01*
X19870Y-31980D01*
X19906Y-31989D01*
X19942Y-31999D01*
X19977Y-32011D01*
X20012Y-32024D01*
X20047Y-32039D01*
X20082Y-32056D01*
X20116Y-32075D01*
X20150Y-32095D01*
X20184Y-32116D01*
X20214Y-32137D01*
X20245Y-32159D01*
X20275Y-32182D01*
X20304Y-32206D01*
X20332Y-32231D01*
X20360Y-32257D01*
X20387Y-32284D01*
X20413Y-32312D01*
X20439Y-32341D01*
X20464Y-32370D01*
X20489Y-32401D01*
X20512Y-32432D01*
X20535Y-32465D01*
X20558Y-32498D01*
X20579Y-32533D01*
X20598Y-32564D01*
X20616Y-32595D01*
X20633Y-32627D01*
X20650Y-32660D01*
X20667Y-32693D01*
X20683Y-32727D01*
X20699Y-32762D01*
X20714Y-32797D01*
X20728Y-32833D01*
X20743Y-32869D01*
X20756Y-32906D01*
X20770Y-32944D01*
X20782Y-32982D01*
X20795Y-33021D01*
X20807Y-33060D01*
X20818Y-33100D01*
X20829Y-33141D01*
X20839Y-33177D01*
X20848Y-33213D01*
X20856Y-33250D01*
X20864Y-33287D01*
X20872Y-33324D01*
X20879Y-33361D01*
X20885Y-33398D01*
X20891Y-33436D01*
X20897Y-33474D01*
X20902Y-33511D01*
X20906Y-33549D01*
X20910Y-33588D01*
X20914Y-33626D01*
X20916Y-33664D01*
X20919Y-33703D01*
X20921Y-33742D01*
X20922Y-33781D01*
X20923Y-33820D01*
X20923Y-33859D01*
X20923Y-33901D01*
X20922Y-33942D01*
X20921Y-33983D01*
X20919Y-34024D01*
X20916Y-34064D01*
X20913Y-34105D01*
X20910Y-34145D01*
X20905Y-34185D01*
X20901Y-34224D01*
X20896Y-34263D01*
X20890Y-34303D01*
X20884Y-34341D01*
X20877Y-34380D01*
X20869Y-34419D01*
X20862Y-34457D01*
X20853Y-34495D01*
X20844Y-34532D01*
X20835Y-34570D01*
X20825Y-34607D01*
X20814Y-34644D01*
X20803Y-34681D01*
X20792Y-34717D01*
X20779Y-34754D01*
X20767Y-34790D01*
X20752Y-34831D01*
X20736Y-34871D01*
X20720Y-34910D01*
X20703Y-34948D01*
X20686Y-34986D01*
X20668Y-35023D01*
X20649Y-35059D01*
X20630Y-35095D01*
X20610Y-35129D01*
X20590Y-35163D01*
X20569Y-35197D01*
X20547Y-35229D01*
X20525Y-35261D01*
X20502Y-35292D01*
X20479Y-35322D01*
X20455Y-35351D01*
X20430Y-35380D01*
X20405Y-35408D01*
X20379Y-35435D01*
X20353Y-35462D01*
X20326Y-35488D01*
X20294Y-35517D01*
X20261Y-35544D01*
X20228Y-35569D01*
X20194Y-35593D01*
X20160Y-35616D01*
X20126Y-35636D01*
X20091Y-35655D01*
X20056Y-35673D01*
X20021Y-35688D01*
X19985Y-35702D01*
X19949Y-35715D01*
X19912Y-35725D01*
X19875Y-35735D01*
X19838Y-35742D01*
X19800Y-35748D01*
X19761Y-35752D01*
X19723Y-35754D01*
X19684Y-35755D01*
X19645Y-35754D01*
X19606Y-35752D01*
X19568Y-35748D01*
X19530Y-35742D01*
X19493Y-35735D01*
X19456Y-35725D01*
X19419Y-35715D01*
X19383Y-35702D01*
X19347Y-35688D01*
X19312Y-35673D01*
X19277Y-35655D01*
X19242Y-35636D01*
X19208Y-35616D01*
X19175Y-35593D01*
X19142Y-35569D01*
X19109Y-35544D01*
X19076Y-35517D01*
X19045Y-35488D01*
X19018Y-35462D01*
X18991Y-35435D01*
X18965Y-35408D01*
X18940Y-35380D01*
X18916Y-35351D01*
X18892Y-35322D01*
X18868Y-35292D01*
X18845Y-35261D01*
X18823Y-35229D01*
X18802Y-35197D01*
X18781Y-35163D01*
X18760Y-35129D01*
X18740Y-35095D01*
X18721Y-35059D01*
X18703Y-35023D01*
X18685Y-34986D01*
X18667Y-34948D01*
X18651Y-34910D01*
X18634Y-34871D01*
X18619Y-34831D01*
X18604Y-34790D01*
X18591Y-34754D01*
X18579Y-34717D01*
X18567Y-34681D01*
X18557Y-34644D01*
X18546Y-34607D01*
X18536Y-34570D01*
X18527Y-34532D01*
X18518Y-34495D01*
X18510Y-34457D01*
X18502Y-34419D01*
X18495Y-34380D01*
X18489Y-34341D01*
X18483Y-34303D01*
X18477Y-34263D01*
X18472Y-34224D01*
X18468Y-34185D01*
X18464Y-34145D01*
X18460Y-34105D01*
X18457Y-34064D01*
X18455Y-34024D01*
X18453Y-33983D01*
X18452Y-33942D01*
X18451Y-33901D01*
X18451Y-33859D01*
X18451Y-33818D01*
X18452Y-33776D01*
X18453Y-33735D01*
X18455Y-33694D01*
X18457Y-33653D01*
X18460Y-33613D01*
X18464Y-33573D01*
X18468Y-33533D01*
X18472Y-33493D01*
X18477Y-33453D01*
X18483Y-33414D01*
X18489Y-33375D01*
X18495Y-33336D01*
X18502Y-33297D01*
X18510Y-33259D01*
X18518Y-33221D01*
X18527Y-33183D01*
X18536Y-33146D01*
X18546Y-33108D01*
X18557Y-33071D01*
X18567Y-33034D01*
X18579Y-32998D01*
X18591Y-32961D01*
X18604Y-32925D01*
X18619Y-32884D01*
X18634Y-32844D01*
X18651Y-32805D01*
X18667Y-32766D01*
X18685Y-32728D01*
X18703Y-32691D01*
X18721Y-32655D01*
X18740Y-32619D01*
X18760Y-32585D01*
X18781Y-32551D01*
X18802Y-32517D01*
X18823Y-32485D01*
X18845Y-32453D01*
X18868Y-32422D01*
X18892Y-32392D01*
X18916Y-32363D01*
X18940Y-32334D01*
X18965Y-32306D01*
X18991Y-32279D01*
X19018Y-32253D01*
X19045Y-32227D01*
X19076Y-32199D01*
X19109Y-32171D01*
X19142Y-32146D01*
X19175Y-32122D01*
X19208Y-32100D01*
X19242Y-32079D01*
X19277Y-32060D01*
X19312Y-32043D01*
X19347Y-32027D01*
X19383Y-32013D01*
X19419Y-32001D01*
X19456Y-31990D01*
X19493Y-31981D01*
X19530Y-31973D01*
X19568Y-31967D01*
X19606Y-31963D01*
X19645Y-31961D01*
X19684Y-31960D01*
X19684Y-31960D01*
X19684Y-31960D01*
G37*
G36*
X28946Y-31946D02*
X28987Y-31947D01*
X29027Y-31948D01*
X29067Y-31950D01*
X29107Y-31953D01*
X29146Y-31957D01*
X29185Y-31962D01*
X29225Y-31967D01*
X29263Y-31974D01*
X29302Y-31981D01*
X29341Y-31989D01*
X29379Y-31998D01*
X29417Y-32008D01*
X29455Y-32019D01*
X29493Y-32030D01*
X29531Y-32042D01*
X29568Y-32055D01*
X29605Y-32069D01*
X29642Y-32084D01*
X29679Y-32099D01*
X29716Y-32115D01*
X29752Y-32132D01*
X29787Y-32149D01*
X29822Y-32166D01*
X29856Y-32185D01*
X29890Y-32204D01*
X29923Y-32223D01*
X29956Y-32243D01*
X29988Y-32264D01*
X30020Y-32285D01*
X30051Y-32307D01*
X30081Y-32329D01*
X30111Y-32352D01*
X30141Y-32375D01*
X30169Y-32399D01*
X30198Y-32424D01*
X30226Y-32449D01*
X30253Y-32475D01*
X30280Y-32502D01*
X30306Y-32529D01*
X30332Y-32556D01*
X30357Y-32585D01*
X30381Y-32613D01*
X30406Y-32643D01*
X30429Y-32672D01*
X30452Y-32703D01*
X30474Y-32734D01*
X30496Y-32765D01*
X30517Y-32797D01*
X30538Y-32830D01*
X30558Y-32863D01*
X30578Y-32897D01*
X30597Y-32931D01*
X30615Y-32965D01*
X30633Y-33001D01*
X30650Y-33036D01*
X30667Y-33073D01*
X30683Y-33109D01*
X30698Y-33146D01*
X30712Y-33184D01*
X30726Y-33221D01*
X30739Y-33259D01*
X30751Y-33297D01*
X30762Y-33334D01*
X30772Y-33373D01*
X30782Y-33411D01*
X30791Y-33449D01*
X30798Y-33488D01*
X30805Y-33527D01*
X30812Y-33566D01*
X30817Y-33605D01*
X30822Y-33645D01*
X30825Y-33684D01*
X30828Y-33724D01*
X30830Y-33764D01*
X30831Y-33805D01*
X30832Y-33845D01*
X30831Y-33886D01*
X30830Y-33927D01*
X30828Y-33967D01*
X30825Y-34007D01*
X30822Y-34047D01*
X30817Y-34086D01*
X30812Y-34126D01*
X30805Y-34165D01*
X30798Y-34204D01*
X30791Y-34243D01*
X30782Y-34282D01*
X30772Y-34321D01*
X30762Y-34359D01*
X30751Y-34397D01*
X30739Y-34435D01*
X30726Y-34473D01*
X30712Y-34511D01*
X30698Y-34548D01*
X30683Y-34585D01*
X30667Y-34622D01*
X30650Y-34658D01*
X30633Y-34694D01*
X30615Y-34729D01*
X30597Y-34764D01*
X30578Y-34798D01*
X30558Y-34831D01*
X30538Y-34865D01*
X30517Y-34897D01*
X30496Y-34929D01*
X30474Y-34961D01*
X30452Y-34992D01*
X30429Y-35022D01*
X30406Y-35052D01*
X30381Y-35081D01*
X30357Y-35110D01*
X30332Y-35138D01*
X30306Y-35166D01*
X30280Y-35193D01*
X30253Y-35219D01*
X30226Y-35245D01*
X30198Y-35270D01*
X30169Y-35295D01*
X30141Y-35319D01*
X30111Y-35343D01*
X30081Y-35366D01*
X30051Y-35388D01*
X30020Y-35410D01*
X29988Y-35431D01*
X29956Y-35451D01*
X29923Y-35471D01*
X29890Y-35491D01*
X29856Y-35510D01*
X29822Y-35528D01*
X29787Y-35546D01*
X29752Y-35563D01*
X29716Y-35579D01*
X29679Y-35595D01*
X29642Y-35611D01*
X29605Y-35625D01*
X29568Y-35639D01*
X29531Y-35652D01*
X29493Y-35664D01*
X29455Y-35675D01*
X29417Y-35685D01*
X29379Y-35695D01*
X29341Y-35704D01*
X29302Y-35711D01*
X29263Y-35718D01*
X29225Y-35725D01*
X29185Y-35730D01*
X29146Y-35734D01*
X29107Y-35738D01*
X29067Y-35741D01*
X29027Y-35743D01*
X28987Y-35744D01*
X28946Y-35745D01*
X28906Y-35744D01*
X28867Y-35743D01*
X28827Y-35741D01*
X28788Y-35739D01*
X28749Y-35735D01*
X28710Y-35731D01*
X28671Y-35726D01*
X28633Y-35720D01*
X28595Y-35713D01*
X28557Y-35706D01*
X28519Y-35698D01*
X28482Y-35689D01*
X28444Y-35679D01*
X28407Y-35669D01*
X28371Y-35658D01*
X28334Y-35646D01*
X28298Y-35633D01*
X28262Y-35619D01*
X28226Y-35605D01*
X28191Y-35590D01*
X28155Y-35574D01*
X28120Y-35557D01*
X28085Y-35540D01*
X28049Y-35521D01*
X28014Y-35501D01*
X27979Y-35481D01*
X27945Y-35460D01*
X27911Y-35438D01*
X27878Y-35416D01*
X27845Y-35393D01*
X27813Y-35370D01*
X27782Y-35346D01*
X27751Y-35321D01*
X27721Y-35296D01*
X27691Y-35270D01*
X27662Y-35244D01*
X27633Y-35217D01*
X27605Y-35189D01*
X27578Y-35161D01*
X27551Y-35132D01*
X27525Y-35102D01*
X27499Y-35072D01*
X27474Y-35041D01*
X27450Y-35010D01*
X27426Y-34977D01*
X27606Y-34856D01*
X27630Y-34887D01*
X27654Y-34917D01*
X27678Y-34947D01*
X27704Y-34976D01*
X27730Y-35005D01*
X27756Y-35033D01*
X27783Y-35060D01*
X27811Y-35086D01*
X27839Y-35112D01*
X27868Y-35137D01*
X27897Y-35162D01*
X27927Y-35186D01*
X27958Y-35209D01*
X27989Y-35231D01*
X28021Y-35253D01*
X28054Y-35274D01*
X28087Y-35295D01*
X28120Y-35315D01*
X28155Y-35334D01*
X28190Y-35352D01*
X28225Y-35370D01*
X28260Y-35387D01*
X28296Y-35403D01*
X28332Y-35418D01*
X28368Y-35432D01*
X28404Y-35445D01*
X28441Y-35457D01*
X28478Y-35468D01*
X28516Y-35479D01*
X28554Y-35488D01*
X28592Y-35497D01*
X28630Y-35504D01*
X28669Y-35511D01*
X28707Y-35517D01*
X28747Y-35522D01*
X28786Y-35526D01*
X28826Y-35529D01*
X28866Y-35531D01*
X28906Y-35533D01*
X28946Y-35533D01*
X28986Y-35533D01*
X29026Y-35531D01*
X29065Y-35529D01*
X29105Y-35526D01*
X29144Y-35522D01*
X29182Y-35517D01*
X29221Y-35511D01*
X29259Y-35504D01*
X29298Y-35496D01*
X29336Y-35487D01*
X29373Y-35478D01*
X29411Y-35467D01*
X29448Y-35456D01*
X29486Y-35444D01*
X29523Y-35430D01*
X29559Y-35416D01*
X29596Y-35401D01*
X29632Y-35385D01*
X29667Y-35368D01*
X29702Y-35351D01*
X29737Y-35333D01*
X29770Y-35314D01*
X29803Y-35295D01*
X29836Y-35275D01*
X29868Y-35255D01*
X29899Y-35234D01*
X29929Y-35212D01*
X29959Y-35190D01*
X29989Y-35167D01*
X30018Y-35144D01*
X30046Y-35120D01*
X30074Y-35095D01*
X30101Y-35069D01*
X30127Y-35043D01*
X30153Y-35017D01*
X30178Y-34989D01*
X30203Y-34961D01*
X30227Y-34933D01*
X30250Y-34904D01*
X30273Y-34874D01*
X30295Y-34844D01*
X30316Y-34813D01*
X30337Y-34781D01*
X30357Y-34749D01*
X30377Y-34717D01*
X30396Y-34683D01*
X30414Y-34650D01*
X30432Y-34615D01*
X30449Y-34580D01*
X30465Y-34545D01*
X30481Y-34509D01*
X30496Y-34472D01*
X30510Y-34435D01*
X30523Y-34398D01*
X30535Y-34361D01*
X30546Y-34324D01*
X30556Y-34286D01*
X30566Y-34249D01*
X30574Y-34211D01*
X30582Y-34172D01*
X30588Y-34134D01*
X30594Y-34095D01*
X30599Y-34056D01*
X30603Y-34017D01*
X30606Y-33978D01*
X30608Y-33939D01*
X30609Y-33899D01*
X30610Y-33859D01*
X30609Y-33818D01*
X30608Y-33777D01*
X30606Y-33736D01*
X30602Y-33696D01*
X30598Y-33656D01*
X30593Y-33616D01*
X30587Y-33576D01*
X30580Y-33537D01*
X30572Y-33498D01*
X30564Y-33459D01*
X30554Y-33421D01*
X30544Y-33383D01*
X30532Y-33345D01*
X30520Y-33308D01*
X30506Y-33271D01*
X30492Y-33234D01*
X30477Y-33197D01*
X30461Y-33161D01*
X30444Y-33125D01*
X30426Y-33090D01*
X30407Y-33054D01*
X30387Y-33019D01*
X30367Y-32984D01*
X30346Y-32950D01*
X30324Y-32917D01*
X30301Y-32884D01*
X30278Y-32852D01*
X30254Y-32820D01*
X30230Y-32789D01*
X30205Y-32759D01*
X30179Y-32730D01*
X30152Y-32701D01*
X30125Y-32673D01*
X30097Y-32646D01*
X30069Y-32619D01*
X30040Y-32593D01*
X30010Y-32567D01*
X29980Y-32542D01*
X29949Y-32518D01*
X29917Y-32495D01*
X29884Y-32472D01*
X29851Y-32450D01*
X29818Y-32429D01*
X29783Y-32408D01*
X29748Y-32388D01*
X29713Y-32369D01*
X29677Y-32351D01*
X29641Y-32334D01*
X29605Y-32317D01*
X29569Y-32302D01*
X29532Y-32288D01*
X29495Y-32274D01*
X29458Y-32261D01*
X29420Y-32250D01*
X29382Y-32239D01*
X29344Y-32229D01*
X29306Y-32220D01*
X29267Y-32212D01*
X29228Y-32205D01*
X29189Y-32199D01*
X29149Y-32194D01*
X29109Y-32190D01*
X29069Y-32187D01*
X29028Y-32184D01*
X28988Y-32183D01*
X28946Y-32182D01*
X28906Y-32183D01*
X28866Y-32184D01*
X28826Y-32186D01*
X28786Y-32190D01*
X28747Y-32194D01*
X28707Y-32199D01*
X28669Y-32205D01*
X28630Y-32212D01*
X28592Y-32220D01*
X28554Y-32229D01*
X28516Y-32238D01*
X28478Y-32249D01*
X28441Y-32261D01*
X28404Y-32273D01*
X28368Y-32286D01*
X28332Y-32301D01*
X28296Y-32316D01*
X28260Y-32332D01*
X28225Y-32349D01*
X28190Y-32366D01*
X28155Y-32385D01*
X28120Y-32403D01*
X28087Y-32423D01*
X28054Y-32443D01*
X28021Y-32464D01*
X27989Y-32486D01*
X27958Y-32508D01*
X27927Y-32530D01*
X27897Y-32554D01*
X27868Y-32578D01*
X27839Y-32603D01*
X27811Y-32628D01*
X27783Y-32654D01*
X27756Y-32681D01*
X27730Y-32708D01*
X27704Y-32737D01*
X27678Y-32765D01*
X27654Y-32795D01*
X27630Y-32825D01*
X27606Y-32856D01*
X27426Y-32724D01*
X27450Y-32692D01*
X27474Y-32660D01*
X27500Y-32629D01*
X27526Y-32598D01*
X27552Y-32569D01*
X27579Y-32539D01*
X27607Y-32511D01*
X27635Y-32483D01*
X27664Y-32456D01*
X27693Y-32429D01*
X27723Y-32403D01*
X27753Y-32377D01*
X27784Y-32353D01*
X27816Y-32329D01*
X27848Y-32305D01*
X27881Y-32282D01*
X27914Y-32260D01*
X27948Y-32238D01*
X27982Y-32217D01*
X28017Y-32197D01*
X28053Y-32177D01*
X28089Y-32158D01*
X28124Y-32140D01*
X28159Y-32123D01*
X28194Y-32107D01*
X28229Y-32091D01*
X28265Y-32076D01*
X28301Y-32062D01*
X28337Y-32049D01*
X28374Y-32037D01*
X28410Y-32025D01*
X28447Y-32014D01*
X28484Y-32004D01*
X28521Y-31995D01*
X28559Y-31987D01*
X28597Y-31979D01*
X28635Y-31972D01*
X28673Y-31966D01*
X28711Y-31961D01*
X28750Y-31956D01*
X28789Y-31953D01*
X28828Y-31950D01*
X28867Y-31948D01*
X28907Y-31947D01*
X28946Y-31946D01*
X28946Y-31946D01*
X28946Y-31946D01*
G37*
G36*
X30214Y-22544D02*
X30290Y-22770D01*
X28061Y-22770D01*
X29634Y-26270D01*
X29387Y-26270D01*
X27717Y-22544D01*
X30214Y-22544D01*
X30214Y-22544D01*
G37*
G36*
X10247Y-22516D02*
X10287Y-22517D01*
X10326Y-22519D01*
X10366Y-22522D01*
X10405Y-22527D01*
X10443Y-22533D01*
X10482Y-22540D01*
X10520Y-22548D01*
X10557Y-22558D01*
X10594Y-22568D01*
X10631Y-22581D01*
X10668Y-22594D01*
X10704Y-22609D01*
X10739Y-22625D01*
X10775Y-22642D01*
X10810Y-22660D01*
X10844Y-22680D01*
X10879Y-22700D01*
X10912Y-22722D01*
X10944Y-22745D01*
X10976Y-22769D01*
X11007Y-22793D01*
X11037Y-22818D01*
X11066Y-22844D01*
X11094Y-22871D01*
X11121Y-22899D01*
X11147Y-22928D01*
X11173Y-22957D01*
X11198Y-22988D01*
X11222Y-23019D01*
X11245Y-23052D01*
X11268Y-23085D01*
X11289Y-23119D01*
X11310Y-23154D01*
X11330Y-23190D01*
X11348Y-23225D01*
X11365Y-23259D01*
X11381Y-23295D01*
X11395Y-23330D01*
X11409Y-23366D01*
X11422Y-23402D01*
X11434Y-23438D01*
X11445Y-23475D01*
X11455Y-23512D01*
X11463Y-23549D01*
X11471Y-23587D01*
X11478Y-23625D01*
X11484Y-23663D01*
X11488Y-23702D01*
X11492Y-23741D01*
X11495Y-23780D01*
X11496Y-23820D01*
X11497Y-23860D01*
X11496Y-23900D01*
X11495Y-23940D01*
X11492Y-23980D01*
X11488Y-24020D01*
X11484Y-24059D01*
X11478Y-24097D01*
X11471Y-24136D01*
X11463Y-24174D01*
X11455Y-24212D01*
X11445Y-24249D01*
X11434Y-24286D01*
X11422Y-24323D01*
X11409Y-24360D01*
X11395Y-24396D01*
X11381Y-24432D01*
X11365Y-24467D01*
X11348Y-24502D01*
X11330Y-24537D01*
X11310Y-24573D01*
X11289Y-24608D01*
X11268Y-24643D01*
X11245Y-24676D01*
X11222Y-24709D01*
X11198Y-24741D01*
X11173Y-24772D01*
X11147Y-24802D01*
X11121Y-24831D01*
X11094Y-24860D01*
X11066Y-24887D01*
X11037Y-24914D01*
X11007Y-24940D01*
X10976Y-24964D01*
X10944Y-24988D01*
X10912Y-25012D01*
X10879Y-25034D01*
X10844Y-25055D01*
X10810Y-25074D01*
X10775Y-25092D01*
X10739Y-25109D01*
X10704Y-25125D01*
X10668Y-25139D01*
X10631Y-25152D01*
X10594Y-25164D01*
X10557Y-25175D01*
X10520Y-25184D01*
X10482Y-25192D01*
X10443Y-25199D01*
X10405Y-25204D01*
X10366Y-25209D01*
X10326Y-25212D01*
X10287Y-25214D01*
X10247Y-25214D01*
X10210Y-25214D01*
X10174Y-25212D01*
X10137Y-25209D01*
X10101Y-25205D01*
X10065Y-25200D01*
X10028Y-25194D01*
X09992Y-25186D01*
X09956Y-25178D01*
X09920Y-25168D01*
X09884Y-25157D01*
X09849Y-25144D01*
X09927Y-24944D01*
X09890Y-24930D01*
X09853Y-24915D01*
X09817Y-24898D01*
X09782Y-24879D01*
X09747Y-24859D01*
X09713Y-24837D01*
X09680Y-24813D01*
X09647Y-24787D01*
X09614Y-24760D01*
X09583Y-24732D01*
X09552Y-24701D01*
X09521Y-24669D01*
X09494Y-24639D01*
X09468Y-24608D01*
X09444Y-24576D01*
X09420Y-24544D01*
X09398Y-24511D01*
X09377Y-24478D01*
X09358Y-24444D01*
X09340Y-24409D01*
X09322Y-24374D01*
X09307Y-24338D01*
X09292Y-24301D01*
X09279Y-24264D01*
X09267Y-24227D01*
X09256Y-24188D01*
X09247Y-24149D01*
X09238Y-24110D01*
X09231Y-24070D01*
X09226Y-24029D01*
X09221Y-23988D01*
X09218Y-23946D01*
X09216Y-23903D01*
X09215Y-23860D01*
X09216Y-23818D01*
X09218Y-23776D01*
X09221Y-23734D01*
X09226Y-23693D01*
X09231Y-23653D01*
X09238Y-23614D01*
X09247Y-23575D01*
X09256Y-23536D01*
X09267Y-23498D01*
X09279Y-23461D01*
X09292Y-23425D01*
X09307Y-23389D01*
X09322Y-23353D01*
X09340Y-23318D01*
X09358Y-23284D01*
X09377Y-23251D01*
X09398Y-23218D01*
X09420Y-23185D01*
X09444Y-23153D01*
X09468Y-23122D01*
X09494Y-23092D01*
X09521Y-23062D01*
X09552Y-23029D01*
X09583Y-22999D01*
X09614Y-22970D01*
X09647Y-22943D01*
X09680Y-22918D01*
X09713Y-22894D01*
X09747Y-22872D01*
X09782Y-22852D01*
X09817Y-22833D01*
X09853Y-22816D01*
X09890Y-22801D01*
X09927Y-22787D01*
X09965Y-22775D01*
X10003Y-22764D01*
X10042Y-22755D01*
X10082Y-22748D01*
X10122Y-22742D01*
X10163Y-22738D01*
X10205Y-22736D01*
X10247Y-22735D01*
X10247Y-22735D01*
X10289Y-22736D01*
X10330Y-22738D01*
X10371Y-22742D01*
X10411Y-22748D01*
X10450Y-22755D01*
X10489Y-22764D01*
X10527Y-22775D01*
X10565Y-22787D01*
X10602Y-22801D01*
X10639Y-22816D01*
X10675Y-22833D01*
X10710Y-22852D01*
X10745Y-22872D01*
X10779Y-22894D01*
X10813Y-22918D01*
X10846Y-22943D01*
X10878Y-22970D01*
X10910Y-22999D01*
X10942Y-23029D01*
X10972Y-23062D01*
X10999Y-23092D01*
X11025Y-23122D01*
X11049Y-23153D01*
X11072Y-23185D01*
X11094Y-23218D01*
X11115Y-23251D01*
X11134Y-23284D01*
X11152Y-23318D01*
X11169Y-23353D01*
X11185Y-23389D01*
X11199Y-23425D01*
X11212Y-23461D01*
X11224Y-23498D01*
X11235Y-23536D01*
X11244Y-23575D01*
X11252Y-23614D01*
X11259Y-23653D01*
X11265Y-23693D01*
X11269Y-23734D01*
X11272Y-23776D01*
X11274Y-23818D01*
X11275Y-23860D01*
X11274Y-23903D01*
X11272Y-23946D01*
X11269Y-23988D01*
X11265Y-24029D01*
X11259Y-24070D01*
X11252Y-24110D01*
X11244Y-24149D01*
X11235Y-24188D01*
X11224Y-24227D01*
X11212Y-24264D01*
X11199Y-24301D01*
X11185Y-24338D01*
X11169Y-24374D01*
X11152Y-24409D01*
X11134Y-24444D01*
X11115Y-24478D01*
X11094Y-24511D01*
X11072Y-24544D01*
X11049Y-24576D01*
X11025Y-24608D01*
X10999Y-24639D01*
X10972Y-24669D01*
X10942Y-24701D01*
X10910Y-24732D01*
X10878Y-24760D01*
X10846Y-24787D01*
X10813Y-24813D01*
X10779Y-24837D01*
X10745Y-24859D01*
X10710Y-24879D01*
X10675Y-24898D01*
X10639Y-24915D01*
X10602Y-24930D01*
X10565Y-24944D01*
X10527Y-24956D01*
X10489Y-24967D01*
X10450Y-24975D01*
X10411Y-24983D01*
X10371Y-24988D01*
X10330Y-24992D01*
X10289Y-24995D01*
X10247Y-24996D01*
X10205Y-24995D01*
X10163Y-24992D01*
X10122Y-24988D01*
X10082Y-24983D01*
X10042Y-24975D01*
X10003Y-24967D01*
X09965Y-24956D01*
X09927Y-24944D01*
X09849Y-25144D01*
X09813Y-25131D01*
X10580Y-26270D01*
X10313Y-26270D01*
X10293Y-26240D01*
X10272Y-26209D01*
X10252Y-26179D01*
X10231Y-26148D01*
X10210Y-26117D01*
X10188Y-26086D01*
X10167Y-26054D01*
X10145Y-26023D01*
X10122Y-25991D01*
X10100Y-25958D01*
X10077Y-25926D01*
X10054Y-25893D01*
X10031Y-25860D01*
X10007Y-25826D01*
X09983Y-25793D01*
X09959Y-25759D01*
X09934Y-25725D01*
X09907Y-25686D01*
X09880Y-25648D01*
X09854Y-25612D01*
X09829Y-25577D01*
X09804Y-25543D01*
X09781Y-25509D01*
X09758Y-25478D01*
X09736Y-25447D01*
X09715Y-25417D01*
X09694Y-25389D01*
X09675Y-25361D01*
X09656Y-25335D01*
X09638Y-25310D01*
X09621Y-25286D01*
X09604Y-25263D01*
X09584Y-25234D01*
X09563Y-25205D01*
X09543Y-25176D01*
X09522Y-25146D01*
X09501Y-25116D01*
X09480Y-25085D01*
X09459Y-25054D01*
X09438Y-25022D01*
X09416Y-24990D01*
X09395Y-24958D01*
X09373Y-24925D01*
X09351Y-24891D01*
X09327Y-24855D01*
X09305Y-24819D01*
X09283Y-24784D01*
X09263Y-24749D01*
X09243Y-24716D01*
X09225Y-24684D01*
X09208Y-24653D01*
X09191Y-24622D01*
X09176Y-24593D01*
X09162Y-24565D01*
X09150Y-24537D01*
X09135Y-24504D01*
X09121Y-24471D01*
X09108Y-24437D01*
X09095Y-24402D01*
X09084Y-24367D01*
X09072Y-24331D01*
X09062Y-24294D01*
X09052Y-24256D01*
X09042Y-24218D01*
X09033Y-24183D01*
X09026Y-24147D01*
X09019Y-24112D01*
X09013Y-24076D01*
X09008Y-24040D01*
X09004Y-24004D01*
X09001Y-23968D01*
X08999Y-23932D01*
X08997Y-23896D01*
X08997Y-23860D01*
X08997Y-23820D01*
X08999Y-23780D01*
X09001Y-23740D01*
X09005Y-23701D01*
X09009Y-23662D01*
X09015Y-23624D01*
X09021Y-23586D01*
X09029Y-23548D01*
X09037Y-23511D01*
X09047Y-23474D01*
X09057Y-23437D01*
X09069Y-23401D01*
X09081Y-23365D01*
X09095Y-23329D01*
X09110Y-23294D01*
X09125Y-23259D01*
X09142Y-23224D01*
X09160Y-23190D01*
X09180Y-23154D01*
X09200Y-23119D01*
X09222Y-23085D01*
X09244Y-23052D01*
X09268Y-23019D01*
X09292Y-22988D01*
X09317Y-22957D01*
X09343Y-22928D01*
X09370Y-22899D01*
X09397Y-22871D01*
X09426Y-22844D01*
X09455Y-22818D01*
X09485Y-22793D01*
X09516Y-22769D01*
X09548Y-22745D01*
X09581Y-22722D01*
X09615Y-22700D01*
X09649Y-22680D01*
X09683Y-22660D01*
X09718Y-22642D01*
X09753Y-22625D01*
X09789Y-22609D01*
X09825Y-22594D01*
X09861Y-22581D01*
X09898Y-22568D01*
X09935Y-22558D01*
X09973Y-22548D01*
X10011Y-22540D01*
X10049Y-22533D01*
X10088Y-22527D01*
X10127Y-22522D01*
X10166Y-22519D01*
X10206Y-22517D01*
X10247Y-22516D01*
X10247Y-22516D01*
X10247Y-22516D01*
G37*
G36*
X19683Y-22513D02*
X19726Y-22514D01*
X19768Y-22516D01*
X19810Y-22521D01*
X19850Y-22527D01*
X19890Y-22534D01*
X19929Y-22544D01*
X19968Y-22555D01*
X20005Y-22568D01*
X20042Y-22582D01*
X20079Y-22599D01*
X20114Y-22617D01*
X20149Y-22637D01*
X20183Y-22659D01*
X20216Y-22682D01*
X20249Y-22707D01*
X20281Y-22734D01*
X20312Y-22763D01*
X20342Y-22793D01*
X20369Y-22824D01*
X20395Y-22855D01*
X20419Y-22887D01*
X20442Y-22920D01*
X20462Y-22954D01*
X20481Y-22988D01*
X20498Y-23023D01*
X20513Y-23059D01*
X20526Y-23096D01*
X20537Y-23133D01*
X20547Y-23171D01*
X20555Y-23209D01*
X20561Y-23249D01*
X20565Y-23289D01*
X20568Y-23329D01*
X20349Y-23331D01*
X20350Y-23371D01*
X20349Y-23411D01*
X20345Y-23450D01*
X20339Y-23489D01*
X20331Y-23526D01*
X20320Y-23563D01*
X20307Y-23599D01*
X20292Y-23634D01*
X20274Y-23668D01*
X20254Y-23701D01*
X20232Y-23734D01*
X20208Y-23765D01*
X20181Y-23796D01*
X20152Y-23825D01*
X20122Y-23853D01*
X20091Y-23879D01*
X20058Y-23903D01*
X20025Y-23924D01*
X19991Y-23943D01*
X19956Y-23959D01*
X19920Y-23973D01*
X19883Y-23986D01*
X19846Y-23995D01*
X19807Y-24003D01*
X19767Y-24009D01*
X19726Y-24012D01*
X19684Y-24013D01*
X19642Y-24012D01*
X19602Y-24009D01*
X19562Y-24003D01*
X19523Y-23995D01*
X19486Y-23986D01*
X19449Y-23973D01*
X19413Y-23959D01*
X19378Y-23943D01*
X19344Y-23924D01*
X19311Y-23903D01*
X19279Y-23879D01*
X19248Y-23853D01*
X19218Y-23825D01*
X19190Y-23796D01*
X19164Y-23765D01*
X19140Y-23734D01*
X19118Y-23701D01*
X19099Y-23668D01*
X19082Y-23634D01*
X19068Y-23599D01*
X19055Y-23563D01*
X19045Y-23526D01*
X19037Y-23489D01*
X19032Y-23450D01*
X19028Y-23411D01*
X19027Y-23371D01*
X19028Y-23331D01*
X19032Y-23292D01*
X19038Y-23253D01*
X19046Y-23216D01*
X19056Y-23179D01*
X19069Y-23144D01*
X19084Y-23109D01*
X19101Y-23075D01*
X19120Y-23042D01*
X19142Y-23010D01*
X19166Y-22979D01*
X19193Y-22948D01*
X19222Y-22919D01*
X19252Y-22892D01*
X19283Y-22866D01*
X19315Y-22843D01*
X19347Y-22822D01*
X19381Y-22804D01*
X19416Y-22788D01*
X19451Y-22774D01*
X19488Y-22762D01*
X19525Y-22752D01*
X19563Y-22745D01*
X19602Y-22739D01*
X19642Y-22736D01*
X19684Y-22735D01*
X19717Y-22734D01*
X19749Y-22735D01*
X19749Y-22735D01*
X19788Y-22740D01*
X19825Y-22746D01*
X19862Y-22754D01*
X19898Y-22765D01*
X19933Y-22777D01*
X19967Y-22791D01*
X20000Y-22808D01*
X20032Y-22826D01*
X20063Y-22846D01*
X20094Y-22869D01*
X20123Y-22893D01*
X20152Y-22919D01*
X20181Y-22948D01*
X20208Y-22979D01*
X20232Y-23010D01*
X20254Y-23042D01*
X20274Y-23075D01*
X20292Y-23109D01*
X20307Y-23144D01*
X20320Y-23179D01*
X20331Y-23216D01*
X20339Y-23253D01*
X20345Y-23292D01*
X20349Y-23331D01*
X20568Y-23329D01*
X20569Y-23371D01*
X20568Y-23409D01*
X20566Y-23447D01*
X20562Y-23484D01*
X20556Y-23521D01*
X20549Y-23557D01*
X20540Y-23593D01*
X20530Y-23628D01*
X20518Y-23663D01*
X20505Y-23697D01*
X20489Y-23731D01*
X20473Y-23765D01*
X20454Y-23798D01*
X20432Y-23833D01*
X20409Y-23867D01*
X20385Y-23899D01*
X20359Y-23930D01*
X20332Y-23960D01*
X20304Y-23988D01*
X20275Y-24015D01*
X20244Y-24040D01*
X20213Y-24064D01*
X20180Y-24086D01*
X20145Y-24107D01*
X20181Y-24123D01*
X20216Y-24141D01*
X20251Y-24160D01*
X20284Y-24179D01*
X20317Y-24200D01*
X20349Y-24221D01*
X20380Y-24244D01*
X20410Y-24268D01*
X20440Y-24292D01*
X20468Y-24318D01*
X20496Y-24345D01*
X20523Y-24373D01*
X20549Y-24401D01*
X20575Y-24431D01*
X20599Y-24462D01*
X20623Y-24494D01*
X20645Y-24527D01*
X20667Y-24560D01*
X20687Y-24594D01*
X20706Y-24628D01*
X20723Y-24663D01*
X20739Y-24698D01*
X20754Y-24734D01*
X20768Y-24770D01*
X20780Y-24806D01*
X20791Y-24843D01*
X20801Y-24881D01*
X20809Y-24919D01*
X20817Y-24957D01*
X20822Y-24996D01*
X20827Y-25035D01*
X20830Y-25075D01*
X20832Y-25115D01*
X20833Y-25155D01*
X20832Y-25197D01*
X20830Y-25238D01*
X20827Y-25278D01*
X20823Y-25318D01*
X20817Y-25357D01*
X20810Y-25396D01*
X20802Y-25435D01*
X20793Y-25472D01*
X20782Y-25510D01*
X20770Y-25546D01*
X20757Y-25583D01*
X20742Y-25618D01*
X20727Y-25654D01*
X20710Y-25688D01*
X20691Y-25722D01*
X20672Y-25756D01*
X20651Y-25789D01*
X20629Y-25821D01*
X20606Y-25853D01*
X20581Y-25884D01*
X20555Y-25915D01*
X20528Y-25945D01*
X20499Y-25975D01*
X20470Y-26003D01*
X20440Y-26030D01*
X20409Y-26056D01*
X20378Y-26081D01*
X20346Y-26104D01*
X20314Y-26126D01*
X20281Y-26147D01*
X20248Y-26167D01*
X20214Y-26185D01*
X20180Y-26202D01*
X20145Y-26218D01*
X20109Y-26232D01*
X20073Y-26245D01*
X20037Y-26257D01*
X20000Y-26268D01*
X19962Y-26277D01*
X19924Y-26285D01*
X19885Y-26292D01*
X19849Y-26073D01*
X19808Y-26078D01*
X19768Y-26083D01*
X19726Y-26085D01*
X19684Y-26086D01*
X19642Y-26085D01*
X19601Y-26083D01*
X19561Y-26078D01*
X19521Y-26073D01*
X19482Y-26065D01*
X19444Y-26056D01*
X19406Y-26045D01*
X19369Y-26033D01*
X19333Y-26018D01*
X19297Y-26003D01*
X19262Y-25985D01*
X19227Y-25966D01*
X19193Y-25945D01*
X19160Y-25922D01*
X19128Y-25898D01*
X19096Y-25872D01*
X19065Y-25844D01*
X19034Y-25815D01*
X19005Y-25784D01*
X18977Y-25753D01*
X18951Y-25720D01*
X18926Y-25687D01*
X18904Y-25654D01*
X18882Y-25619D01*
X18863Y-25584D01*
X18845Y-25548D01*
X18829Y-25512D01*
X18815Y-25475D01*
X18802Y-25437D01*
X18791Y-25399D01*
X18781Y-25360D01*
X18774Y-25320D01*
X18768Y-25280D01*
X18763Y-25239D01*
X18761Y-25197D01*
X18760Y-25155D01*
X18761Y-25114D01*
X18763Y-25073D01*
X18768Y-25033D01*
X18774Y-24993D01*
X18781Y-24954D01*
X18791Y-24916D01*
X18802Y-24879D01*
X18815Y-24842D01*
X18829Y-24806D01*
X18845Y-24770D01*
X18863Y-24735D01*
X18882Y-24701D01*
X18904Y-24667D01*
X18926Y-24634D01*
X18951Y-24602D01*
X18977Y-24571D01*
X19005Y-24540D01*
X19034Y-24509D01*
X19065Y-24480D01*
X19096Y-24452D01*
X19128Y-24426D01*
X19160Y-24402D01*
X19193Y-24380D01*
X19227Y-24359D01*
X19262Y-24339D01*
X19297Y-24322D01*
X19333Y-24306D01*
X19369Y-24292D01*
X19406Y-24279D01*
X19444Y-24269D01*
X19482Y-24259D01*
X19521Y-24252D01*
X19561Y-24246D01*
X19601Y-24242D01*
X19642Y-24239D01*
X19684Y-24239D01*
X19684Y-24239D01*
X19726Y-24239D01*
X19767Y-24242D01*
X19808Y-24246D01*
X19848Y-24252D01*
X19887Y-24259D01*
X19926Y-24269D01*
X19964Y-24279D01*
X20002Y-24292D01*
X20038Y-24306D01*
X20075Y-24322D01*
X20110Y-24339D01*
X20145Y-24359D01*
X20179Y-24380D01*
X20212Y-24402D01*
X20245Y-24426D01*
X20277Y-24452D01*
X20309Y-24480D01*
X20340Y-24509D01*
X20369Y-24540D01*
X20397Y-24571D01*
X20423Y-24602D01*
X20447Y-24634D01*
X20470Y-24667D01*
X20491Y-24701D01*
X20510Y-24735D01*
X20527Y-24770D01*
X20543Y-24806D01*
X20557Y-24842D01*
X20570Y-24879D01*
X20581Y-24916D01*
X20590Y-24954D01*
X20597Y-24993D01*
X20603Y-25033D01*
X20607Y-25073D01*
X20610Y-25114D01*
X20611Y-25155D01*
X20610Y-25197D01*
X20607Y-25239D01*
X20603Y-25280D01*
X20597Y-25320D01*
X20590Y-25360D01*
X20581Y-25399D01*
X20570Y-25437D01*
X20557Y-25475D01*
X20543Y-25512D01*
X20527Y-25548D01*
X20510Y-25584D01*
X20491Y-25619D01*
X20470Y-25654D01*
X20447Y-25687D01*
X20423Y-25720D01*
X20397Y-25753D01*
X20369Y-25784D01*
X20340Y-25815D01*
X20309Y-25844D01*
X20278Y-25872D01*
X20246Y-25898D01*
X20213Y-25922D01*
X20180Y-25945D01*
X20146Y-25966D01*
X20111Y-25985D01*
X20076Y-26003D01*
X20040Y-26018D01*
X20003Y-26033D01*
X19965Y-26045D01*
X19927Y-26056D01*
X19888Y-26065D01*
X19849Y-26073D01*
X19885Y-26292D01*
X19846Y-26298D01*
X19806Y-26302D01*
X19766Y-26306D01*
X19725Y-26307D01*
X19683Y-26308D01*
X19642Y-26307D01*
X19602Y-26305D01*
X19561Y-26302D01*
X19522Y-26297D01*
X19482Y-26291D01*
X19443Y-26284D01*
X19404Y-26275D01*
X19366Y-26264D01*
X19328Y-26253D01*
X19291Y-26240D01*
X19254Y-26226D01*
X19217Y-26210D01*
X19181Y-26193D01*
X19146Y-26175D01*
X19111Y-26155D01*
X19076Y-26134D01*
X19042Y-26112D01*
X19009Y-26089D01*
X18977Y-26065D01*
X18946Y-26040D01*
X18916Y-26014D01*
X18887Y-25987D01*
X18859Y-25959D01*
X18832Y-25930D01*
X18806Y-25900D01*
X18781Y-25869D01*
X18757Y-25837D01*
X18734Y-25804D01*
X18712Y-25770D01*
X18690Y-25735D01*
X18671Y-25700D01*
X18652Y-25664D01*
X18635Y-25627D01*
X18619Y-25590D01*
X18605Y-25553D01*
X18592Y-25515D01*
X18581Y-25477D01*
X18570Y-25438D01*
X18562Y-25399D01*
X18554Y-25360D01*
X18548Y-25320D01*
X18544Y-25279D01*
X18540Y-25238D01*
X18538Y-25197D01*
X18538Y-25155D01*
X18538Y-25115D01*
X18540Y-25075D01*
X18544Y-25036D01*
X18548Y-24997D01*
X18554Y-24958D01*
X18561Y-24920D01*
X18570Y-24882D01*
X18580Y-24845D01*
X18591Y-24808D01*
X18603Y-24771D01*
X18617Y-24735D01*
X18632Y-24699D01*
X18649Y-24664D01*
X18667Y-24629D01*
X18686Y-24595D01*
X18707Y-24560D01*
X18729Y-24527D01*
X18751Y-24494D01*
X18775Y-24462D01*
X18799Y-24431D01*
X18824Y-24401D01*
X18850Y-24373D01*
X18877Y-24345D01*
X18905Y-24318D01*
X18933Y-24292D01*
X18962Y-24268D01*
X18992Y-24244D01*
X19023Y-24221D01*
X19055Y-24200D01*
X19087Y-24179D01*
X19120Y-24160D01*
X19155Y-24141D01*
X19189Y-24123D01*
X19225Y-24107D01*
X19190Y-24086D01*
X19157Y-24064D01*
X19125Y-24040D01*
X19094Y-24015D01*
X19065Y-23989D01*
X19037Y-23961D01*
X19010Y-23932D01*
X18985Y-23901D01*
X18960Y-23869D01*
X18938Y-23836D01*
X18916Y-23801D01*
X18898Y-23768D01*
X18881Y-23734D01*
X18866Y-23700D01*
X18852Y-23666D01*
X18840Y-23631D01*
X18830Y-23595D01*
X18821Y-23559D01*
X18814Y-23522D01*
X18809Y-23485D01*
X18805Y-23448D01*
X18802Y-23409D01*
X18802Y-23371D01*
X18802Y-23329D01*
X18805Y-23289D01*
X18810Y-23249D01*
X18816Y-23209D01*
X18824Y-23171D01*
X18834Y-23133D01*
X18846Y-23096D01*
X18859Y-23059D01*
X18875Y-23023D01*
X18892Y-22988D01*
X18911Y-22954D01*
X18932Y-22920D01*
X18954Y-22887D01*
X18978Y-22855D01*
X19004Y-22824D01*
X19032Y-22793D01*
X19062Y-22763D01*
X19093Y-22734D01*
X19124Y-22707D01*
X19157Y-22682D01*
X19190Y-22659D01*
X19224Y-22637D01*
X19258Y-22617D01*
X19293Y-22599D01*
X19329Y-22582D01*
X19366Y-22568D01*
X19403Y-22555D01*
X19441Y-22544D01*
X19479Y-22534D01*
X19519Y-22527D01*
X19559Y-22521D01*
X19600Y-22516D01*
X19641Y-22514D01*
X19683Y-22513D01*
X19683Y-22513D01*
X19683Y-22513D01*
G37*
G36*
X20684Y-13093D02*
X20840Y-14961D01*
X20593Y-14961D01*
X20574Y-14927D01*
X20555Y-14893D01*
X20534Y-14860D01*
X20512Y-14828D01*
X20490Y-14797D01*
X20466Y-14767D01*
X20442Y-14739D01*
X20417Y-14711D01*
X20391Y-14684D01*
X20364Y-14657D01*
X20336Y-14632D01*
X20307Y-14608D01*
X20277Y-14585D01*
X20246Y-14563D01*
X20215Y-14541D01*
X20180Y-14519D01*
X20145Y-14499D01*
X20110Y-14480D01*
X20075Y-14463D01*
X20038Y-14447D01*
X20002Y-14434D01*
X19965Y-14421D01*
X19928Y-14411D01*
X19890Y-14402D01*
X19851Y-14394D01*
X19813Y-14389D01*
X19774Y-14385D01*
X19734Y-14382D01*
X19694Y-14381D01*
X19652Y-14382D01*
X19610Y-14385D01*
X19569Y-14389D01*
X19529Y-14394D01*
X19490Y-14402D01*
X19450Y-14410D01*
X19412Y-14421D01*
X19374Y-14433D01*
X19337Y-14447D01*
X19300Y-14462D01*
X19265Y-14479D01*
X19229Y-14498D01*
X19194Y-14518D01*
X19160Y-14540D01*
X19127Y-14564D01*
X19094Y-14590D01*
X19062Y-14617D01*
X19030Y-14645D01*
X18999Y-14676D01*
X18968Y-14708D01*
X18941Y-14738D01*
X18915Y-14768D01*
X18891Y-14800D01*
X18867Y-14832D01*
X18845Y-14864D01*
X18825Y-14897D01*
X18805Y-14931D01*
X18787Y-14965D01*
X18770Y-15000D01*
X18754Y-15035D01*
X18739Y-15071D01*
X18726Y-15108D01*
X18714Y-15145D01*
X18703Y-15183D01*
X18694Y-15221D01*
X18686Y-15260D01*
X18679Y-15300D01*
X18673Y-15340D01*
X18668Y-15381D01*
X18665Y-15422D01*
X18663Y-15464D01*
X18663Y-15506D01*
X18663Y-15549D01*
X18665Y-15592D01*
X18668Y-15633D01*
X18673Y-15674D01*
X18679Y-15715D01*
X18686Y-15755D01*
X18694Y-15794D01*
X18703Y-15833D01*
X18714Y-15871D01*
X18726Y-15908D01*
X18739Y-15945D01*
X18754Y-15982D01*
X18770Y-16018D01*
X18787Y-16053D01*
X18805Y-16087D01*
X18825Y-16121D01*
X18845Y-16155D01*
X18867Y-16187D01*
X18891Y-16219D01*
X18915Y-16251D01*
X18941Y-16282D01*
X18968Y-16312D01*
X18999Y-16344D01*
X19030Y-16375D01*
X19062Y-16403D01*
X19094Y-16431D01*
X19127Y-16456D01*
X19160Y-16480D01*
X19194Y-16502D01*
X19229Y-16523D01*
X19265Y-16542D01*
X19300Y-16559D01*
X19337Y-16575D01*
X19374Y-16589D01*
X19412Y-16601D01*
X19450Y-16612D01*
X19490Y-16621D01*
X19529Y-16629D01*
X19569Y-16634D01*
X19610Y-16639D01*
X19652Y-16641D01*
X19694Y-16642D01*
X19735Y-16641D01*
X19776Y-16639D01*
X19816Y-16634D01*
X19855Y-16629D01*
X19894Y-16621D01*
X19933Y-16612D01*
X19971Y-16602D01*
X20008Y-16589D01*
X20045Y-16575D01*
X20081Y-16560D01*
X20117Y-16543D01*
X20153Y-16524D01*
X20187Y-16504D01*
X20222Y-16482D01*
X20256Y-16458D01*
X20289Y-16433D01*
X20321Y-16406D01*
X20354Y-16378D01*
X20383Y-16350D01*
X20411Y-16321D01*
X20438Y-16292D01*
X20464Y-16262D01*
X20488Y-16231D01*
X20511Y-16199D01*
X20533Y-16167D01*
X20554Y-16134D01*
X20574Y-16100D01*
X20592Y-16066D01*
X20610Y-16030D01*
X20626Y-15994D01*
X20640Y-15958D01*
X20654Y-15920D01*
X20666Y-15882D01*
X20678Y-15843D01*
X20688Y-15803D01*
X20697Y-15763D01*
X20704Y-15722D01*
X20930Y-15722D01*
X20924Y-15763D01*
X20916Y-15804D01*
X20908Y-15845D01*
X20898Y-15885D01*
X20887Y-15924D01*
X20876Y-15963D01*
X20863Y-16001D01*
X20849Y-16039D01*
X20834Y-16076D01*
X20818Y-16112D01*
X20801Y-16148D01*
X20783Y-16184D01*
X20764Y-16218D01*
X20744Y-16253D01*
X20722Y-16286D01*
X20700Y-16319D01*
X20676Y-16352D01*
X20652Y-16384D01*
X20626Y-16415D01*
X20600Y-16446D01*
X20572Y-16476D01*
X20543Y-16505D01*
X20513Y-16534D01*
X20483Y-16562D01*
X20451Y-16589D01*
X20420Y-16615D01*
X20387Y-16639D01*
X20355Y-16662D01*
X20322Y-16684D01*
X20288Y-16704D01*
X20254Y-16724D01*
X20220Y-16742D01*
X20185Y-16759D01*
X20150Y-16774D01*
X20114Y-16789D01*
X20078Y-16802D01*
X20042Y-16814D01*
X20005Y-16824D01*
X19968Y-16833D01*
X19930Y-16842D01*
X19892Y-16848D01*
X19853Y-16854D01*
X19814Y-16858D01*
X19774Y-16862D01*
X19734Y-16863D01*
X19694Y-16864D01*
X19654Y-16863D01*
X19614Y-16862D01*
X19574Y-16858D01*
X19535Y-16854D01*
X19496Y-16848D01*
X19458Y-16841D01*
X19420Y-16833D01*
X19382Y-16824D01*
X19345Y-16813D01*
X19308Y-16801D01*
X19272Y-16788D01*
X19236Y-16774D01*
X19200Y-16758D01*
X19165Y-16741D01*
X19130Y-16723D01*
X19096Y-16704D01*
X19062Y-16684D01*
X19028Y-16662D01*
X18996Y-16639D01*
X18964Y-16615D01*
X18933Y-16591D01*
X18903Y-16565D01*
X18874Y-16539D01*
X18846Y-16512D01*
X18818Y-16484D01*
X18792Y-16455D01*
X18766Y-16426D01*
X18742Y-16395D01*
X18718Y-16364D01*
X18695Y-16332D01*
X18672Y-16298D01*
X18651Y-16264D01*
X18630Y-16230D01*
X18611Y-16194D01*
X18593Y-16159D01*
X18576Y-16125D01*
X18560Y-16089D01*
X18545Y-16054D01*
X18531Y-16018D01*
X18519Y-15982D01*
X18507Y-15945D01*
X18496Y-15908D01*
X18486Y-15871D01*
X18477Y-15833D01*
X18469Y-15795D01*
X18463Y-15757D01*
X18457Y-15718D01*
X18452Y-15680D01*
X18449Y-15640D01*
X18446Y-15601D01*
X18444Y-15561D01*
X18444Y-15520D01*
X18444Y-15480D01*
X18446Y-15440D01*
X18449Y-15400D01*
X18452Y-15360D01*
X18457Y-15321D01*
X18463Y-15282D01*
X18469Y-15243D01*
X18477Y-15205D01*
X18486Y-15167D01*
X18496Y-15130D01*
X18507Y-15093D01*
X18519Y-15056D01*
X18531Y-15020D01*
X18545Y-14984D01*
X18560Y-14948D01*
X18576Y-14913D01*
X18593Y-14878D01*
X18611Y-14843D01*
X18630Y-14807D01*
X18651Y-14772D01*
X18672Y-14737D01*
X18695Y-14704D01*
X18718Y-14671D01*
X18742Y-14640D01*
X18766Y-14609D01*
X18792Y-14579D01*
X18818Y-14550D01*
X18846Y-14522D01*
X18874Y-14495D01*
X18903Y-14468D01*
X18933Y-14443D01*
X18964Y-14418D01*
X18996Y-14395D01*
X19028Y-14372D01*
X19062Y-14350D01*
X19096Y-14329D01*
X19130Y-14310D01*
X19165Y-14292D01*
X19200Y-14275D01*
X19236Y-14259D01*
X19272Y-14245D01*
X19308Y-14232D01*
X19345Y-14220D01*
X19382Y-14209D01*
X19420Y-14200D01*
X19458Y-14192D01*
X19496Y-14185D01*
X19535Y-14180D01*
X19574Y-14175D01*
X19614Y-14172D01*
X19654Y-14170D01*
X19694Y-14170D01*
X19733Y-14170D01*
X19771Y-14172D01*
X19809Y-14175D01*
X19847Y-14179D01*
X19885Y-14185D01*
X19922Y-14192D01*
X19959Y-14200D01*
X19996Y-14209D01*
X20033Y-14219D01*
X20069Y-14231D01*
X20105Y-14244D01*
X20141Y-14258D01*
X20177Y-14274D01*
X20211Y-14290D01*
X20245Y-14308D01*
X20279Y-14327D01*
X20312Y-14346D01*
X20344Y-14367D01*
X20375Y-14388D01*
X20406Y-14410D01*
X20437Y-14434D01*
X20467Y-14458D01*
X20496Y-14484D01*
X20524Y-14510D01*
X20552Y-14537D01*
X20579Y-14565D01*
X20475Y-13319D01*
X18888Y-13319D01*
X18812Y-13093D01*
X20684Y-13093D01*
X20684Y-13093D01*
G37*
G36*
X10177Y-13069D02*
X10197Y-13098D01*
X10216Y-13127D01*
X10236Y-13157D01*
X10257Y-13186D01*
X10277Y-13217D01*
X10298Y-13247D01*
X10319Y-13278D01*
X10341Y-13309D01*
X10362Y-13340D01*
X10385Y-13372D01*
X10407Y-13404D01*
X10430Y-13437D01*
X10453Y-13469D01*
X10476Y-13503D01*
X10499Y-13536D01*
X10523Y-13570D01*
X10547Y-13604D01*
X10572Y-13638D01*
X10597Y-13673D01*
X10622Y-13708D01*
X10651Y-13749D01*
X10679Y-13788D01*
X10707Y-13827D01*
X10734Y-13864D01*
X10760Y-13900D01*
X10785Y-13934D01*
X10809Y-13968D01*
X10833Y-14000D01*
X10855Y-14031D01*
X10877Y-14061D01*
X10898Y-14090D01*
X10917Y-14118D01*
X10937Y-14144D01*
X10955Y-14170D01*
X10972Y-14194D01*
X10988Y-14217D01*
X11004Y-14239D01*
X11023Y-14267D01*
X11043Y-14296D01*
X11062Y-14326D01*
X11082Y-14356D01*
X11101Y-14386D01*
X11121Y-14417D01*
X11141Y-14449D01*
X11160Y-14481D01*
X11180Y-14513D01*
X11200Y-14546D01*
X11220Y-14580D01*
X11240Y-14614D01*
X11261Y-14649D01*
X11282Y-14686D01*
X11302Y-14724D01*
X11321Y-14760D01*
X11339Y-14797D01*
X11356Y-14832D01*
X11372Y-14868D01*
X11387Y-14902D01*
X11401Y-14937D01*
X11413Y-14971D01*
X11425Y-15004D01*
X11435Y-15037D01*
X11445Y-15069D01*
X11454Y-15104D01*
X11462Y-15139D01*
X11469Y-15174D01*
X11476Y-15210D01*
X11481Y-15246D01*
X11486Y-15282D01*
X11490Y-15319D01*
X11493Y-15357D01*
X11495Y-15395D01*
X11496Y-15433D01*
X11497Y-15472D01*
X11496Y-15512D01*
X11495Y-15552D01*
X11492Y-15592D01*
X11488Y-15631D01*
X11484Y-15670D01*
X11478Y-15708D01*
X11471Y-15747D01*
X11463Y-15785D01*
X11455Y-15822D01*
X11445Y-15860D01*
X11434Y-15896D01*
X11422Y-15933D01*
X11409Y-15969D01*
X11395Y-16005D01*
X11381Y-16041D01*
X11365Y-16076D01*
X11348Y-16111D01*
X11330Y-16145D01*
X11310Y-16181D01*
X11289Y-16216D01*
X11268Y-16251D01*
X11245Y-16284D01*
X11222Y-16317D01*
X11198Y-16348D01*
X11173Y-16379D01*
X11147Y-16409D01*
X11121Y-16438D01*
X11094Y-16466D01*
X11066Y-16494D01*
X11037Y-16520D01*
X11007Y-16545D01*
X10976Y-16570D01*
X10944Y-16594D01*
X10912Y-16617D01*
X10879Y-16638D01*
X10844Y-16659D01*
X10810Y-16679D01*
X10775Y-16697D01*
X10739Y-16714D01*
X10704Y-16730D01*
X10668Y-16745D01*
X10631Y-16758D01*
X10594Y-16770D01*
X10557Y-16781D01*
X10520Y-16791D01*
X10482Y-16799D01*
X10443Y-16806D01*
X10405Y-16812D01*
X10366Y-16817D01*
X10326Y-16820D01*
X10287Y-16822D01*
X10247Y-16822D01*
X10206Y-16822D01*
X10166Y-16820D01*
X10127Y-16817D01*
X10088Y-16812D01*
X10049Y-16806D01*
X10011Y-16799D01*
X09973Y-16791D01*
X09935Y-16781D01*
X09898Y-16770D01*
X09861Y-16758D01*
X09825Y-16745D01*
X09789Y-16730D01*
X09753Y-16714D01*
X09718Y-16697D01*
X09683Y-16679D01*
X09649Y-16659D01*
X09615Y-16638D01*
X09581Y-16617D01*
X09548Y-16594D01*
X09516Y-16570D01*
X09485Y-16545D01*
X09455Y-16520D01*
X09426Y-16494D01*
X09397Y-16466D01*
X09370Y-16438D01*
X09343Y-16409D01*
X09317Y-16379D01*
X09292Y-16348D01*
X09268Y-16317D01*
X09244Y-16284D01*
X09222Y-16251D01*
X09200Y-16216D01*
X09180Y-16181D01*
X09160Y-16145D01*
X09142Y-16111D01*
X09125Y-16076D01*
X09110Y-16041D01*
X09095Y-16005D01*
X09081Y-15969D01*
X09069Y-15933D01*
X09057Y-15896D01*
X09047Y-15860D01*
X09037Y-15822D01*
X09029Y-15785D01*
X09021Y-15747D01*
X09015Y-15708D01*
X09009Y-15670D01*
X09005Y-15631D01*
X09001Y-15592D01*
X08999Y-15552D01*
X08997Y-15512D01*
X08997Y-15472D01*
X08997Y-15431D01*
X08999Y-15391D01*
X09001Y-15352D01*
X09005Y-15313D01*
X09009Y-15274D01*
X09015Y-15235D01*
X09021Y-15197D01*
X09029Y-15159D01*
X09037Y-15121D01*
X09047Y-15084D01*
X09057Y-15047D01*
X09069Y-15010D01*
X09081Y-14974D01*
X09095Y-14938D01*
X09110Y-14903D01*
X09125Y-14868D01*
X09142Y-14833D01*
X09160Y-14798D01*
X09180Y-14762D01*
X09200Y-14727D01*
X09222Y-14693D01*
X09244Y-14660D01*
X09268Y-14628D01*
X09292Y-14596D01*
X09317Y-14566D01*
X09343Y-14536D01*
X09370Y-14507D01*
X09397Y-14479D01*
X09426Y-14452D01*
X09455Y-14426D01*
X09485Y-14401D01*
X09516Y-14377D01*
X09548Y-14353D01*
X09581Y-14330D01*
X09615Y-14309D01*
X09649Y-14287D01*
X09683Y-14268D01*
X09718Y-14249D01*
X09753Y-14232D01*
X09789Y-14216D01*
X09825Y-14201D01*
X09861Y-14188D01*
X09898Y-14176D01*
X09935Y-14165D01*
X09973Y-14156D01*
X10011Y-14147D01*
X10049Y-14140D01*
X10088Y-14135D01*
X10127Y-14130D01*
X10166Y-14127D01*
X10206Y-14125D01*
X10247Y-14125D01*
X10286Y-14125D01*
X10325Y-14127D01*
X10363Y-14131D01*
X10402Y-14135D01*
X10441Y-14141D01*
X10480Y-14149D01*
X10518Y-14158D01*
X10557Y-14168D01*
X10596Y-14180D01*
X10527Y-14380D01*
X10565Y-14393D01*
X10602Y-14407D01*
X10639Y-14422D01*
X10675Y-14440D01*
X10710Y-14459D01*
X10745Y-14479D01*
X10779Y-14502D01*
X10813Y-14525D01*
X10846Y-14551D01*
X10878Y-14578D01*
X10910Y-14607D01*
X10942Y-14638D01*
X10972Y-14670D01*
X10999Y-14700D01*
X11025Y-14731D01*
X11049Y-14762D01*
X11072Y-14794D01*
X11094Y-14827D01*
X11115Y-14860D01*
X11134Y-14894D01*
X11152Y-14928D01*
X11169Y-14963D01*
X11185Y-14998D01*
X11199Y-15035D01*
X11212Y-15071D01*
X11224Y-15109D01*
X11235Y-15146D01*
X11244Y-15185D01*
X11252Y-15224D01*
X11259Y-15264D01*
X11265Y-15304D01*
X11269Y-15345D01*
X11272Y-15387D01*
X11274Y-15429D01*
X11275Y-15472D01*
X11274Y-15514D01*
X11272Y-15556D01*
X11269Y-15598D01*
X11265Y-15639D01*
X11259Y-15679D01*
X11252Y-15719D01*
X11244Y-15758D01*
X11235Y-15796D01*
X11224Y-15834D01*
X11212Y-15872D01*
X11199Y-15908D01*
X11185Y-15945D01*
X11169Y-15980D01*
X11152Y-16015D01*
X11134Y-16050D01*
X11115Y-16083D01*
X11094Y-16117D01*
X11072Y-16149D01*
X11049Y-16181D01*
X11025Y-16213D01*
X10999Y-16244D01*
X10972Y-16274D01*
X10942Y-16306D01*
X10910Y-16336D01*
X10878Y-16365D01*
X10846Y-16392D01*
X10813Y-16418D01*
X10779Y-16442D01*
X10745Y-16464D01*
X10710Y-16485D01*
X10675Y-16504D01*
X10639Y-16521D01*
X10602Y-16537D01*
X10565Y-16551D01*
X10527Y-16563D01*
X10489Y-16574D01*
X10450Y-16583D01*
X10411Y-16590D01*
X10371Y-16596D01*
X10330Y-16600D01*
X10289Y-16603D01*
X10247Y-16604D01*
X10205Y-16603D01*
X10163Y-16600D01*
X10122Y-16596D01*
X10082Y-16590D01*
X10042Y-16583D01*
X10003Y-16574D01*
X09965Y-16563D01*
X09927Y-16551D01*
X09890Y-16537D01*
X09853Y-16521D01*
X09817Y-16504D01*
X09782Y-16485D01*
X09747Y-16464D01*
X09713Y-16442D01*
X09680Y-16418D01*
X09647Y-16392D01*
X09614Y-16365D01*
X09583Y-16336D01*
X09552Y-16306D01*
X09521Y-16274D01*
X09494Y-16244D01*
X09468Y-16213D01*
X09444Y-16181D01*
X09420Y-16149D01*
X09398Y-16117D01*
X09377Y-16083D01*
X09358Y-16050D01*
X09340Y-16015D01*
X09322Y-15980D01*
X09307Y-15945D01*
X09292Y-15908D01*
X09279Y-15872D01*
X09267Y-15834D01*
X09256Y-15796D01*
X09247Y-15758D01*
X09238Y-15719D01*
X09231Y-15679D01*
X09226Y-15639D01*
X09221Y-15598D01*
X09218Y-15556D01*
X09216Y-15514D01*
X09215Y-15472D01*
X09216Y-15429D01*
X09218Y-15387D01*
X09221Y-15345D01*
X09226Y-15304D01*
X09231Y-15264D01*
X09238Y-15224D01*
X09247Y-15185D01*
X09256Y-15146D01*
X09267Y-15109D01*
X09279Y-15071D01*
X09292Y-15035D01*
X09307Y-14998D01*
X09322Y-14963D01*
X09340Y-14928D01*
X09358Y-14894D01*
X09377Y-14860D01*
X09398Y-14827D01*
X09420Y-14794D01*
X09444Y-14762D01*
X09468Y-14731D01*
X09494Y-14700D01*
X09521Y-14670D01*
X09552Y-14638D01*
X09583Y-14607D01*
X09614Y-14578D01*
X09647Y-14551D01*
X09680Y-14525D01*
X09713Y-14502D01*
X09747Y-14479D01*
X09782Y-14459D01*
X09817Y-14440D01*
X09853Y-14422D01*
X09890Y-14407D01*
X09927Y-14393D01*
X09965Y-14380D01*
X10003Y-14370D01*
X10042Y-14360D01*
X10082Y-14353D01*
X10122Y-14347D01*
X10163Y-14343D01*
X10205Y-14341D01*
X10247Y-14340D01*
X10247Y-14340D01*
X10289Y-14341D01*
X10330Y-14343D01*
X10371Y-14347D01*
X10411Y-14353D01*
X10450Y-14360D01*
X10489Y-14370D01*
X10527Y-14380D01*
X10596Y-14180D01*
X10635Y-14193D01*
X10674Y-14208D01*
X09910Y-13069D01*
X10177Y-13069D01*
X10177Y-13069D01*
G37*
G36*
X28294Y-13052D02*
X30624Y-16128D01*
X28516Y-16128D01*
X28516Y-15906D01*
X28516Y-13718D01*
X30176Y-15906D01*
X28516Y-15906D01*
X28516Y-16128D01*
X28516Y-16822D01*
X28294Y-16822D01*
X28294Y-16128D01*
X27957Y-16128D01*
X27877Y-15906D01*
X28294Y-15906D01*
X28294Y-13052D01*
X28294Y-13052D01*
G37*
G36*
X29019Y-03646D02*
X29769Y-04094D01*
X29658Y-04288D01*
X29252Y-04049D01*
X29242Y-07372D01*
X29019Y-07372D01*
X29019Y-03646D01*
X29019Y-03646D01*
X29019Y-03646D01*
G37*
G36*
X10229Y-03615D02*
X10270Y-03615D01*
X10310Y-03618D01*
X10350Y-03622D01*
X10388Y-03627D01*
X10426Y-03635D01*
X10464Y-03643D01*
X10501Y-03654D01*
X10537Y-03665D01*
X10572Y-03679D01*
X10607Y-03694D01*
X10641Y-03711D01*
X10675Y-03729D01*
X10707Y-03749D01*
X10739Y-03770D01*
X10771Y-03793D01*
X10802Y-03818D01*
X10832Y-03844D01*
X10861Y-03872D01*
X10891Y-03902D01*
X10919Y-03934D01*
X10946Y-03966D01*
X10970Y-03998D01*
X10992Y-04032D01*
X11013Y-04066D01*
X11032Y-04101D01*
X11049Y-04137D01*
X11064Y-04173D01*
X11078Y-04211D01*
X11090Y-04249D01*
X11099Y-04287D01*
X11107Y-04327D01*
X11114Y-04367D01*
X11118Y-04408D01*
X11121Y-04450D01*
X11122Y-04493D01*
X10900Y-04493D01*
X10898Y-04452D01*
X10895Y-04412D01*
X10889Y-04372D01*
X10881Y-04334D01*
X10871Y-04297D01*
X10858Y-04260D01*
X10843Y-04225D01*
X10826Y-04190D01*
X10806Y-04157D01*
X10785Y-04124D01*
X10760Y-04092D01*
X10734Y-04061D01*
X10705Y-04031D01*
X10674Y-04003D01*
X10643Y-03976D01*
X10610Y-03952D01*
X10576Y-03930D01*
X10542Y-03910D01*
X10506Y-03893D01*
X10469Y-03878D01*
X10432Y-03866D01*
X10393Y-03855D01*
X10354Y-03847D01*
X10313Y-03842D01*
X10272Y-03838D01*
X10229Y-03837D01*
X10187Y-03838D01*
X10145Y-03842D01*
X10105Y-03847D01*
X10065Y-03855D01*
X10026Y-03866D01*
X09989Y-03878D01*
X09952Y-03893D01*
X09916Y-03910D01*
X09882Y-03930D01*
X09848Y-03952D01*
X09816Y-03976D01*
X09784Y-04003D01*
X09754Y-04031D01*
X09725Y-04061D01*
X09698Y-04092D01*
X09673Y-04124D01*
X09651Y-04157D01*
X09631Y-04190D01*
X09613Y-04225D01*
X09598Y-04260D01*
X09585Y-04297D01*
X09575Y-04334D01*
X09566Y-04372D01*
X09560Y-04412D01*
X09557Y-04452D01*
X09556Y-04493D01*
X09557Y-04535D01*
X09560Y-04575D01*
X09566Y-04615D01*
X09575Y-04653D01*
X09585Y-04690D01*
X09598Y-04726D01*
X09613Y-04761D01*
X09631Y-04795D01*
X09651Y-04827D01*
X09673Y-04858D01*
X09698Y-04888D01*
X09725Y-04917D01*
X09754Y-04945D01*
X09784Y-04970D01*
X09816Y-04993D01*
X09848Y-05015D01*
X09882Y-05034D01*
X09916Y-05051D01*
X09952Y-05066D01*
X09989Y-05079D01*
X10026Y-05090D01*
X10065Y-05099D01*
X10105Y-05106D01*
X10145Y-05111D01*
X10187Y-05114D01*
X10229Y-05115D01*
X10229Y-05340D01*
X10188Y-05341D01*
X10146Y-05344D01*
X10106Y-05348D01*
X10066Y-05354D01*
X10027Y-05361D01*
X09989Y-05370D01*
X09951Y-05381D01*
X09914Y-05394D01*
X09877Y-05408D01*
X09842Y-05424D01*
X09806Y-05441D01*
X09772Y-05460D01*
X09738Y-05481D01*
X09705Y-05504D01*
X09673Y-05528D01*
X09641Y-05554D01*
X09610Y-05582D01*
X09580Y-05611D01*
X09551Y-05642D01*
X09523Y-05673D01*
X09497Y-05704D01*
X09472Y-05737D01*
X09450Y-05770D01*
X09428Y-05804D01*
X09409Y-05838D01*
X09391Y-05873D01*
X09375Y-05909D01*
X09360Y-05946D01*
X09348Y-05983D01*
X09337Y-06020D01*
X09327Y-06059D01*
X09319Y-06098D01*
X09313Y-06138D01*
X09309Y-06178D01*
X09307Y-06219D01*
X09306Y-06261D01*
X09307Y-06303D01*
X09309Y-06344D01*
X09313Y-06385D01*
X09319Y-06425D01*
X09327Y-06464D01*
X09337Y-06503D01*
X09348Y-06541D01*
X09360Y-06579D01*
X09375Y-06615D01*
X09391Y-06652D01*
X09409Y-06687D01*
X09428Y-06722D01*
X09450Y-06756D01*
X09472Y-06789D01*
X09497Y-06822D01*
X09523Y-06854D01*
X09551Y-06886D01*
X09580Y-06917D01*
X09610Y-06946D01*
X09641Y-06974D01*
X09673Y-07000D01*
X09705Y-07024D01*
X09738Y-07047D01*
X09772Y-07068D01*
X09806Y-07087D01*
X09842Y-07104D01*
X09877Y-07120D01*
X09914Y-07134D01*
X09951Y-07147D01*
X09989Y-07158D01*
X10027Y-07167D01*
X10066Y-07174D01*
X10106Y-07180D01*
X10146Y-07184D01*
X10188Y-07187D01*
X10229Y-07188D01*
X10271Y-07187D01*
X10313Y-07184D01*
X10353Y-07180D01*
X10393Y-07174D01*
X10432Y-07167D01*
X10471Y-07158D01*
X10509Y-07147D01*
X10546Y-07134D01*
X10582Y-07120D01*
X10618Y-07104D01*
X10653Y-07087D01*
X10687Y-07068D01*
X10721Y-07047D01*
X10754Y-07024D01*
X10786Y-07000D01*
X10817Y-06974D01*
X10848Y-06946D01*
X10879Y-06917D01*
X10908Y-06886D01*
X10935Y-06854D01*
X10961Y-06822D01*
X10985Y-06789D01*
X11008Y-06756D01*
X11029Y-06722D01*
X11048Y-06687D01*
X11066Y-06652D01*
X11081Y-06615D01*
X11096Y-06579D01*
X11108Y-06541D01*
X11119Y-06503D01*
X11128Y-06464D01*
X11136Y-06425D01*
X11142Y-06385D01*
X11146Y-06344D01*
X11149Y-06303D01*
X11150Y-06261D01*
X11382Y-06261D01*
X11382Y-06302D01*
X11380Y-06343D01*
X11377Y-06383D01*
X11372Y-06423D01*
X11366Y-06462D01*
X11360Y-06501D01*
X11351Y-06539D01*
X11342Y-06577D01*
X11331Y-06614D01*
X11319Y-06650D01*
X11306Y-06686D01*
X11292Y-06722D01*
X11276Y-06757D01*
X11259Y-06791D01*
X11241Y-06825D01*
X11221Y-06858D01*
X11200Y-06891D01*
X11178Y-06923D01*
X11155Y-06955D01*
X11130Y-06986D01*
X11104Y-07017D01*
X11077Y-07047D01*
X11049Y-07077D01*
X11019Y-07105D01*
X10989Y-07132D01*
X10959Y-07158D01*
X10927Y-07183D01*
X10896Y-07206D01*
X10863Y-07228D01*
X10831Y-07249D01*
X10797Y-07268D01*
X10763Y-07287D01*
X10729Y-07304D01*
X10694Y-07319D01*
X10659Y-07334D01*
X10623Y-07347D01*
X10586Y-07359D01*
X10549Y-07370D01*
X10511Y-07379D01*
X10473Y-07387D01*
X10434Y-07394D01*
X10395Y-07400D01*
X10355Y-07404D01*
X10315Y-07407D01*
X10274Y-07409D01*
X10233Y-07410D01*
X10192Y-07409D01*
X10151Y-07407D01*
X10111Y-07404D01*
X10072Y-07399D01*
X10032Y-07393D01*
X09994Y-07385D01*
X09955Y-07376D01*
X09917Y-07366D01*
X09880Y-07355D01*
X09843Y-07342D01*
X09806Y-07328D01*
X09770Y-07312D01*
X09734Y-07295D01*
X09699Y-07277D01*
X09663Y-07257D01*
X09629Y-07236D01*
X09595Y-07214D01*
X09562Y-07191D01*
X09530Y-07167D01*
X09499Y-07141D01*
X09469Y-07115D01*
X09440Y-07088D01*
X09412Y-07060D01*
X09385Y-07031D01*
X09359Y-07001D01*
X09334Y-06970D01*
X09310Y-06938D01*
X09287Y-06906D01*
X09264Y-06872D01*
X09243Y-06837D01*
X09223Y-06801D01*
X09205Y-06766D01*
X09187Y-06729D01*
X09171Y-06693D01*
X09157Y-06656D01*
X09144Y-06618D01*
X09132Y-06580D01*
X09121Y-06542D01*
X09112Y-06503D01*
X09105Y-06464D01*
X09098Y-06424D01*
X09093Y-06384D01*
X09090Y-06343D01*
X09088Y-06302D01*
X09087Y-06261D01*
X09088Y-06221D01*
X09090Y-06182D01*
X09093Y-06143D01*
X09097Y-06105D01*
X09103Y-06067D01*
X09110Y-06029D01*
X09118Y-05991D01*
X09128Y-05954D01*
X09138Y-05918D01*
X09151Y-05882D01*
X09164Y-05846D01*
X09179Y-05810D01*
X09194Y-05775D01*
X09212Y-05740D01*
X09230Y-05706D01*
X09250Y-05672D01*
X09271Y-05639D01*
X09293Y-05606D01*
X09316Y-05575D01*
X09340Y-05544D01*
X09365Y-05514D01*
X09390Y-05486D01*
X09417Y-05458D01*
X09444Y-05432D01*
X09472Y-05406D01*
X09501Y-05382D01*
X09531Y-05358D01*
X09561Y-05336D01*
X09593Y-05314D01*
X09625Y-05294D01*
X09657Y-05274D01*
X09691Y-05256D01*
X09725Y-05239D01*
X09761Y-05222D01*
X09725Y-05201D01*
X09692Y-05178D01*
X09659Y-05154D01*
X09628Y-05129D01*
X09598Y-05103D01*
X09570Y-05076D01*
X09543Y-05047D01*
X09517Y-05017D01*
X09493Y-04986D01*
X09470Y-04954D01*
X09448Y-04920D01*
X09430Y-04888D01*
X09413Y-04856D01*
X09398Y-04822D01*
X09384Y-04788D01*
X09372Y-04754D01*
X09362Y-04719D01*
X09353Y-04683D01*
X09346Y-04646D01*
X09341Y-04609D01*
X09337Y-04571D01*
X09334Y-04532D01*
X09334Y-04493D01*
X09334Y-04450D01*
X09337Y-04408D01*
X09342Y-04367D01*
X09348Y-04327D01*
X09356Y-04287D01*
X09366Y-04249D01*
X09378Y-04211D01*
X09392Y-04173D01*
X09407Y-04137D01*
X09425Y-04101D01*
X09444Y-04066D01*
X09465Y-04032D01*
X09488Y-03998D01*
X09512Y-03966D01*
X09539Y-03934D01*
X09567Y-03902D01*
X09597Y-03872D01*
X09627Y-03844D01*
X09657Y-03818D01*
X09688Y-03793D01*
X09719Y-03770D01*
X09751Y-03749D01*
X09784Y-03729D01*
X09818Y-03711D01*
X09852Y-03694D01*
X09887Y-03679D01*
X09922Y-03665D01*
X09958Y-03654D01*
X09995Y-03643D01*
X10032Y-03635D01*
X10070Y-03627D01*
X10109Y-03622D01*
X10149Y-03618D01*
X10189Y-03615D01*
X10229Y-03615D01*
X10229Y-03615D01*
X10229Y-03615D01*
G37*
G36*
X19684Y-03615D02*
X19723Y-03615D01*
X19762Y-03618D01*
X19800Y-03621D01*
X19838Y-03626D01*
X19876Y-03632D01*
X19913Y-03640D01*
X19950Y-03649D01*
X19986Y-03660D01*
X20022Y-03672D01*
X20057Y-03686D01*
X20092Y-03701D01*
X20127Y-03717D01*
X20161Y-03735D01*
X20195Y-03754D01*
X20229Y-03774D01*
X20261Y-03796D01*
X20293Y-03819D01*
X20324Y-03843D01*
X20355Y-03867D01*
X20384Y-03893D01*
X20412Y-03920D01*
X20439Y-03947D01*
X20466Y-03976D01*
X20491Y-04006D01*
X20516Y-04036D01*
X20540Y-04068D01*
X20562Y-04101D01*
X20584Y-04134D01*
X20605Y-04169D01*
X20624Y-04205D01*
X20642Y-04239D01*
X20658Y-04274D01*
X20673Y-04309D01*
X20687Y-04344D01*
X20700Y-04379D01*
X20711Y-04415D01*
X20722Y-04452D01*
X20731Y-04488D01*
X20740Y-04525D01*
X20747Y-04563D01*
X20753Y-04601D01*
X20758Y-04639D01*
X20762Y-04677D01*
X20765Y-04716D01*
X20766Y-04756D01*
X20767Y-04795D01*
X20545Y-04795D01*
X20544Y-04753D01*
X20542Y-04712D01*
X20538Y-04671D01*
X20533Y-04631D01*
X20527Y-04591D01*
X20519Y-04553D01*
X20510Y-04515D01*
X20500Y-04478D01*
X20488Y-04441D01*
X20475Y-04405D01*
X20460Y-04370D01*
X20444Y-04336D01*
X20426Y-04302D01*
X20407Y-04269D01*
X20387Y-04237D01*
X20365Y-04205D01*
X20342Y-04174D01*
X20317Y-04144D01*
X20291Y-04115D01*
X20261Y-04083D01*
X20229Y-04053D01*
X20197Y-04025D01*
X20165Y-03999D01*
X20131Y-03975D01*
X20097Y-03953D01*
X20062Y-03933D01*
X20027Y-03914D01*
X19991Y-03898D01*
X19954Y-03884D01*
X19916Y-03871D01*
X19878Y-03861D01*
X19839Y-03852D01*
X19799Y-03845D01*
X19759Y-03841D01*
X19718Y-03838D01*
X19677Y-03837D01*
X19636Y-03838D01*
X19595Y-03841D01*
X19556Y-03845D01*
X19517Y-03852D01*
X19479Y-03860D01*
X19441Y-03871D01*
X19404Y-03883D01*
X19368Y-03897D01*
X19333Y-03913D01*
X19298Y-03931D01*
X19265Y-03951D01*
X19231Y-03973D01*
X19199Y-03997D01*
X19167Y-04022D01*
X19136Y-04050D01*
X19106Y-04080D01*
X19076Y-04111D01*
X19050Y-04141D01*
X19026Y-04171D01*
X19002Y-04202D01*
X18981Y-04234D01*
X18960Y-04266D01*
X18941Y-04299D01*
X18924Y-04333D01*
X18908Y-04368D01*
X18893Y-04403D01*
X18880Y-04439D01*
X18868Y-04476D01*
X18857Y-04513D01*
X18848Y-04551D01*
X18840Y-04590D01*
X18834Y-04630D01*
X18829Y-04670D01*
X18825Y-04711D01*
X18823Y-04753D01*
X18822Y-04795D01*
X18823Y-04832D01*
X18826Y-04869D01*
X18831Y-04906D01*
X18838Y-04942D01*
X18847Y-04978D01*
X18858Y-05013D01*
X18870Y-05048D01*
X18885Y-05083D01*
X18902Y-05117D01*
X18920Y-05151D01*
X18940Y-05184D01*
X18962Y-05216D01*
X18984Y-05248D01*
X19008Y-05279D01*
X19033Y-05309D01*
X19059Y-05339D01*
X19086Y-05368D01*
X19114Y-05396D01*
X19144Y-05424D01*
X19174Y-05451D01*
X19206Y-05477D01*
X19239Y-05504D01*
X19268Y-05526D01*
X19297Y-05547D01*
X19326Y-05569D01*
X19357Y-05592D01*
X19387Y-05614D01*
X19418Y-05636D01*
X19450Y-05658D01*
X19482Y-05680D01*
X19514Y-05701D01*
X19547Y-05723D01*
X19581Y-05745D01*
X19614Y-05767D01*
X19649Y-05788D01*
X19681Y-05808D01*
X19712Y-05828D01*
X19744Y-05849D01*
X19776Y-05869D01*
X19808Y-05890D01*
X19840Y-05910D01*
X19872Y-05931D01*
X19904Y-05952D01*
X19936Y-05973D01*
X19968Y-05994D01*
X20000Y-06015D01*
X20033Y-06037D01*
X20065Y-06058D01*
X20097Y-06080D01*
X20131Y-06103D01*
X20165Y-06126D01*
X20198Y-06150D01*
X20231Y-06173D01*
X20264Y-06197D01*
X20296Y-06221D01*
X20327Y-06244D01*
X20358Y-06269D01*
X20389Y-06293D01*
X20419Y-06318D01*
X20449Y-06342D01*
X20478Y-06367D01*
X20506Y-06392D01*
X20534Y-06418D01*
X20562Y-06445D01*
X20588Y-06472D01*
X20614Y-06499D01*
X20639Y-06528D01*
X20663Y-06557D01*
X20686Y-06587D01*
X20708Y-06618D01*
X20730Y-06649D01*
X20751Y-06681D01*
X20771Y-06714D01*
X20790Y-06747D01*
X20809Y-06781D01*
X20825Y-06816D01*
X20841Y-06851D01*
X20855Y-06887D01*
X20868Y-06923D01*
X20880Y-06959D01*
X20890Y-06996D01*
X20899Y-07033D01*
X20906Y-07071D01*
X20912Y-07109D01*
X20917Y-07147D01*
X20920Y-07186D01*
X20922Y-07225D01*
X20923Y-07264D01*
X20923Y-07372D01*
X18493Y-07372D01*
X18493Y-07146D01*
X20701Y-07146D01*
X20695Y-07110D01*
X20688Y-07075D01*
X20679Y-07040D01*
X20668Y-07005D01*
X20656Y-06971D01*
X20643Y-06937D01*
X20628Y-06903D01*
X20611Y-06870D01*
X20593Y-06837D01*
X20574Y-06805D01*
X20554Y-06773D01*
X20533Y-06742D01*
X20510Y-06712D01*
X20487Y-06683D01*
X20463Y-06654D01*
X20438Y-06627D01*
X20412Y-06599D01*
X20385Y-06573D01*
X20359Y-06549D01*
X20333Y-06525D01*
X20306Y-06502D01*
X20278Y-06478D01*
X20250Y-06455D01*
X20221Y-06432D01*
X20192Y-06409D01*
X20162Y-06386D01*
X20131Y-06363D01*
X20100Y-06340D01*
X20068Y-06318D01*
X20036Y-06295D01*
X20003Y-06273D01*
X19970Y-06250D01*
X19937Y-06229D01*
X19904Y-06207D01*
X19871Y-06185D01*
X19837Y-06164D01*
X19804Y-06143D01*
X19770Y-06122D01*
X19736Y-06101D01*
X19703Y-06080D01*
X19669Y-06059D01*
X19635Y-06038D01*
X19601Y-06016D01*
X19568Y-05995D01*
X19534Y-05974D01*
X19500Y-05953D01*
X19467Y-05931D01*
X19434Y-05910D01*
X19400Y-05888D01*
X19367Y-05866D01*
X19335Y-05844D01*
X19303Y-05821D01*
X19271Y-05798D01*
X19240Y-05775D01*
X19209Y-05752D01*
X19178Y-05728D01*
X19148Y-05705D01*
X19118Y-05681D01*
X19088Y-05657D01*
X19059Y-05633D01*
X19031Y-05609D01*
X19004Y-05584D01*
X18977Y-05560D01*
X18951Y-05535D01*
X18926Y-05510D01*
X18901Y-05485D01*
X18877Y-05460D01*
X18854Y-05434D01*
X18829Y-05405D01*
X18805Y-05375D01*
X18783Y-05344D01*
X18762Y-05313D01*
X18742Y-05280D01*
X18723Y-05247D01*
X18705Y-05213D01*
X18689Y-05178D01*
X18673Y-05142D01*
X18659Y-05106D01*
X18646Y-05068D01*
X18635Y-05030D01*
X18626Y-04992D01*
X18618Y-04953D01*
X18612Y-04914D01*
X18607Y-04875D01*
X18605Y-04835D01*
X18604Y-04795D01*
X18604Y-04756D01*
X18606Y-04716D01*
X18609Y-04677D01*
X18613Y-04639D01*
X18618Y-04601D01*
X18624Y-04563D01*
X18631Y-04525D01*
X18639Y-04488D01*
X18649Y-04452D01*
X18659Y-04415D01*
X18671Y-04379D01*
X18684Y-04344D01*
X18698Y-04309D01*
X18713Y-04274D01*
X18729Y-04239D01*
X18746Y-04205D01*
X18765Y-04169D01*
X18786Y-04134D01*
X18807Y-04101D01*
X18830Y-04068D01*
X18853Y-04036D01*
X18877Y-04006D01*
X18902Y-03976D01*
X18929Y-03947D01*
X18956Y-03920D01*
X18984Y-03893D01*
X19013Y-03867D01*
X19043Y-03843D01*
X19074Y-03819D01*
X19106Y-03796D01*
X19138Y-03774D01*
X19172Y-03754D01*
X19206Y-03735D01*
X19240Y-03717D01*
X19275Y-03701D01*
X19310Y-03686D01*
X19346Y-03672D01*
X19382Y-03660D01*
X19418Y-03649D01*
X19455Y-03640D01*
X19492Y-03632D01*
X19529Y-03626D01*
X19567Y-03621D01*
X19606Y-03618D01*
X19644Y-03615D01*
X19684Y-03615D01*
X19684Y-03615D01*
X19684Y-03615D01*
G37*
G36*
X12795Y-29922D02*
X12795Y-30120D01*
X07677Y-30120D01*
X07616Y-30121D01*
X07556Y-30126D01*
X07497Y-30133D01*
X07439Y-30144D01*
X07381Y-30157D01*
X07325Y-30173D01*
X07270Y-30191D01*
X07217Y-30212D01*
X07164Y-30236D01*
X07114Y-30262D01*
X07064Y-30290D01*
X07016Y-30321D01*
X06970Y-30354D01*
X06925Y-30389D01*
X06883Y-30426D01*
X06842Y-30465D01*
X06803Y-30506D01*
X06766Y-30548D01*
X06731Y-30593D01*
X06698Y-30639D01*
X06667Y-30687D01*
X06639Y-30737D01*
X06613Y-30787D01*
X06589Y-30840D01*
X06568Y-30893D01*
X06550Y-30948D01*
X06534Y-31005D01*
X06521Y-31062D01*
X06510Y-31120D01*
X06503Y-31179D01*
X06498Y-31239D01*
X06497Y-31300D01*
X06497Y-36418D01*
X06498Y-36479D01*
X06503Y-36539D01*
X06510Y-36599D01*
X06521Y-36657D01*
X06534Y-36714D01*
X06550Y-36770D01*
X06568Y-36825D01*
X06589Y-36879D01*
X06613Y-36931D01*
X06639Y-36982D01*
X06667Y-37032D01*
X06698Y-37079D01*
X06731Y-37126D01*
X06766Y-37170D01*
X06803Y-37213D01*
X06842Y-37254D01*
X06883Y-37293D01*
X06925Y-37330D01*
X06970Y-37365D01*
X07016Y-37398D01*
X07064Y-37429D01*
X07114Y-37457D01*
X07164Y-37483D01*
X07217Y-37506D01*
X07270Y-37528D01*
X07325Y-37546D01*
X07381Y-37562D01*
X07439Y-37575D01*
X07497Y-37585D01*
X07556Y-37593D01*
X07616Y-37597D01*
X07677Y-37599D01*
X12795Y-37599D01*
X12856Y-37597D01*
X12916Y-37593D01*
X12976Y-37585D01*
X13034Y-37575D01*
X13091Y-37562D01*
X13147Y-37546D01*
X13202Y-37528D01*
X13256Y-37506D01*
X13308Y-37483D01*
X13359Y-37457D01*
X13409Y-37429D01*
X13456Y-37398D01*
X13503Y-37365D01*
X13547Y-37330D01*
X13590Y-37293D01*
X13631Y-37254D01*
X13670Y-37213D01*
X13707Y-37170D01*
X13742Y-37126D01*
X13775Y-37079D01*
X13806Y-37032D01*
X13834Y-36982D01*
X13860Y-36931D01*
X13883Y-36879D01*
X13905Y-36825D01*
X13923Y-36770D01*
X13939Y-36714D01*
X13952Y-36657D01*
X13962Y-36599D01*
X13970Y-36539D01*
X13974Y-36479D01*
X13976Y-36418D01*
X13976Y-31300D01*
X13974Y-31239D01*
X13970Y-31179D01*
X13962Y-31120D01*
X13952Y-31062D01*
X13939Y-31005D01*
X13923Y-30948D01*
X13905Y-30893D01*
X13883Y-30840D01*
X13860Y-30787D01*
X13834Y-30737D01*
X13806Y-30687D01*
X13775Y-30639D01*
X13742Y-30593D01*
X13707Y-30548D01*
X13670Y-30506D01*
X13631Y-30465D01*
X13590Y-30426D01*
X13547Y-30389D01*
X13503Y-30354D01*
X13456Y-30321D01*
X13409Y-30290D01*
X13359Y-30262D01*
X13308Y-30236D01*
X13256Y-30212D01*
X13202Y-30191D01*
X13147Y-30173D01*
X13091Y-30157D01*
X13034Y-30144D01*
X12976Y-30133D01*
X12916Y-30126D01*
X12856Y-30121D01*
X12795Y-30120D01*
X12795Y-30120D01*
X12795Y-29922D01*
X12866Y-29924D01*
X12937Y-29929D01*
X13006Y-29938D01*
X13074Y-29950D01*
X13141Y-29965D01*
X13206Y-29984D01*
X13270Y-30005D01*
X13333Y-30030D01*
X13394Y-30057D01*
X13453Y-30088D01*
X13511Y-30121D01*
X13567Y-30157D01*
X13621Y-30195D01*
X13673Y-30236D01*
X13723Y-30279D01*
X13771Y-30325D01*
X13816Y-30373D01*
X13860Y-30423D01*
X13901Y-30475D01*
X13939Y-30529D01*
X13975Y-30585D01*
X14008Y-30642D01*
X14038Y-30702D01*
X14066Y-30763D01*
X14090Y-30826D01*
X14112Y-30890D01*
X14131Y-30955D01*
X14146Y-31022D01*
X14158Y-31090D01*
X14167Y-31159D01*
X14172Y-31229D01*
X14174Y-31300D01*
X14174Y-36418D01*
X14172Y-36489D01*
X14167Y-36560D01*
X14158Y-36629D01*
X14146Y-36697D01*
X14131Y-36764D01*
X14112Y-36829D01*
X14090Y-36893D01*
X14066Y-36956D01*
X14038Y-37017D01*
X14008Y-37076D01*
X13975Y-37134D01*
X13939Y-37190D01*
X13901Y-37244D01*
X13860Y-37296D01*
X13816Y-37346D01*
X13771Y-37394D01*
X13723Y-37439D01*
X13673Y-37483D01*
X13621Y-37524D01*
X13567Y-37562D01*
X13511Y-37598D01*
X13453Y-37631D01*
X13394Y-37661D01*
X13333Y-37689D01*
X13270Y-37713D01*
X13206Y-37735D01*
X13141Y-37754D01*
X13074Y-37769D01*
X13006Y-37781D01*
X12937Y-37790D01*
X12866Y-37795D01*
X12795Y-37797D01*
X07677Y-37797D01*
X07606Y-37795D01*
X07536Y-37790D01*
X07467Y-37781D01*
X07399Y-37769D01*
X07332Y-37754D01*
X07267Y-37735D01*
X07202Y-37713D01*
X07140Y-37689D01*
X07079Y-37661D01*
X07019Y-37631D01*
X06962Y-37598D01*
X06906Y-37562D01*
X06852Y-37524D01*
X06800Y-37483D01*
X06750Y-37439D01*
X06702Y-37394D01*
X06656Y-37346D01*
X06613Y-37296D01*
X06572Y-37244D01*
X06534Y-37190D01*
X06498Y-37134D01*
X06465Y-37076D01*
X06434Y-37017D01*
X06407Y-36956D01*
X06382Y-36893D01*
X06361Y-36829D01*
X06342Y-36764D01*
X06327Y-36697D01*
X06315Y-36629D01*
X06306Y-36560D01*
X06301Y-36489D01*
X06299Y-36418D01*
X06299Y-31300D01*
X06301Y-31229D01*
X06306Y-31159D01*
X06315Y-31090D01*
X06327Y-31022D01*
X06342Y-30955D01*
X06361Y-30890D01*
X06382Y-30826D01*
X06407Y-30763D01*
X06434Y-30702D01*
X06465Y-30642D01*
X06498Y-30585D01*
X06534Y-30529D01*
X06572Y-30475D01*
X06613Y-30423D01*
X06656Y-30373D01*
X06702Y-30325D01*
X06750Y-30279D01*
X06800Y-30236D01*
X06852Y-30195D01*
X06906Y-30157D01*
X06962Y-30121D01*
X07019Y-30088D01*
X07079Y-30057D01*
X07140Y-30030D01*
X07202Y-30005D01*
X07267Y-29984D01*
X07332Y-29965D01*
X07399Y-29950D01*
X07467Y-29938D01*
X07536Y-29929D01*
X07606Y-29924D01*
X07677Y-29922D01*
X12795Y-29922D01*
X12795Y-29922D01*
G37*
G36*
X22246Y-20471D02*
X22317Y-20473D01*
X22387Y-20478D01*
X22456Y-20487D01*
X22524Y-20499D01*
X22591Y-20515D01*
X22657Y-20533D01*
X22721Y-20555D01*
X22783Y-20579D01*
X22845Y-20607D01*
X22904Y-20637D01*
X22962Y-20670D01*
X23018Y-20706D01*
X23072Y-20744D01*
X23124Y-20785D01*
X23174Y-20829D01*
X23222Y-20874D01*
X23267Y-20922D01*
X23310Y-20972D01*
X23351Y-21024D01*
X23390Y-21078D01*
X23425Y-21134D01*
X23459Y-21192D01*
X23489Y-21251D01*
X23516Y-21312D01*
X23541Y-21375D01*
X23563Y-21439D01*
X23581Y-21505D01*
X23597Y-21571D01*
X23609Y-21639D01*
X23617Y-21708D01*
X23623Y-21779D01*
X23624Y-21850D01*
X23624Y-26968D01*
X23623Y-27039D01*
X23617Y-27109D01*
X23609Y-27178D01*
X23597Y-27246D01*
X23581Y-27313D01*
X23563Y-27378D01*
X23541Y-27443D01*
X23516Y-27505D01*
X23489Y-27566D01*
X23459Y-27626D01*
X23425Y-27683D01*
X23390Y-27739D01*
X23351Y-27793D01*
X23310Y-27845D01*
X23158Y-27720D01*
X23193Y-27675D01*
X23226Y-27629D01*
X23256Y-27581D01*
X23285Y-27532D01*
X23311Y-27481D01*
X23334Y-27428D01*
X23355Y-27375D01*
X23374Y-27320D01*
X23390Y-27264D01*
X23403Y-27206D01*
X23413Y-27148D01*
X23420Y-27089D01*
X23425Y-27029D01*
X23427Y-26968D01*
X23427Y-21850D01*
X23425Y-21789D01*
X23420Y-21729D01*
X23413Y-21669D01*
X23403Y-21611D01*
X23390Y-21554D01*
X23374Y-21498D01*
X23355Y-21443D01*
X23334Y-21389D01*
X23311Y-21337D01*
X23285Y-21286D01*
X23256Y-21237D01*
X23226Y-21189D01*
X23193Y-21142D01*
X23158Y-21098D01*
X23121Y-21055D01*
X23082Y-21014D01*
X23041Y-20975D01*
X22998Y-20938D01*
X22953Y-20903D01*
X22907Y-20870D01*
X22859Y-20840D01*
X22810Y-20811D01*
X22759Y-20785D01*
X22707Y-20762D01*
X22653Y-20741D01*
X22598Y-20722D01*
X22542Y-20706D01*
X22485Y-20693D01*
X22426Y-20683D01*
X22367Y-20675D01*
X22307Y-20671D01*
X22246Y-20669D01*
X22246Y-20669D01*
X17128Y-20669D01*
X17067Y-20671D01*
X17007Y-20675D01*
X16948Y-20683D01*
X16889Y-20693D01*
X16832Y-20706D01*
X16776Y-20722D01*
X16721Y-20741D01*
X16667Y-20762D01*
X16615Y-20785D01*
X16564Y-20811D01*
X16515Y-20840D01*
X16467Y-20870D01*
X16421Y-20903D01*
X16376Y-20938D01*
X16333Y-20975D01*
X16292Y-21014D01*
X16253Y-21055D01*
X16216Y-21098D01*
X16181Y-21142D01*
X16148Y-21189D01*
X16118Y-21237D01*
X16089Y-21286D01*
X16063Y-21337D01*
X16040Y-21389D01*
X16019Y-21443D01*
X16000Y-21498D01*
X15984Y-21554D01*
X15971Y-21611D01*
X15961Y-21669D01*
X15953Y-21729D01*
X15949Y-21789D01*
X15947Y-21850D01*
X15947Y-26968D01*
X15949Y-27029D01*
X15953Y-27089D01*
X15961Y-27148D01*
X15971Y-27206D01*
X15984Y-27264D01*
X16000Y-27320D01*
X16019Y-27375D01*
X16040Y-27428D01*
X16063Y-27481D01*
X16089Y-27532D01*
X16118Y-27581D01*
X16148Y-27629D01*
X16181Y-27675D01*
X16216Y-27720D01*
X16253Y-27762D01*
X16292Y-27803D01*
X16333Y-27842D01*
X16376Y-27879D01*
X16421Y-27914D01*
X16467Y-27947D01*
X16515Y-27978D01*
X16564Y-28006D01*
X16615Y-28032D01*
X16667Y-28056D01*
X16721Y-28077D01*
X16776Y-28095D01*
X16832Y-28111D01*
X16889Y-28124D01*
X16948Y-28135D01*
X17007Y-28142D01*
X17067Y-28147D01*
X17128Y-28148D01*
X22246Y-28148D01*
X22307Y-28147D01*
X22367Y-28142D01*
X22426Y-28135D01*
X22485Y-28124D01*
X22542Y-28111D01*
X22598Y-28095D01*
X22653Y-28077D01*
X22707Y-28056D01*
X22759Y-28032D01*
X22810Y-28006D01*
X22859Y-27978D01*
X22907Y-27947D01*
X22953Y-27914D01*
X22998Y-27879D01*
X23041Y-27842D01*
X23082Y-27803D01*
X23121Y-27762D01*
X23158Y-27720D01*
X23310Y-27845D01*
X23267Y-27895D01*
X23222Y-27943D01*
X23174Y-27989D01*
X23124Y-28032D01*
X23072Y-28073D01*
X23018Y-28111D01*
X22962Y-28147D01*
X22904Y-28180D01*
X22845Y-28211D01*
X22783Y-28238D01*
X22721Y-28263D01*
X22657Y-28284D01*
X22591Y-28303D01*
X22524Y-28318D01*
X22456Y-28330D01*
X22387Y-28339D01*
X22317Y-28344D01*
X22246Y-28346D01*
X17128Y-28346D01*
X17057Y-28344D01*
X16987Y-28339D01*
X16918Y-28330D01*
X16850Y-28318D01*
X16783Y-28303D01*
X16717Y-28284D01*
X16653Y-28263D01*
X16591Y-28238D01*
X16529Y-28211D01*
X16470Y-28180D01*
X16412Y-28147D01*
X16356Y-28111D01*
X16302Y-28073D01*
X16250Y-28032D01*
X16200Y-27989D01*
X16152Y-27943D01*
X16107Y-27895D01*
X16064Y-27845D01*
X16023Y-27793D01*
X15984Y-27739D01*
X15949Y-27683D01*
X15915Y-27626D01*
X15885Y-27566D01*
X15858Y-27505D01*
X15833Y-27443D01*
X15811Y-27378D01*
X15793Y-27313D01*
X15777Y-27246D01*
X15765Y-27178D01*
X15757Y-27109D01*
X15751Y-27039D01*
X15749Y-26968D01*
X15749Y-21850D01*
X15751Y-21779D01*
X15757Y-21708D01*
X15765Y-21639D01*
X15777Y-21571D01*
X15793Y-21505D01*
X15811Y-21439D01*
X15833Y-21375D01*
X15858Y-21312D01*
X15885Y-21251D01*
X15915Y-21192D01*
X15949Y-21134D01*
X15984Y-21078D01*
X16023Y-21024D01*
X16064Y-20972D01*
X16107Y-20922D01*
X16152Y-20874D01*
X16200Y-20829D01*
X16250Y-20785D01*
X16302Y-20744D01*
X16356Y-20706D01*
X16412Y-20670D01*
X16470Y-20637D01*
X16529Y-20607D01*
X16591Y-20579D01*
X16653Y-20555D01*
X16717Y-20533D01*
X16783Y-20515D01*
X16850Y-20499D01*
X16918Y-20487D01*
X16987Y-20478D01*
X17057Y-20473D01*
X17128Y-20471D01*
X22246Y-20471D01*
X22246Y-20471D01*
G37*
G36*
X31693Y-20471D02*
X31764Y-20473D01*
X31834Y-20478D01*
X31903Y-20487D01*
X31971Y-20499D01*
X32038Y-20515D01*
X32104Y-20533D01*
X32168Y-20555D01*
X32230Y-20579D01*
X32292Y-20607D01*
X32351Y-20637D01*
X32409Y-20670D01*
X32465Y-20706D01*
X32519Y-20744D01*
X32571Y-20785D01*
X32621Y-20829D01*
X32668Y-20874D01*
X32714Y-20922D01*
X32757Y-20972D01*
X32798Y-21024D01*
X32837Y-21078D01*
X32872Y-21134D01*
X32906Y-21192D01*
X32936Y-21251D01*
X32963Y-21312D01*
X32988Y-21375D01*
X33010Y-21439D01*
X33028Y-21505D01*
X33044Y-21571D01*
X33056Y-21639D01*
X33064Y-21708D01*
X33070Y-21779D01*
X33071Y-21850D01*
X33071Y-26968D01*
X33070Y-27039D01*
X33064Y-27109D01*
X33056Y-27178D01*
X33044Y-27246D01*
X33028Y-27313D01*
X33010Y-27378D01*
X32988Y-27443D01*
X32963Y-27505D01*
X32936Y-27566D01*
X32906Y-27626D01*
X32872Y-27683D01*
X32837Y-27739D01*
X32798Y-27793D01*
X32757Y-27845D01*
X32605Y-27720D01*
X32640Y-27675D01*
X32673Y-27629D01*
X32703Y-27581D01*
X32732Y-27532D01*
X32758Y-27481D01*
X32781Y-27428D01*
X32802Y-27375D01*
X32821Y-27320D01*
X32837Y-27264D01*
X32850Y-27206D01*
X32860Y-27148D01*
X32867Y-27089D01*
X32872Y-27029D01*
X32874Y-26968D01*
X32874Y-21850D01*
X32872Y-21789D01*
X32867Y-21729D01*
X32860Y-21669D01*
X32850Y-21611D01*
X32837Y-21554D01*
X32821Y-21498D01*
X32802Y-21443D01*
X32781Y-21389D01*
X32758Y-21337D01*
X32732Y-21286D01*
X32703Y-21237D01*
X32673Y-21189D01*
X32640Y-21142D01*
X32605Y-21098D01*
X32568Y-21055D01*
X32529Y-21014D01*
X32488Y-20975D01*
X32445Y-20938D01*
X32400Y-20903D01*
X32354Y-20870D01*
X32306Y-20840D01*
X32257Y-20811D01*
X32206Y-20785D01*
X32153Y-20762D01*
X32100Y-20741D01*
X32045Y-20722D01*
X31989Y-20706D01*
X31932Y-20693D01*
X31873Y-20683D01*
X31814Y-20675D01*
X31754Y-20671D01*
X31693Y-20669D01*
X31693Y-20669D01*
X26575Y-20669D01*
X26514Y-20671D01*
X26454Y-20675D01*
X26395Y-20683D01*
X26336Y-20693D01*
X26279Y-20706D01*
X26223Y-20722D01*
X26168Y-20741D01*
X26114Y-20762D01*
X26062Y-20785D01*
X26011Y-20811D01*
X25962Y-20840D01*
X25914Y-20870D01*
X25868Y-20903D01*
X25823Y-20938D01*
X25780Y-20975D01*
X25739Y-21014D01*
X25700Y-21055D01*
X25663Y-21098D01*
X25628Y-21142D01*
X25595Y-21189D01*
X25565Y-21237D01*
X25536Y-21286D01*
X25510Y-21337D01*
X25487Y-21389D01*
X25466Y-21443D01*
X25447Y-21498D01*
X25431Y-21554D01*
X25418Y-21611D01*
X25408Y-21669D01*
X25400Y-21729D01*
X25396Y-21789D01*
X25394Y-21850D01*
X25394Y-26968D01*
X25396Y-27029D01*
X25400Y-27089D01*
X25408Y-27148D01*
X25418Y-27206D01*
X25431Y-27264D01*
X25447Y-27320D01*
X25466Y-27375D01*
X25487Y-27428D01*
X25510Y-27481D01*
X25536Y-27532D01*
X25565Y-27581D01*
X25595Y-27629D01*
X25628Y-27675D01*
X25663Y-27720D01*
X25700Y-27762D01*
X25739Y-27803D01*
X25780Y-27842D01*
X25823Y-27879D01*
X25868Y-27914D01*
X25914Y-27947D01*
X25962Y-27978D01*
X26011Y-28006D01*
X26062Y-28032D01*
X26114Y-28056D01*
X26168Y-28077D01*
X26223Y-28095D01*
X26279Y-28111D01*
X26336Y-28124D01*
X26395Y-28135D01*
X26454Y-28142D01*
X26514Y-28147D01*
X26575Y-28148D01*
X31693Y-28148D01*
X31754Y-28147D01*
X31814Y-28142D01*
X31873Y-28135D01*
X31932Y-28124D01*
X31989Y-28111D01*
X32045Y-28095D01*
X32100Y-28077D01*
X32153Y-28056D01*
X32206Y-28032D01*
X32257Y-28006D01*
X32306Y-27978D01*
X32354Y-27947D01*
X32400Y-27914D01*
X32445Y-27879D01*
X32488Y-27842D01*
X32529Y-27803D01*
X32568Y-27762D01*
X32605Y-27720D01*
X32757Y-27845D01*
X32714Y-27895D01*
X32668Y-27943D01*
X32621Y-27989D01*
X32571Y-28032D01*
X32519Y-28073D01*
X32465Y-28111D01*
X32409Y-28147D01*
X32351Y-28180D01*
X32292Y-28211D01*
X32230Y-28238D01*
X32168Y-28263D01*
X32104Y-28284D01*
X32038Y-28303D01*
X31971Y-28318D01*
X31903Y-28330D01*
X31834Y-28339D01*
X31764Y-28344D01*
X31693Y-28346D01*
X26575Y-28346D01*
X26504Y-28344D01*
X26434Y-28339D01*
X26365Y-28330D01*
X26297Y-28318D01*
X26230Y-28303D01*
X26164Y-28284D01*
X26100Y-28263D01*
X26037Y-28238D01*
X25976Y-28211D01*
X25917Y-28180D01*
X25859Y-28147D01*
X25803Y-28111D01*
X25749Y-28073D01*
X25697Y-28032D01*
X25647Y-27989D01*
X25599Y-27943D01*
X25554Y-27895D01*
X25511Y-27845D01*
X25470Y-27793D01*
X25431Y-27739D01*
X25396Y-27683D01*
X25362Y-27626D01*
X25332Y-27566D01*
X25304Y-27505D01*
X25280Y-27443D01*
X25258Y-27378D01*
X25240Y-27313D01*
X25224Y-27246D01*
X25212Y-27178D01*
X25204Y-27109D01*
X25198Y-27039D01*
X25196Y-26968D01*
X25196Y-21850D01*
X25198Y-21779D01*
X25204Y-21708D01*
X25212Y-21639D01*
X25224Y-21571D01*
X25240Y-21505D01*
X25258Y-21439D01*
X25280Y-21375D01*
X25304Y-21312D01*
X25332Y-21251D01*
X25362Y-21192D01*
X25396Y-21134D01*
X25431Y-21078D01*
X25470Y-21024D01*
X25511Y-20972D01*
X25554Y-20922D01*
X25599Y-20874D01*
X25647Y-20829D01*
X25697Y-20785D01*
X25749Y-20744D01*
X25803Y-20706D01*
X25859Y-20670D01*
X25917Y-20637D01*
X25976Y-20607D01*
X26037Y-20579D01*
X26100Y-20555D01*
X26164Y-20533D01*
X26230Y-20515D01*
X26297Y-20499D01*
X26365Y-20487D01*
X26434Y-20478D01*
X26504Y-20473D01*
X26575Y-20471D01*
X31693Y-20471D01*
X31693Y-20471D01*
G37*
G36*
X31693Y-11024D02*
X31693Y-11222D01*
X26575Y-11222D01*
X26514Y-11223D01*
X26454Y-11228D01*
X26395Y-11235D01*
X26336Y-11246D01*
X26279Y-11259D01*
X26223Y-11275D01*
X26168Y-11293D01*
X26114Y-11314D01*
X26062Y-11338D01*
X26011Y-11364D01*
X25962Y-11392D01*
X25914Y-11423D01*
X25868Y-11456D01*
X25823Y-11491D01*
X25780Y-11528D01*
X25739Y-11567D01*
X25700Y-11608D01*
X25663Y-11650D01*
X25628Y-11695D01*
X25595Y-11741D01*
X25565Y-11789D01*
X25536Y-11839D01*
X25510Y-11889D01*
X25487Y-11942D01*
X25466Y-11995D01*
X25447Y-12050D01*
X25431Y-12106D01*
X25418Y-12164D01*
X25408Y-12222D01*
X25400Y-12281D01*
X25396Y-12341D01*
X25394Y-12402D01*
X25394Y-17520D01*
X25396Y-17581D01*
X25400Y-17641D01*
X25408Y-17701D01*
X25418Y-17759D01*
X25431Y-17816D01*
X25447Y-17872D01*
X25466Y-17927D01*
X25487Y-17981D01*
X25510Y-18033D01*
X25536Y-18084D01*
X25565Y-18134D01*
X25595Y-18181D01*
X25628Y-18228D01*
X25663Y-18272D01*
X25700Y-18315D01*
X25739Y-18356D01*
X25780Y-18395D01*
X25823Y-18432D01*
X25868Y-18467D01*
X25914Y-18500D01*
X25962Y-18531D01*
X26011Y-18559D01*
X26062Y-18585D01*
X26114Y-18608D01*
X26168Y-18630D01*
X26223Y-18648D01*
X26279Y-18664D01*
X26336Y-18677D01*
X26395Y-18687D01*
X26454Y-18695D01*
X26514Y-18699D01*
X26575Y-18701D01*
X31693Y-18701D01*
X31754Y-18699D01*
X31814Y-18695D01*
X31873Y-18687D01*
X31932Y-18677D01*
X31989Y-18664D01*
X32045Y-18648D01*
X32100Y-18630D01*
X32153Y-18608D01*
X32206Y-18585D01*
X32257Y-18559D01*
X32306Y-18531D01*
X32354Y-18500D01*
X32400Y-18467D01*
X32445Y-18432D01*
X32488Y-18395D01*
X32529Y-18356D01*
X32568Y-18315D01*
X32605Y-18272D01*
X32640Y-18228D01*
X32673Y-18181D01*
X32703Y-18134D01*
X32732Y-18084D01*
X32758Y-18033D01*
X32781Y-17981D01*
X32802Y-17927D01*
X32821Y-17872D01*
X32837Y-17816D01*
X32850Y-17759D01*
X32860Y-17701D01*
X32867Y-17641D01*
X32872Y-17581D01*
X32874Y-17520D01*
X32874Y-12402D01*
X32872Y-12341D01*
X32867Y-12281D01*
X32860Y-12222D01*
X32850Y-12164D01*
X32837Y-12106D01*
X32821Y-12050D01*
X32802Y-11995D01*
X32781Y-11942D01*
X32758Y-11889D01*
X32732Y-11839D01*
X32703Y-11789D01*
X32673Y-11741D01*
X32640Y-11695D01*
X32605Y-11650D01*
X32568Y-11608D01*
X32529Y-11567D01*
X32488Y-11528D01*
X32445Y-11491D01*
X32400Y-11456D01*
X32354Y-11423D01*
X32306Y-11392D01*
X32257Y-11364D01*
X32206Y-11338D01*
X32153Y-11314D01*
X32100Y-11293D01*
X32045Y-11275D01*
X31989Y-11259D01*
X31932Y-11246D01*
X31873Y-11235D01*
X31814Y-11228D01*
X31754Y-11223D01*
X31693Y-11222D01*
X31693Y-11222D01*
X31693Y-11024D01*
X31764Y-11026D01*
X31834Y-11031D01*
X31903Y-11040D01*
X31971Y-11052D01*
X32038Y-11067D01*
X32104Y-11086D01*
X32168Y-11107D01*
X32230Y-11132D01*
X32292Y-11159D01*
X32351Y-11190D01*
X32409Y-11223D01*
X32465Y-11259D01*
X32519Y-11297D01*
X32571Y-11338D01*
X32621Y-11381D01*
X32668Y-11427D01*
X32714Y-11475D01*
X32757Y-11525D01*
X32798Y-11577D01*
X32837Y-11631D01*
X32872Y-11687D01*
X32906Y-11744D01*
X32936Y-11804D01*
X32963Y-11865D01*
X32988Y-11927D01*
X33010Y-11992D01*
X33028Y-12057D01*
X33044Y-12124D01*
X33056Y-12192D01*
X33064Y-12261D01*
X33070Y-12331D01*
X33071Y-12402D01*
X33071Y-17520D01*
X33070Y-17591D01*
X33064Y-17662D01*
X33056Y-17731D01*
X33044Y-17799D01*
X33028Y-17866D01*
X33010Y-17931D01*
X32988Y-17995D01*
X32963Y-18058D01*
X32936Y-18119D01*
X32906Y-18178D01*
X32872Y-18236D01*
X32837Y-18292D01*
X32798Y-18346D01*
X32757Y-18398D01*
X32714Y-18448D01*
X32668Y-18496D01*
X32621Y-18541D01*
X32571Y-18585D01*
X32519Y-18626D01*
X32465Y-18664D01*
X32409Y-18700D01*
X32351Y-18733D01*
X32292Y-18763D01*
X32230Y-18791D01*
X32168Y-18815D01*
X32104Y-18837D01*
X32038Y-18856D01*
X31971Y-18871D01*
X31903Y-18883D01*
X31834Y-18892D01*
X31764Y-18897D01*
X31693Y-18899D01*
X26575Y-18899D01*
X26504Y-18897D01*
X26434Y-18892D01*
X26365Y-18883D01*
X26297Y-18871D01*
X26230Y-18856D01*
X26164Y-18837D01*
X26100Y-18815D01*
X26037Y-18791D01*
X25976Y-18763D01*
X25917Y-18733D01*
X25859Y-18700D01*
X25803Y-18664D01*
X25749Y-18626D01*
X25697Y-18585D01*
X25647Y-18541D01*
X25599Y-18496D01*
X25554Y-18448D01*
X25511Y-18398D01*
X25470Y-18346D01*
X25431Y-18292D01*
X25396Y-18236D01*
X25362Y-18178D01*
X25332Y-18119D01*
X25304Y-18058D01*
X25280Y-17995D01*
X25258Y-17931D01*
X25240Y-17866D01*
X25224Y-17799D01*
X25212Y-17731D01*
X25204Y-17662D01*
X25198Y-17591D01*
X25196Y-17520D01*
X25196Y-12402D01*
X25198Y-12331D01*
X25204Y-12261D01*
X25212Y-12192D01*
X25224Y-12124D01*
X25240Y-12057D01*
X25258Y-11992D01*
X25280Y-11927D01*
X25304Y-11865D01*
X25332Y-11804D01*
X25362Y-11744D01*
X25396Y-11687D01*
X25431Y-11631D01*
X25470Y-11577D01*
X25511Y-11525D01*
X25554Y-11475D01*
X25599Y-11427D01*
X25647Y-11381D01*
X25697Y-11338D01*
X25749Y-11297D01*
X25803Y-11259D01*
X25859Y-11223D01*
X25917Y-11190D01*
X25976Y-11159D01*
X26037Y-11132D01*
X26100Y-11107D01*
X26164Y-11086D01*
X26230Y-11067D01*
X26297Y-11052D01*
X26365Y-11040D01*
X26434Y-11031D01*
X26504Y-11026D01*
X26575Y-11024D01*
X31693Y-11024D01*
X31693Y-11024D01*
G37*
G36*
X12795Y-11024D02*
X12795Y-11222D01*
X07677Y-11222D01*
X07616Y-11223D01*
X07556Y-11228D01*
X07497Y-11235D01*
X07439Y-11246D01*
X07381Y-11259D01*
X07325Y-11275D01*
X07270Y-11293D01*
X07217Y-11314D01*
X07164Y-11338D01*
X07114Y-11364D01*
X07064Y-11392D01*
X07016Y-11423D01*
X06970Y-11456D01*
X06925Y-11491D01*
X06883Y-11528D01*
X06842Y-11567D01*
X06803Y-11608D01*
X06766Y-11650D01*
X06731Y-11695D01*
X06698Y-11741D01*
X06667Y-11789D01*
X06639Y-11839D01*
X06613Y-11889D01*
X06589Y-11942D01*
X06568Y-11995D01*
X06550Y-12050D01*
X06534Y-12106D01*
X06521Y-12164D01*
X06510Y-12222D01*
X06503Y-12281D01*
X06498Y-12341D01*
X06497Y-12402D01*
X06497Y-17520D01*
X06498Y-17581D01*
X06503Y-17641D01*
X06510Y-17701D01*
X06521Y-17759D01*
X06534Y-17816D01*
X06550Y-17872D01*
X06568Y-17927D01*
X06589Y-17981D01*
X06613Y-18033D01*
X06639Y-18084D01*
X06667Y-18134D01*
X06698Y-18181D01*
X06731Y-18228D01*
X06766Y-18272D01*
X06803Y-18315D01*
X06842Y-18356D01*
X06883Y-18395D01*
X06925Y-18432D01*
X06970Y-18467D01*
X07016Y-18500D01*
X07064Y-18531D01*
X07114Y-18559D01*
X07164Y-18585D01*
X07217Y-18608D01*
X07270Y-18630D01*
X07325Y-18648D01*
X07381Y-18664D01*
X07439Y-18677D01*
X07497Y-18687D01*
X07556Y-18695D01*
X07616Y-18699D01*
X07677Y-18701D01*
X12795Y-18701D01*
X12856Y-18699D01*
X12916Y-18695D01*
X12976Y-18687D01*
X13034Y-18677D01*
X13091Y-18664D01*
X13147Y-18648D01*
X13202Y-18630D01*
X13256Y-18608D01*
X13308Y-18585D01*
X13359Y-18559D01*
X13409Y-18531D01*
X13456Y-18500D01*
X13503Y-18467D01*
X13547Y-18432D01*
X13590Y-18395D01*
X13631Y-18356D01*
X13670Y-18315D01*
X13707Y-18272D01*
X13742Y-18228D01*
X13775Y-18181D01*
X13806Y-18134D01*
X13834Y-18084D01*
X13860Y-18033D01*
X13883Y-17981D01*
X13905Y-17927D01*
X13923Y-17872D01*
X13939Y-17816D01*
X13952Y-17759D01*
X13962Y-17701D01*
X13970Y-17641D01*
X13974Y-17581D01*
X13976Y-17520D01*
X13976Y-12402D01*
X13974Y-12341D01*
X13970Y-12281D01*
X13962Y-12222D01*
X13952Y-12164D01*
X13939Y-12106D01*
X13923Y-12050D01*
X13905Y-11995D01*
X13883Y-11942D01*
X13860Y-11889D01*
X13834Y-11839D01*
X13806Y-11789D01*
X13775Y-11741D01*
X13742Y-11695D01*
X13707Y-11650D01*
X13670Y-11608D01*
X13631Y-11567D01*
X13590Y-11528D01*
X13547Y-11491D01*
X13503Y-11456D01*
X13456Y-11423D01*
X13409Y-11392D01*
X13359Y-11364D01*
X13308Y-11338D01*
X13256Y-11314D01*
X13202Y-11293D01*
X13147Y-11275D01*
X13091Y-11259D01*
X13034Y-11246D01*
X12976Y-11235D01*
X12916Y-11228D01*
X12856Y-11223D01*
X12795Y-11222D01*
X12795Y-11222D01*
X12795Y-11024D01*
X12866Y-11026D01*
X12937Y-11031D01*
X13006Y-11040D01*
X13074Y-11052D01*
X13141Y-11067D01*
X13206Y-11086D01*
X13270Y-11107D01*
X13333Y-11132D01*
X13394Y-11159D01*
X13453Y-11190D01*
X13511Y-11223D01*
X13567Y-11259D01*
X13621Y-11297D01*
X13673Y-11338D01*
X13723Y-11381D01*
X13771Y-11427D01*
X13816Y-11475D01*
X13860Y-11525D01*
X13901Y-11577D01*
X13939Y-11631D01*
X13975Y-11687D01*
X14008Y-11744D01*
X14038Y-11804D01*
X14066Y-11865D01*
X14090Y-11927D01*
X14112Y-11992D01*
X14131Y-12057D01*
X14146Y-12124D01*
X14158Y-12192D01*
X14167Y-12261D01*
X14172Y-12331D01*
X14174Y-12402D01*
X14174Y-17520D01*
X14172Y-17591D01*
X14167Y-17662D01*
X14158Y-17731D01*
X14146Y-17799D01*
X14131Y-17866D01*
X14112Y-17931D01*
X14090Y-17995D01*
X14066Y-18058D01*
X14038Y-18119D01*
X14008Y-18178D01*
X13975Y-18236D01*
X13939Y-18292D01*
X13901Y-18346D01*
X13860Y-18398D01*
X13816Y-18448D01*
X13771Y-18496D01*
X13723Y-18541D01*
X13673Y-18585D01*
X13621Y-18626D01*
X13567Y-18664D01*
X13511Y-18700D01*
X13453Y-18733D01*
X13394Y-18763D01*
X13333Y-18791D01*
X13270Y-18815D01*
X13206Y-18837D01*
X13141Y-18856D01*
X13074Y-18871D01*
X13006Y-18883D01*
X12937Y-18892D01*
X12866Y-18897D01*
X12795Y-18899D01*
X07677Y-18899D01*
X07606Y-18897D01*
X07536Y-18892D01*
X07467Y-18883D01*
X07399Y-18871D01*
X07332Y-18856D01*
X07267Y-18837D01*
X07202Y-18815D01*
X07140Y-18791D01*
X07079Y-18763D01*
X07019Y-18733D01*
X06962Y-18700D01*
X06906Y-18664D01*
X06852Y-18626D01*
X06800Y-18585D01*
X06750Y-18541D01*
X06702Y-18496D01*
X06656Y-18448D01*
X06613Y-18398D01*
X06572Y-18346D01*
X06534Y-18292D01*
X06498Y-18236D01*
X06465Y-18178D01*
X06434Y-18119D01*
X06407Y-18058D01*
X06382Y-17995D01*
X06361Y-17931D01*
X06342Y-17866D01*
X06327Y-17799D01*
X06315Y-17731D01*
X06306Y-17662D01*
X06301Y-17591D01*
X06299Y-17520D01*
X06299Y-12402D01*
X06301Y-12331D01*
X06306Y-12261D01*
X06315Y-12192D01*
X06327Y-12124D01*
X06342Y-12057D01*
X06361Y-11992D01*
X06382Y-11927D01*
X06407Y-11865D01*
X06434Y-11804D01*
X06465Y-11744D01*
X06498Y-11687D01*
X06534Y-11631D01*
X06572Y-11577D01*
X06613Y-11525D01*
X06656Y-11475D01*
X06702Y-11427D01*
X06750Y-11381D01*
X06800Y-11338D01*
X06852Y-11297D01*
X06906Y-11259D01*
X06962Y-11223D01*
X07019Y-11190D01*
X07079Y-11159D01*
X07140Y-11132D01*
X07202Y-11107D01*
X07267Y-11086D01*
X07332Y-11067D01*
X07399Y-11052D01*
X07467Y-11040D01*
X07536Y-11031D01*
X07606Y-11026D01*
X07677Y-11024D01*
X12795Y-11024D01*
X12795Y-11024D01*
G37*
G36*
X12795Y-01573D02*
X12795Y-01771D01*
X07677Y-01771D01*
X07616Y-01772D01*
X07556Y-01777D01*
X07497Y-01784D01*
X07439Y-01795D01*
X07381Y-01808D01*
X07325Y-01824D01*
X07270Y-01842D01*
X07217Y-01863D01*
X07164Y-01887D01*
X07114Y-01913D01*
X07064Y-01941D01*
X07016Y-01972D01*
X06970Y-02005D01*
X06925Y-02040D01*
X06883Y-02077D01*
X06842Y-02116D01*
X06803Y-02157D01*
X06766Y-02200D01*
X06731Y-02244D01*
X06698Y-02290D01*
X06667Y-02338D01*
X06639Y-02388D01*
X06613Y-02439D01*
X06589Y-02491D01*
X06568Y-02545D01*
X06550Y-02600D01*
X06534Y-02656D01*
X06521Y-02713D01*
X06510Y-02771D01*
X06503Y-02830D01*
X06498Y-02891D01*
X06497Y-02952D01*
X06497Y-08070D01*
X06498Y-08131D01*
X06503Y-08191D01*
X06510Y-08250D01*
X06521Y-08308D01*
X06534Y-08365D01*
X06550Y-08421D01*
X06568Y-08476D01*
X06589Y-08530D01*
X06613Y-08582D01*
X06639Y-08633D01*
X06667Y-08683D01*
X06698Y-08731D01*
X06731Y-08777D01*
X06766Y-08821D01*
X06803Y-08864D01*
X06842Y-08905D01*
X06883Y-08944D01*
X06925Y-08981D01*
X06970Y-09016D01*
X07016Y-09049D01*
X07064Y-09080D01*
X07114Y-09108D01*
X07164Y-09134D01*
X07217Y-09158D01*
X07270Y-09179D01*
X07325Y-09197D01*
X07381Y-09213D01*
X07439Y-09226D01*
X07497Y-09237D01*
X07556Y-09244D01*
X07616Y-09249D01*
X07677Y-09250D01*
X12795Y-09250D01*
X12856Y-09249D01*
X12916Y-09244D01*
X12976Y-09237D01*
X13034Y-09226D01*
X13091Y-09213D01*
X13147Y-09197D01*
X13202Y-09179D01*
X13256Y-09158D01*
X13308Y-09134D01*
X13359Y-09108D01*
X13409Y-09080D01*
X13456Y-09049D01*
X13503Y-09016D01*
X13547Y-08981D01*
X13590Y-08944D01*
X13631Y-08905D01*
X13670Y-08864D01*
X13707Y-08821D01*
X13742Y-08777D01*
X13775Y-08731D01*
X13806Y-08683D01*
X13834Y-08633D01*
X13860Y-08582D01*
X13883Y-08530D01*
X13905Y-08476D01*
X13923Y-08421D01*
X13939Y-08365D01*
X13952Y-08308D01*
X13962Y-08250D01*
X13970Y-08191D01*
X13974Y-08131D01*
X13976Y-08070D01*
X13976Y-02952D01*
X13974Y-02891D01*
X13970Y-02830D01*
X13962Y-02771D01*
X13952Y-02713D01*
X13939Y-02656D01*
X13923Y-02600D01*
X13905Y-02545D01*
X13883Y-02491D01*
X13860Y-02439D01*
X13834Y-02388D01*
X13806Y-02338D01*
X13775Y-02290D01*
X13742Y-02244D01*
X13707Y-02200D01*
X13670Y-02157D01*
X13631Y-02116D01*
X13590Y-02077D01*
X13547Y-02040D01*
X13503Y-02005D01*
X13456Y-01972D01*
X13409Y-01941D01*
X13359Y-01913D01*
X13308Y-01887D01*
X13256Y-01863D01*
X13202Y-01842D01*
X13147Y-01824D01*
X13091Y-01808D01*
X13034Y-01795D01*
X12976Y-01784D01*
X12916Y-01777D01*
X12856Y-01772D01*
X12795Y-01771D01*
X12795Y-01771D01*
X12795Y-01573D01*
X12866Y-01575D01*
X12937Y-01580D01*
X13006Y-01589D01*
X13074Y-01601D01*
X13141Y-01616D01*
X13206Y-01635D01*
X13270Y-01656D01*
X13333Y-01681D01*
X13394Y-01709D01*
X13453Y-01739D01*
X13511Y-01772D01*
X13567Y-01808D01*
X13621Y-01846D01*
X13673Y-01887D01*
X13723Y-01930D01*
X13771Y-01976D01*
X13816Y-02024D01*
X13860Y-02074D01*
X13901Y-02126D01*
X13939Y-02180D01*
X13975Y-02236D01*
X14008Y-02294D01*
X14038Y-02353D01*
X14066Y-02414D01*
X14090Y-02477D01*
X14112Y-02541D01*
X14131Y-02606D01*
X14146Y-02673D01*
X14158Y-02741D01*
X14167Y-02810D01*
X14172Y-02880D01*
X14174Y-02952D01*
X14174Y-08070D01*
X14172Y-08141D01*
X14167Y-08211D01*
X14158Y-08280D01*
X14146Y-08348D01*
X14131Y-08415D01*
X14112Y-08480D01*
X14090Y-08544D01*
X14066Y-08607D01*
X14038Y-08668D01*
X14008Y-08728D01*
X13975Y-08785D01*
X13939Y-08841D01*
X13901Y-08895D01*
X13860Y-08947D01*
X13816Y-08997D01*
X13771Y-09045D01*
X13723Y-09091D01*
X13673Y-09134D01*
X13621Y-09175D01*
X13567Y-09213D01*
X13511Y-09249D01*
X13453Y-09282D01*
X13394Y-09312D01*
X13333Y-09340D01*
X13270Y-09365D01*
X13206Y-09386D01*
X13141Y-09405D01*
X13074Y-09420D01*
X13006Y-09432D01*
X12937Y-09441D01*
X12866Y-09446D01*
X12795Y-09448D01*
X07677Y-09448D01*
X07606Y-09446D01*
X07536Y-09441D01*
X07467Y-09432D01*
X07399Y-09420D01*
X07332Y-09405D01*
X07267Y-09386D01*
X07202Y-09365D01*
X07140Y-09340D01*
X07079Y-09312D01*
X07019Y-09282D01*
X06962Y-09249D01*
X06906Y-09213D01*
X06852Y-09175D01*
X06800Y-09134D01*
X06750Y-09091D01*
X06702Y-09045D01*
X06656Y-08997D01*
X06613Y-08947D01*
X06572Y-08895D01*
X06534Y-08841D01*
X06498Y-08785D01*
X06465Y-08728D01*
X06434Y-08668D01*
X06407Y-08607D01*
X06382Y-08544D01*
X06361Y-08480D01*
X06342Y-08415D01*
X06327Y-08348D01*
X06315Y-08280D01*
X06306Y-08211D01*
X06301Y-08141D01*
X06299Y-08070D01*
X06299Y-02952D01*
X06301Y-02880D01*
X06306Y-02810D01*
X06315Y-02741D01*
X06327Y-02673D01*
X06342Y-02606D01*
X06361Y-02541D01*
X06382Y-02477D01*
X06407Y-02414D01*
X06434Y-02353D01*
X06465Y-02294D01*
X06498Y-02236D01*
X06534Y-02180D01*
X06572Y-02126D01*
X06613Y-02074D01*
X06656Y-02024D01*
X06702Y-01976D01*
X06750Y-01930D01*
X06800Y-01887D01*
X06852Y-01846D01*
X06906Y-01808D01*
X06962Y-01772D01*
X07019Y-01739D01*
X07079Y-01709D01*
X07140Y-01681D01*
X07202Y-01656D01*
X07267Y-01635D01*
X07332Y-01616D01*
X07399Y-01601D01*
X07467Y-01589D01*
X07536Y-01580D01*
X07606Y-01575D01*
X07677Y-01573D01*
X12795Y-01573D01*
X12795Y-01573D01*
G37*
G36*
X22246Y-01573D02*
X22246Y-01771D01*
X17128Y-01771D01*
X17067Y-01772D01*
X17007Y-01777D01*
X16948Y-01784D01*
X16889Y-01795D01*
X16832Y-01808D01*
X16776Y-01824D01*
X16721Y-01842D01*
X16667Y-01863D01*
X16615Y-01887D01*
X16564Y-01913D01*
X16515Y-01941D01*
X16467Y-01972D01*
X16421Y-02005D01*
X16376Y-02040D01*
X16333Y-02077D01*
X16292Y-02116D01*
X16253Y-02157D01*
X16216Y-02200D01*
X16181Y-02244D01*
X16148Y-02290D01*
X16118Y-02338D01*
X16089Y-02388D01*
X16063Y-02439D01*
X16040Y-02491D01*
X16019Y-02545D01*
X16000Y-02600D01*
X15984Y-02656D01*
X15971Y-02713D01*
X15961Y-02771D01*
X15953Y-02830D01*
X15949Y-02891D01*
X15947Y-02952D01*
X15947Y-08070D01*
X15949Y-08131D01*
X15953Y-08191D01*
X15961Y-08250D01*
X15971Y-08308D01*
X15984Y-08365D01*
X16000Y-08421D01*
X16019Y-08476D01*
X16040Y-08530D01*
X16063Y-08582D01*
X16089Y-08633D01*
X16118Y-08683D01*
X16148Y-08731D01*
X16181Y-08777D01*
X16216Y-08821D01*
X16253Y-08864D01*
X16292Y-08905D01*
X16333Y-08944D01*
X16376Y-08981D01*
X16421Y-09016D01*
X16467Y-09049D01*
X16515Y-09080D01*
X16564Y-09108D01*
X16615Y-09134D01*
X16667Y-09158D01*
X16721Y-09179D01*
X16776Y-09197D01*
X16832Y-09213D01*
X16889Y-09226D01*
X16948Y-09237D01*
X17007Y-09244D01*
X17067Y-09249D01*
X17128Y-09250D01*
X22246Y-09250D01*
X22307Y-09249D01*
X22367Y-09244D01*
X22426Y-09237D01*
X22485Y-09226D01*
X22542Y-09213D01*
X22598Y-09197D01*
X22653Y-09179D01*
X22707Y-09158D01*
X22759Y-09134D01*
X22810Y-09108D01*
X22859Y-09080D01*
X22907Y-09049D01*
X22953Y-09016D01*
X22998Y-08981D01*
X23041Y-08944D01*
X23082Y-08905D01*
X23121Y-08864D01*
X23158Y-08821D01*
X23193Y-08777D01*
X23226Y-08731D01*
X23256Y-08683D01*
X23285Y-08633D01*
X23311Y-08582D01*
X23334Y-08530D01*
X23355Y-08476D01*
X23374Y-08421D01*
X23390Y-08365D01*
X23403Y-08308D01*
X23413Y-08250D01*
X23420Y-08191D01*
X23425Y-08131D01*
X23427Y-08070D01*
X23427Y-02952D01*
X23425Y-02891D01*
X23420Y-02830D01*
X23413Y-02771D01*
X23403Y-02713D01*
X23390Y-02656D01*
X23374Y-02600D01*
X23355Y-02545D01*
X23334Y-02491D01*
X23311Y-02439D01*
X23285Y-02388D01*
X23256Y-02338D01*
X23226Y-02290D01*
X23193Y-02244D01*
X23158Y-02200D01*
X23121Y-02157D01*
X23082Y-02116D01*
X23041Y-02077D01*
X22998Y-02040D01*
X22953Y-02005D01*
X22907Y-01972D01*
X22859Y-01941D01*
X22810Y-01913D01*
X22759Y-01887D01*
X22707Y-01863D01*
X22653Y-01842D01*
X22598Y-01824D01*
X22542Y-01808D01*
X22485Y-01795D01*
X22426Y-01784D01*
X22367Y-01777D01*
X22307Y-01772D01*
X22246Y-01771D01*
X22246Y-01771D01*
X22246Y-01573D01*
X22317Y-01575D01*
X22387Y-01580D01*
X22456Y-01589D01*
X22524Y-01601D01*
X22591Y-01616D01*
X22657Y-01635D01*
X22721Y-01656D01*
X22783Y-01681D01*
X22845Y-01709D01*
X22904Y-01739D01*
X22962Y-01772D01*
X23018Y-01808D01*
X23072Y-01846D01*
X23124Y-01887D01*
X23174Y-01930D01*
X23222Y-01976D01*
X23267Y-02024D01*
X23310Y-02074D01*
X23351Y-02126D01*
X23390Y-02180D01*
X23425Y-02236D01*
X23459Y-02294D01*
X23489Y-02353D01*
X23516Y-02414D01*
X23541Y-02477D01*
X23563Y-02541D01*
X23581Y-02606D01*
X23597Y-02673D01*
X23609Y-02741D01*
X23617Y-02810D01*
X23623Y-02880D01*
X23624Y-02952D01*
X23624Y-08070D01*
X23623Y-08141D01*
X23617Y-08211D01*
X23609Y-08280D01*
X23597Y-08348D01*
X23581Y-08415D01*
X23563Y-08480D01*
X23541Y-08544D01*
X23516Y-08607D01*
X23489Y-08668D01*
X23459Y-08728D01*
X23425Y-08785D01*
X23390Y-08841D01*
X23351Y-08895D01*
X23310Y-08947D01*
X23267Y-08997D01*
X23222Y-09045D01*
X23174Y-09091D01*
X23124Y-09134D01*
X23072Y-09175D01*
X23018Y-09213D01*
X22962Y-09249D01*
X22904Y-09282D01*
X22845Y-09312D01*
X22783Y-09340D01*
X22721Y-09365D01*
X22657Y-09386D01*
X22591Y-09405D01*
X22524Y-09420D01*
X22456Y-09432D01*
X22387Y-09441D01*
X22317Y-09446D01*
X22246Y-09448D01*
X17128Y-09448D01*
X17057Y-09446D01*
X16987Y-09441D01*
X16918Y-09432D01*
X16850Y-09420D01*
X16783Y-09405D01*
X16717Y-09386D01*
X16653Y-09365D01*
X16591Y-09340D01*
X16529Y-09312D01*
X16470Y-09282D01*
X16412Y-09249D01*
X16356Y-09213D01*
X16302Y-09175D01*
X16250Y-09134D01*
X16200Y-09091D01*
X16152Y-09045D01*
X16107Y-08997D01*
X16064Y-08947D01*
X16023Y-08895D01*
X15984Y-08841D01*
X15949Y-08785D01*
X15915Y-08728D01*
X15885Y-08668D01*
X15858Y-08607D01*
X15833Y-08544D01*
X15811Y-08480D01*
X15793Y-08415D01*
X15777Y-08348D01*
X15765Y-08280D01*
X15757Y-08211D01*
X15751Y-08141D01*
X15749Y-08070D01*
X15749Y-02952D01*
X15751Y-02880D01*
X15757Y-02810D01*
X15765Y-02741D01*
X15777Y-02673D01*
X15793Y-02606D01*
X15811Y-02541D01*
X15833Y-02477D01*
X15858Y-02414D01*
X15885Y-02353D01*
X15915Y-02294D01*
X15949Y-02236D01*
X15984Y-02180D01*
X16023Y-02126D01*
X16064Y-02074D01*
X16107Y-02024D01*
X16152Y-01976D01*
X16200Y-01930D01*
X16250Y-01887D01*
X16302Y-01846D01*
X16356Y-01808D01*
X16412Y-01772D01*
X16470Y-01739D01*
X16529Y-01709D01*
X16591Y-01681D01*
X16653Y-01656D01*
X16717Y-01635D01*
X16783Y-01616D01*
X16850Y-01601D01*
X16918Y-01589D01*
X16987Y-01580D01*
X17057Y-01575D01*
X17128Y-01573D01*
X22246Y-01573D01*
X22246Y-01573D01*
G37*
G36*
X31693Y-01573D02*
X31693Y-01771D01*
X26575Y-01771D01*
X26514Y-01772D01*
X26454Y-01777D01*
X26395Y-01784D01*
X26336Y-01795D01*
X26279Y-01808D01*
X26223Y-01824D01*
X26168Y-01842D01*
X26114Y-01863D01*
X26062Y-01887D01*
X26011Y-01913D01*
X25962Y-01941D01*
X25914Y-01972D01*
X25868Y-02005D01*
X25823Y-02040D01*
X25780Y-02077D01*
X25739Y-02116D01*
X25700Y-02157D01*
X25663Y-02200D01*
X25628Y-02244D01*
X25595Y-02290D01*
X25565Y-02338D01*
X25536Y-02388D01*
X25510Y-02439D01*
X25487Y-02491D01*
X25466Y-02545D01*
X25447Y-02600D01*
X25431Y-02656D01*
X25418Y-02713D01*
X25408Y-02771D01*
X25400Y-02830D01*
X25396Y-02891D01*
X25394Y-02952D01*
X25394Y-08070D01*
X25396Y-08131D01*
X25400Y-08191D01*
X25408Y-08250D01*
X25418Y-08308D01*
X25431Y-08365D01*
X25447Y-08421D01*
X25466Y-08476D01*
X25487Y-08530D01*
X25510Y-08582D01*
X25536Y-08633D01*
X25565Y-08683D01*
X25595Y-08731D01*
X25628Y-08777D01*
X25663Y-08821D01*
X25700Y-08864D01*
X25739Y-08905D01*
X25780Y-08944D01*
X25823Y-08981D01*
X25868Y-09016D01*
X25914Y-09049D01*
X25962Y-09080D01*
X26011Y-09108D01*
X26062Y-09134D01*
X26114Y-09158D01*
X26168Y-09179D01*
X26223Y-09197D01*
X26279Y-09213D01*
X26336Y-09226D01*
X26395Y-09237D01*
X26454Y-09244D01*
X26514Y-09249D01*
X26575Y-09250D01*
X31693Y-09250D01*
X31754Y-09249D01*
X31814Y-09244D01*
X31873Y-09237D01*
X31932Y-09226D01*
X31989Y-09213D01*
X32045Y-09197D01*
X32100Y-09179D01*
X32153Y-09158D01*
X32206Y-09134D01*
X32257Y-09108D01*
X32306Y-09080D01*
X32354Y-09049D01*
X32400Y-09016D01*
X32445Y-08981D01*
X32488Y-08944D01*
X32529Y-08905D01*
X32568Y-08864D01*
X32605Y-08821D01*
X32640Y-08777D01*
X32673Y-08731D01*
X32703Y-08683D01*
X32732Y-08633D01*
X32758Y-08582D01*
X32781Y-08530D01*
X32802Y-08476D01*
X32821Y-08421D01*
X32837Y-08365D01*
X32850Y-08308D01*
X32860Y-08250D01*
X32867Y-08191D01*
X32872Y-08131D01*
X32874Y-08070D01*
X32874Y-02952D01*
X32872Y-02891D01*
X32867Y-02830D01*
X32860Y-02771D01*
X32850Y-02713D01*
X32837Y-02656D01*
X32821Y-02600D01*
X32802Y-02545D01*
X32781Y-02491D01*
X32758Y-02439D01*
X32732Y-02388D01*
X32703Y-02338D01*
X32673Y-02290D01*
X32640Y-02244D01*
X32605Y-02200D01*
X32568Y-02157D01*
X32529Y-02116D01*
X32488Y-02077D01*
X32445Y-02040D01*
X32400Y-02005D01*
X32354Y-01972D01*
X32306Y-01941D01*
X32257Y-01913D01*
X32206Y-01887D01*
X32153Y-01863D01*
X32100Y-01842D01*
X32045Y-01824D01*
X31989Y-01808D01*
X31932Y-01795D01*
X31873Y-01784D01*
X31814Y-01777D01*
X31754Y-01772D01*
X31693Y-01771D01*
X31693Y-01771D01*
X31693Y-01573D01*
X31764Y-01575D01*
X31834Y-01580D01*
X31903Y-01589D01*
X31971Y-01601D01*
X32038Y-01616D01*
X32104Y-01635D01*
X32168Y-01656D01*
X32230Y-01681D01*
X32292Y-01709D01*
X32351Y-01739D01*
X32409Y-01772D01*
X32465Y-01808D01*
X32519Y-01846D01*
X32571Y-01887D01*
X32621Y-01930D01*
X32668Y-01976D01*
X32714Y-02024D01*
X32757Y-02074D01*
X32798Y-02126D01*
X32837Y-02180D01*
X32872Y-02236D01*
X32906Y-02294D01*
X32936Y-02353D01*
X32963Y-02414D01*
X32988Y-02477D01*
X33010Y-02541D01*
X33028Y-02606D01*
X33044Y-02673D01*
X33056Y-02741D01*
X33064Y-02810D01*
X33070Y-02880D01*
X33071Y-02952D01*
X33071Y-08070D01*
X33070Y-08141D01*
X33064Y-08211D01*
X33056Y-08280D01*
X33044Y-08348D01*
X33028Y-08415D01*
X33010Y-08480D01*
X32988Y-08544D01*
X32963Y-08607D01*
X32936Y-08668D01*
X32906Y-08728D01*
X32872Y-08785D01*
X32837Y-08841D01*
X32798Y-08895D01*
X32757Y-08947D01*
X32714Y-08997D01*
X32668Y-09045D01*
X32621Y-09091D01*
X32571Y-09134D01*
X32519Y-09175D01*
X32465Y-09213D01*
X32409Y-09249D01*
X32351Y-09282D01*
X32292Y-09312D01*
X32230Y-09340D01*
X32168Y-09365D01*
X32104Y-09386D01*
X32038Y-09405D01*
X31971Y-09420D01*
X31903Y-09432D01*
X31834Y-09441D01*
X31764Y-09446D01*
X31693Y-09448D01*
X26575Y-09448D01*
X26504Y-09446D01*
X26434Y-09441D01*
X26365Y-09432D01*
X26297Y-09420D01*
X26230Y-09405D01*
X26164Y-09386D01*
X26100Y-09365D01*
X26037Y-09340D01*
X25976Y-09312D01*
X25917Y-09282D01*
X25859Y-09249D01*
X25803Y-09213D01*
X25749Y-09175D01*
X25697Y-09134D01*
X25647Y-09091D01*
X25599Y-09045D01*
X25554Y-08997D01*
X25511Y-08947D01*
X25470Y-08895D01*
X25431Y-08841D01*
X25396Y-08785D01*
X25362Y-08728D01*
X25332Y-08668D01*
X25304Y-08607D01*
X25280Y-08544D01*
X25258Y-08480D01*
X25240Y-08415D01*
X25224Y-08348D01*
X25212Y-08280D01*
X25204Y-08211D01*
X25198Y-08141D01*
X25196Y-08070D01*
X25196Y-02952D01*
X25198Y-02880D01*
X25204Y-02810D01*
X25212Y-02741D01*
X25224Y-02673D01*
X25240Y-02606D01*
X25258Y-02541D01*
X25280Y-02477D01*
X25304Y-02414D01*
X25332Y-02353D01*
X25362Y-02294D01*
X25396Y-02236D01*
X25431Y-02180D01*
X25470Y-02126D01*
X25511Y-02074D01*
X25554Y-02024D01*
X25599Y-01976D01*
X25647Y-01930D01*
X25697Y-01887D01*
X25749Y-01846D01*
X25803Y-01808D01*
X25859Y-01772D01*
X25917Y-01739D01*
X25976Y-01709D01*
X26037Y-01681D01*
X26100Y-01656D01*
X26164Y-01635D01*
X26230Y-01616D01*
X26297Y-01601D01*
X26365Y-01589D01*
X26434Y-01580D01*
X26504Y-01575D01*
X26575Y-01573D01*
X31693Y-01573D01*
X31693Y-01573D01*
G37*
G54D12*
X16721Y-36911D03*
X07223Y-30767D03*
X07285Y-21536D03*
X07100Y-17950D03*
G54D13*
X02756Y-02756D03*
X02756Y-36614D03*
X36614Y-02756D03*
X36614Y-36614D03*
M02*
