G04 (created by PCBNEW-RS274X (2012-apr-16-27)-stable) date Sat 30 Nov 2013 01:43:18 AM CET*
G01*
G70*
G90*
%MOIN*%
G04 Gerber Fmt 3.4, Leading zero omitted, Abs format*
%FSLAX34Y34*%
G04 APERTURE LIST*
%ADD10C,0.006000*%
%ADD11C,0.010000*%
G04 APERTURE END LIST*
G54D10*
G54D11*
X02187Y00000D02*
X37183Y00000D01*
X37183Y00000D02*
X37296Y-00003D01*
X37296Y-00003D02*
X37407Y-00011D01*
X37407Y-00011D02*
X37517Y-00025D01*
X37517Y-00025D02*
X37625Y-00044D01*
X37625Y-00044D02*
X37731Y-00069D01*
X37731Y-00069D02*
X37835Y-00098D01*
X37835Y-00098D02*
X37936Y-00132D01*
X37936Y-00132D02*
X38036Y-00171D01*
X38036Y-00171D02*
X38133Y-00215D01*
X38133Y-00215D02*
X38227Y-00263D01*
X38227Y-00263D02*
X38319Y-00316D01*
X38319Y-00316D02*
X38407Y-00373D01*
X38407Y-00373D02*
X38493Y-00433D01*
X38493Y-00433D02*
X38576Y-00498D01*
X38576Y-00498D02*
X38655Y-00567D01*
X38655Y-00567D02*
X38731Y-00639D01*
X38731Y-00639D02*
X38803Y-00715D01*
X38803Y-00715D02*
X38872Y-00794D01*
X38872Y-00794D02*
X38937Y-00877D01*
X38937Y-00877D02*
X38998Y-00963D01*
X38998Y-00963D02*
X39054Y-01051D01*
X39054Y-01051D02*
X39107Y-01143D01*
X39107Y-01143D02*
X39155Y-01237D01*
X39155Y-01237D02*
X39199Y-01334D01*
X39199Y-01334D02*
X39238Y-01434D01*
X39238Y-01434D02*
X39272Y-01535D01*
X39272Y-01535D02*
X39301Y-01639D01*
X39301Y-01639D02*
X39326Y-01745D01*
X39326Y-01745D02*
X39345Y-01853D01*
X39345Y-01853D02*
X39359Y-01963D01*
X39359Y-01963D02*
X39367Y-02074D01*
X39367Y-02074D02*
X39370Y-02187D01*
X39370Y-02187D02*
X39370Y-37183D01*
X39370Y-37183D02*
X39367Y-37296D01*
X39367Y-37296D02*
X39359Y-37407D01*
X39359Y-37407D02*
X39345Y-37517D01*
X39345Y-37517D02*
X39326Y-37625D01*
X39326Y-37625D02*
X39301Y-37731D01*
X39301Y-37731D02*
X39272Y-37835D01*
X39272Y-37835D02*
X39238Y-37936D01*
X39238Y-37936D02*
X39199Y-38036D01*
X39199Y-38036D02*
X39155Y-38133D01*
X39155Y-38133D02*
X39107Y-38227D01*
X39107Y-38227D02*
X39054Y-38319D01*
X39054Y-38319D02*
X38998Y-38407D01*
X38998Y-38407D02*
X38937Y-38493D01*
X38937Y-38493D02*
X38872Y-38576D01*
X38872Y-38576D02*
X38803Y-38655D01*
X38803Y-38655D02*
X38731Y-38731D01*
X38731Y-38731D02*
X38655Y-38803D01*
X38655Y-38803D02*
X38576Y-38872D01*
X38576Y-38872D02*
X38493Y-38937D01*
X38493Y-38937D02*
X38407Y-38998D01*
X38407Y-38998D02*
X38319Y-39054D01*
X38319Y-39054D02*
X38227Y-39107D01*
X38227Y-39107D02*
X38133Y-39155D01*
X38133Y-39155D02*
X38036Y-39199D01*
X38036Y-39199D02*
X37936Y-39238D01*
X37936Y-39238D02*
X37835Y-39272D01*
X37835Y-39272D02*
X37731Y-39301D01*
X37731Y-39301D02*
X37625Y-39326D01*
X37625Y-39326D02*
X37517Y-39345D01*
X37517Y-39345D02*
X37407Y-39359D01*
X37407Y-39359D02*
X37296Y-39367D01*
X37296Y-39367D02*
X37183Y-39370D01*
X37183Y-39370D02*
X02187Y-39370D01*
X02187Y-39370D02*
X02074Y-39367D01*
X02074Y-39367D02*
X01963Y-39359D01*
X01963Y-39359D02*
X01853Y-39345D01*
X01853Y-39345D02*
X01745Y-39326D01*
X01745Y-39326D02*
X01639Y-39301D01*
X01639Y-39301D02*
X01535Y-39272D01*
X01535Y-39272D02*
X01434Y-39238D01*
X01434Y-39238D02*
X01334Y-39199D01*
X01334Y-39199D02*
X01237Y-39155D01*
X01237Y-39155D02*
X01143Y-39107D01*
X01143Y-39107D02*
X01051Y-39054D01*
X01051Y-39054D02*
X00963Y-38998D01*
X00963Y-38998D02*
X00877Y-38937D01*
X00877Y-38937D02*
X00794Y-38872D01*
X00794Y-38872D02*
X00715Y-38803D01*
X00715Y-38803D02*
X00639Y-38731D01*
X00639Y-38731D02*
X00567Y-38655D01*
X00567Y-38655D02*
X00498Y-38576D01*
X00498Y-38576D02*
X00433Y-38493D01*
X00433Y-38493D02*
X00373Y-38407D01*
X00373Y-38407D02*
X00316Y-38319D01*
X00316Y-38319D02*
X00263Y-38227D01*
X00263Y-38227D02*
X00215Y-38133D01*
X00215Y-38133D02*
X00171Y-38036D01*
X00171Y-38036D02*
X00132Y-37936D01*
X00132Y-37936D02*
X00098Y-37835D01*
X00098Y-37835D02*
X00069Y-37731D01*
X00069Y-37731D02*
X00044Y-37625D01*
X00044Y-37625D02*
X00025Y-37517D01*
X00025Y-37517D02*
X00011Y-37407D01*
X00011Y-37407D02*
X00003Y-37296D01*
X00003Y-37296D02*
X00000Y-37183D01*
X00000Y-37183D02*
X00000Y-02187D01*
X00000Y-02187D02*
X00003Y-02074D01*
X00003Y-02074D02*
X00011Y-01963D01*
X00011Y-01963D02*
X00025Y-01853D01*
X00025Y-01853D02*
X00044Y-01745D01*
X00044Y-01745D02*
X00069Y-01639D01*
X00069Y-01639D02*
X00098Y-01535D01*
X00098Y-01535D02*
X00132Y-01434D01*
X00132Y-01434D02*
X00171Y-01334D01*
X00171Y-01334D02*
X00215Y-01237D01*
X00215Y-01237D02*
X00263Y-01143D01*
X00263Y-01143D02*
X00316Y-01051D01*
X00316Y-01051D02*
X00373Y-00963D01*
X00373Y-00963D02*
X00433Y-00877D01*
X00433Y-00877D02*
X00498Y-00794D01*
X00498Y-00794D02*
X00567Y-00715D01*
X00567Y-00715D02*
X00639Y-00639D01*
X00639Y-00639D02*
X00715Y-00567D01*
X00715Y-00567D02*
X00794Y-00498D01*
X00794Y-00498D02*
X00877Y-00433D01*
X00877Y-00433D02*
X00963Y-00373D01*
X00963Y-00373D02*
X01051Y-00316D01*
X01051Y-00316D02*
X01143Y-00263D01*
X01143Y-00263D02*
X01237Y-00215D01*
X01237Y-00215D02*
X01334Y-00171D01*
X01334Y-00171D02*
X01434Y-00132D01*
X01434Y-00132D02*
X01535Y-00098D01*
X01535Y-00098D02*
X01639Y-00069D01*
X01639Y-00069D02*
X01745Y-00044D01*
X01745Y-00044D02*
X01853Y-00025D01*
X01853Y-00025D02*
X01963Y-00011D01*
X01963Y-00011D02*
X02074Y-00003D01*
X02074Y-00003D02*
X02187Y00000D01*
X02187Y00000D02*
X02187Y00000D01*
M02*
